<?xml version="1.0" encoding="utf-8"?>
<!-- Generator: Adobe Illustrator 16.0.0, SVG Export Plug-In . SVG Version: 6.00 Build 0)  -->
<!DOCTYPE svg PUBLIC "-//W3C//DTD SVG 1.1//EN" "http://www.w3.org/Graphics/SVG/1.1/DTD/svg11.dtd">
<svg version="1.1" id="Layer_1" xmlns="http://www.w3.org/2000/svg" xmlns:xlink="http://www.w3.org/1999/xlink" x="0px" y="0px"
	 width="426.128px" height="115.04px" viewBox="0 0 426.128 115.04" enable-background="new 0 0 426.128 115.04"
	 xml:space="preserve">
<g transform="translate(0,-952.36216)">
	<path d="M91.373,952.362c-0.803,0-1.543,0.433-1.937,1.132l-26.98,1.005c-0.421-0.475-1.025-0.747-1.66-0.748
		c-0.913,0.001-1.733,0.56-2.067,1.41l-35.202,16.233c-0.27-0.113-0.56-0.17-0.852-0.171c-1.19,0.002-2.167,0.939-2.219,2.128
		l-10.012,10.716l-2.004,1.897c-0.15-0.032-0.304-0.048-0.458-0.049c-1.228,0-2.224,0.996-2.224,2.224l0,0
		c0.001,0.604,0.248,1.182,0.684,1.601l-5.339,19.116c-0.682,0.398-1.101,1.128-1.103,1.918c0,1.069,0.763,1.987,1.814,2.185
		l8.011,19.453c-0.319,0.396-0.493,0.887-0.493,1.394c0,1.229,0.996,2.226,2.224,2.226l0,0c0.691-0.002,1.343-0.324,1.763-0.873
		l18.868,4.303c0.147,1.104,1.089,1.93,2.202,1.932c0.704-0.002,1.365-0.335,1.784-0.898l13.682,3.799
		c0.368,0.774,1.148,1.269,2.006,1.271c1.229,0,2.224-0.996,2.224-2.226c-0.001-0.073-0.006-0.15-0.015-0.225l6.106-5.344
		c0.314,0.162,0.663,0.247,1.016,0.248c0.721-0.001,1.397-0.352,1.814-0.939l7.363,2.498c0.271,0.957,1.145,1.617,2.14,1.617
		c0.16,0,0.319-0.019,0.475-0.053l14.412,14.915c-0.024,0.127-0.035,0.257-0.036,0.388c0,1.228,0.995,2.223,2.224,2.223
		c0.153,0,0.307-0.018,0.458-0.049l6.919,6.017c-0.046,0.178-0.07,0.36-0.071,0.545c0.001,1.229,0.997,2.226,2.224,2.226
		c1.18-0.002,2.153-0.924,2.217-2.103l6.333-1.365c0.419,0.558,1.077,0.886,1.775,0.886c1.228,0,2.223-0.996,2.223-2.224l0,0
		c0-1.229-0.995-2.224-2.223-2.224c-0.276,0-0.55,0.051-0.808,0.15l-3.892-8.217c0.242-0.363,0.371-0.791,0.371-1.227
		c-0.001-0.162-0.02-0.322-0.055-0.479l2.507-3.761c0.221,0.07,0.453,0.107,0.685,0.107c0.739,0,1.43-0.365,1.844-0.979l8.019,0.6
		c0.342,0.829,1.153,1.371,2.051,1.371c1.227,0,2.224-0.994,2.224-2.223c-0.001-0.064-0.004-0.131-0.01-0.197l4.501-7.139
		c0.506-0.086,0.967-0.34,1.306-0.725h4.232c0.35,0.815,1.153,1.348,2.043,1.35c1.228,0,2.223-0.996,2.223-2.225
		c0-0.631-0.269-1.23-0.739-1.652l7.7-11.627c1.123-0.127,1.972-1.078,1.974-2.207c-0.001-1.016-0.692-1.903-1.677-2.152
		l-2.204-14.396c0.682-0.398,1.101-1.128,1.102-1.917c0-1.229-0.997-2.224-2.224-2.224c-0.084,0.001-0.167,0.007-0.25,0.018
		l-14.744-25.802c0.222-0.353,0.339-0.761,0.342-1.179c0-1.228-0.997-2.223-2.226-2.223c-0.396,0.001-0.785,0.108-1.127,0.31
		L93.541,954.11c-0.222-1.02-1.125-1.747-2.17-1.749h0.002V952.362z M89.227,955.171c0.239,0.871,0.979,1.511,1.877,1.62
		l3.35,14.772l-31.457-15.29c0.006-0.042,0.011-0.084,0.015-0.127L89.227,955.171L89.227,955.171z M93.198,955.853l27.097,16.427
		l-21.978,0.159c-0.379-0.745-1.146-1.215-1.98-1.215c-0.083,0.001-0.165,0.007-0.246,0.017l-3.375-14.884
		C92.901,956.215,93.064,956.046,93.198,955.853L93.198,955.853z M58.804,956.963c0.125,0.25,0.295,0.475,0.503,0.662L47.77,975.499
		c-0.218-0.07-0.446-0.105-0.675-0.106c-0.83,0-1.591,0.464-1.973,1.202l-20.273-3.597c-0.023-0.113-0.055-0.225-0.095-0.333
		L58.804,956.963L58.804,956.963z M62.23,957.755l29.386,14.283l-23.583,2.589L62.23,957.755z M60.724,958.505l5.609,16.309
		l-17.213,1.889c-0.019-0.042-0.039-0.083-0.06-0.125L60.724,958.505L60.724,958.505z M93.769,973.48l-21.227,12.805
		c-0.184-0.121-0.384-0.214-0.595-0.276l-3.359-9.765L93.769,973.48z M121.534,973.939c0.057,0.422,0.233,0.82,0.507,1.144
		l-4.482,11.743l-19.105-12.708c0.003-0.004,0.004-0.009,0.005-0.015L121.534,973.939L121.534,973.939z M24.549,974.638
		l20.421,3.624c0.069,0.227,0.174,0.442,0.31,0.635l-16.453,16.956c-0.066-0.007-0.131-0.012-0.197-0.014
		c-0.141,0.001-0.281,0.015-0.419,0.042c-0.123-0.636-0.237-1.238-0.403-2.079c-0.485-2.441-1.13-5.619-1.776-8.772
		c-0.843-4.118-1.539-7.479-2.022-9.812c0.213-0.161,0.396-0.358,0.539-0.584V974.638z M94.204,975.164l-9.91,30.077
		c-0.218,0.053-0.428,0.139-0.621,0.255l-10.759-15.811c0.402-0.414,0.628-0.968,0.628-1.544c0-0.161-0.019-0.321-0.055-0.478
		L94.204,975.164L94.204,975.164z M97.381,975.408l19.567,13.016l-5.867,15.365c-0.017-0.001-0.034-0.001-0.052,0
		c-0.275,0-0.548,0.051-0.803,0.149l-12.88-28.506c0.013-0.007,0.023-0.014,0.036-0.021L97.381,975.408L97.381,975.408z
		 M21.892,975.526c0.163,0.062,0.332,0.104,0.504,0.125c0.487,2.35,1.175,5.674,2.003,9.718c0.645,3.15,1.29,6.327,1.773,8.762
		c0.138,0.694,0.225,1.154,0.333,1.71l-16.333-8.084c-0.043-0.243-0.127-0.476-0.247-0.692l1.702-1.821L21.892,975.526
		L21.892,975.526z M124.258,975.805l14.269,24.97l-19.546-13.001l4.55-11.915c0.067,0.008,0.136,0.013,0.204,0.015
		c0.175-0.001,0.352-0.022,0.523-0.064V975.805L124.258,975.805z M95.722,975.887l13.229,29.276l-22.044,1.471
		c-0.176-0.476-0.507-0.877-0.94-1.138L95.722,975.887z M66.889,976.43l3.359,9.764c-0.248,0.136-0.466,0.317-0.646,0.534
		l-19.77-8.426L66.889,976.43z M48.321,979.47l20.713,8.828l-11.598,6.46c-0.396-0.325-0.894-0.503-1.406-0.503
		c-0.053-0.001-0.105-0.001-0.158,0l-7.555-14.787c0.001,0,0.003,0,0.004,0V979.47z M46.651,979.879l7.725,15.118
		c-0.366,0.407-0.568,0.935-0.569,1.482c0,0.494,0.165,0.974,0.468,1.364l-10.821,17.268c-0.043,0-0.087,0-0.13,0
		c-0.294,0-0.584,0.061-0.855,0.172l-12.166-15.745c0.355-0.405,0.551-0.925,0.552-1.464c0-0.509-0.175-1.002-0.495-1.396
		l16.292-16.791L46.651,979.879L46.651,979.879z M118.373,989.371l19.879,13.224l-25.554,1.639L118.373,989.371z M9.791,989.43
		l15.975,7.906L3.6,1009.03c-0.211-0.168-0.452-0.296-0.709-0.377l5.108-18.29C8.711,990.356,9.377,990.01,9.791,989.43z
		 M69.814,989.773c0.41,0.378,0.947,0.589,1.504,0.59c0.013,0,0.026,0,0.04,0l11.285,16.585c-0.032,0.148-0.047,0.3-0.047,0.451
		c0.001,0.18,0.023,0.358,0.068,0.534l-7.584,11.538c-0.185,0.001-0.369,0.026-0.548,0.071l-16.624-21.878
		c0.225-0.354,0.345-0.766,0.346-1.185c0-0.086-0.007-0.172-0.018-0.257l11.578-6.448V989.773z M56.554,998.637l16.642,21.901
		c-0.016,0.023-0.031,0.049-0.045,0.074l-27.681-3.869c-0.093-0.338-0.265-0.649-0.501-0.91l10.752-17.154
		c0.103,0.016,0.206,0.024,0.31,0.025C56.207,998.702,56.382,998.681,56.554,998.637L56.554,998.637z M26.463,998.854l-8.11,17.708
		c-0.363,0.092-0.697,0.275-0.971,0.532l-12.937-6.392c-0.003-0.074-0.009-0.148-0.02-0.224L26.463,998.854z M27.584,1000.411
		l4.092,27.456l-10.783-8.168c0.152-0.306,0.231-0.643,0.232-0.981c-0.001-0.771-0.401-1.488-1.058-1.892L27.584,1000.411z
		 M29.365,1001.045l11.91,15.414c-0.117,0.274-0.176,0.57-0.176,0.867c0.001,1.098,0.802,2.027,1.886,2.195l7.672,21.943
		c-0.178,0.115-0.339,0.256-0.477,0.416l-16.604-12.575L29.365,1001.045L29.365,1001.045z M138.782,1004.232l-4.847,12.26
		l-20.69-10.348c0.002-0.044,0.005-0.09,0.005-0.135c0-0.047-0.001-0.094-0.004-0.14L138.782,1004.232L138.782,1004.232z
		 M140.137,1005.341l2.146,14.029c-0.358,0.205-0.652,0.508-0.848,0.871l-6.003-3.002L140.137,1005.341z M108.703,1006.851
		l-2.956,18.887l-18.912-17.405c0.004-0.008,0.008-0.016,0.012-0.022L108.703,1006.851L108.703,1006.851z M110.2,1008.071
		c0.264,0.106,0.544,0.161,0.829,0.162c0.218-0.001,0.434-0.033,0.644-0.097l12.114,16.01l-15.766,2.518
		c-0.191-0.188-0.415-0.34-0.66-0.449L110.2,1008.071L110.2,1008.071z M113.925,1008.35l19.395,9.696l-1.93,4.886l-5.738,0.916
		L113.925,1008.35z M85.615,1009.474l19.02,17.506c-0.258,0.371-0.396,0.812-0.396,1.268c0.001,0.021,0.001,0.045,0.003,0.065
		l-15.162,9.194c-0.269-0.239-0.593-0.41-0.943-0.498l-3.007-27.412c0.166-0.022,0.329-0.064,0.487-0.124L85.615,1009.474z
		 M83.466,1009.749l2.93,26.7l-9.438-13.551c0.232-0.357,0.355-0.777,0.357-1.205c-0.001-0.594-0.238-1.16-0.66-1.578
		L83.466,1009.749z M3.86,1012.275l12.823,6.334c-0.003,0.036-0.005,0.07-0.006,0.107c0,0.529,0.191,1.043,0.537,1.443
		l-5.789,11.426c-0.044,0.004-0.088,0.011-0.132,0.016l-7.82-18.988c0.141-0.097,0.27-0.209,0.386-0.334L3.86,1012.275
		L3.86,1012.275z M45.27,1018.4l27.42,3.832l-10.722,11.479c-0.248-0.094-0.51-0.143-0.775-0.143c-0.541,0-1.062,0.198-1.468,0.557
		l-14.458-15.719c0.001,0,0.003,0,0.004,0L45.27,1018.4z M134.818,1018.796l5.443,2.722l-6.959,1.108L134.818,1018.796z
		 M45.197,1020.794l13.772,14.974c0,0.009,0,0.017-0.001,0.022c0.001,0.242,0.042,0.482,0.121,0.711l-5.833,5.105
		c-0.272-0.222-0.594-0.373-0.938-0.445L45.197,1020.794L45.197,1020.794z M19.611,1020.82l12.417,9.404l1.064,7.139
		c-0.187,0.135-0.352,0.297-0.489,0.482l-18.842-4.298c-0.064-0.548-0.329-1.052-0.743-1.414l5.677-11.205
		c0.068,0.009,0.137,0.015,0.206,0.017c0.241,0,0.481-0.041,0.709-0.119L19.611,1020.82L19.611,1020.82z M141.902,1022.945
		c0.022,0.021,0.044,0.043,0.068,0.063l-7.654,11.558c-0.167,0.012-0.331,0.041-0.491,0.088l-3.465-4.58l2.23-5.644
		L141.902,1022.945L141.902,1022.945z M73.587,1023.715l-2.171,13.319c-0.353,0.199-0.645,0.492-0.844,0.846l-7.184-2.438
		c-0.034-0.209-0.097-0.416-0.189-0.607L73.587,1023.715L73.587,1023.715z M75.592,1023.858l9.897,14.208l-10.816,0.4
		c-0.181-0.779-0.768-1.403-1.535-1.631l2.107-12.924C75.362,1023.904,75.478,1023.886,75.592,1023.858L75.592,1023.858z
		 M130.676,1024.736l-1.495,3.779l-2.39-3.159L130.676,1024.736z M124.926,1025.654l3.538,4.678l-1.459,3.689
		c-0.161-0.035-0.325-0.055-0.49-0.057c-0.651,0-1.267,0.285-1.689,0.777l-14.774-6.715L124.926,1025.654L124.926,1025.654z
		 M109.087,1029.421l15.208,6.912c0.045,0.644,0.363,1.236,0.877,1.623l-3.742,5.937c-0.373-0.259-0.815-0.397-1.269-0.397
		c-0.116,0.002-0.234,0.012-0.349,0.029L109.087,1029.421L109.087,1029.421z M104.925,1029.85c0.259,0.25,0.575,0.433,0.923,0.532
		l1.136,12.516c-0.6,0.415-0.959,1.1-0.959,1.828c0,0.359,0.088,0.714,0.255,1.031l-2.27,3.404c-0.34-0.199-0.728-0.307-1.122-0.308
		c-0.448,0.001-0.885,0.138-1.253,0.39l-11.946-9.324c0.088-0.24,0.133-0.496,0.134-0.754c0-0.053-0.001-0.104-0.006-0.154
		L104.925,1029.85L104.925,1029.85L104.925,1029.85z M107.565,1030.175l10.812,14.22c-0.115,0.155-0.208,0.324-0.281,0.502
		l-7.663-0.573c-0.169-0.912-0.89-1.627-1.808-1.785l-1.121-12.328C107.526,1030.197,107.545,1030.184,107.565,1030.175
		L107.565,1030.175z M33.928,1031.665l13.493,10.22l-10.831-3.011c-0.13-0.979-0.893-1.756-1.871-1.903L33.928,1031.665z
		 M129.642,1031.889l2.879,3.804c-0.054,0.098-0.1,0.195-0.14,0.299h-3.653c-0.03-0.346-0.143-0.679-0.326-0.973L129.642,1031.889
		L129.642,1031.889z M85.45,1039.736c0.23,0.863,0.953,1.506,1.838,1.631l0.851,13.055l-13.765-14.245
		c0.005-0.011,0.013-0.021,0.019-0.031L85.45,1039.736L85.45,1039.736z M88.966,1041.473l11.742,9.166
		c-0.029,0.146-0.045,0.293-0.045,0.442c0,0.053,0.003,0.104,0.007,0.156l-9.432,3.719c-0.371-0.414-0.885-0.676-1.44-0.729
		L88.966,1041.473L88.966,1041.473z M101.411,1052.74c0.082,0.073,0.168,0.139,0.261,0.199l-1.523,4.062
		c-0.66,0.049-1.266,0.389-1.65,0.927l-6.707-1.222c0.005-0.061,0.01-0.119,0.013-0.182L101.411,1052.74L101.411,1052.74
		L101.411,1052.74z M103.344,1053.253l3.476,7.341l-4.303-1.589c-0.055-0.58-0.336-1.113-0.781-1.488l1.598-4.262
		c0.004,0,0.007,0,0.009,0v-0.002H103.344z M92.489,1058.531l5.62,1.021c0.089,0.576,0.4,1.098,0.869,1.445l-0.258,1.99
		c-0.271,0.051-0.531,0.148-0.766,0.293L92.489,1058.531L92.489,1058.531z M102.043,1060.607l4.84,1.789l-6.099,1.312
		c-0.126-0.141-0.269-0.27-0.427-0.375l0.248-1.912C101.171,1061.345,101.685,1061.054,102.043,1060.607L102.043,1060.607z"/>
</g>
<g>
	<path d="M188.046,41.402l-5.995,6.668v14.238h-11.84V9.18h11.84v22.331L201.46,9.18h15.586l-20.682,23.005l20.756,30.124h-14.763
		L188.046,41.402z"/>
	<path d="M219.146,62.308V8.056h11.391v54.252H219.146z"/>
	<path d="M270.705,51.593c-1.799,6.443-7.72,11.84-17.16,11.84c-10.268,0-19.408-7.345-19.408-19.858
		c0-11.989,8.917-19.633,18.584-19.633c11.539,0,18.658,7.119,18.658,19.109c0,1.573-0.149,3.297-0.225,3.521h-25.929
		c0.226,4.195,4.047,7.193,8.468,7.193c4.122,0,6.445-1.949,7.494-4.871L270.705,51.593z M260.363,39.228
		c-0.15-2.848-2.099-6.294-7.494-6.294c-4.795,0-7.193,3.522-7.418,6.294H260.363z"/>
	<path d="M283.744,40.802l8.769-1.35c2.022-0.301,2.696-1.273,2.696-2.549c0-2.172-1.873-4.046-5.47-4.046
		c-3.972,0-6.146,2.699-6.37,5.471l-9.891-2.022c0.449-5.321,5.395-12.365,16.336-12.365c12.064,0,16.484,6.744,16.484,14.388
		v18.209c0,2.923,0.375,5.396,0.451,5.771h-10.268c-0.074-0.301-0.375-1.648-0.375-4.196c-1.947,3.147-5.545,5.245-10.49,5.245
		c-8.168,0-12.89-5.396-12.89-11.315C272.728,45.449,277.599,41.702,283.744,40.802z M295.208,47.697v-1.648l-7.045,1.124
		c-2.396,0.374-4.195,1.498-4.195,4.121c0,1.948,1.273,3.822,4.422,3.822C291.762,55.116,295.208,53.465,295.208,47.697z"/>
	<path d="M323.537,62.308h-11.391V25.065h11.016v4.271c2.023-3.522,6.596-5.246,10.416-5.246c9.367,0,13.563,6.669,13.563,14.837
		v23.381h-11.39V40.876c0-3.672-1.949-6.443-6.07-6.443c-3.747,0-6.145,2.771-6.145,6.52V62.308L323.537,62.308z"/>
	<path d="M353.737,62.308V9.18h11.989v53.128H353.737z"/>
	<path d="M398.025,8.056c14.912,0,27.576,10.866,27.576,27.726c0,7.118-2.248,13.114-5.994,17.685l6.52,7.119l-7.795,6.596
		l-6.52-7.195c-4.047,2.248-8.842,3.447-13.787,3.447c-14.986,0-27.652-10.865-27.652-27.65
		C370.373,18.92,383.039,8.056,398.025,8.056z M398.025,51.743c1.799,0,3.598-0.3,5.395-0.897l-7.793-8.543l7.869-6.596l7.793,8.543
		c1.273-2.322,2.021-5.096,2.021-8.543c0-11.09-7.941-16.111-15.285-16.111c-7.419,0-15.361,5.021-15.361,16.111
		S390.606,51.743,398.025,51.743z"/>
</g>
<text transform="matrix(1 0 0 1 204.064 102.1743)" font-family="'CamphorW04-Bold'" font-size="46.7496" letter-spacing="4">ADMIN</text>
</svg>
