<?xml version="1.0" standalone="no"?>
<!DOCTYPE svg PUBLIC "-//W3C//DTD SVG 1.1//EN" "http://www.w3.org/Graphics/SVG/1.1/DTD/svg11.dtd" >
<svg>
<metadata>
Created by FontForge 20120731 at Fri Oct 21 12:30:04 2016
 By ,,,
Copyright 2010 Monotype Imaging Inc. All rights reserved. Designed by Nick Job.
</metadata>
<defs>
<font id="CamphorW04-Light" horiz-adv-x="563" >
  <font-face 
    font-family="CamphorW04-Light"
    font-weight="300"
    font-stretch="normal"
    units-per-em="1000"
    panose-1="2 11 3 4 3 4 4 2 2 4"
    ascent="800"
    descent="-200"
    x-height="500"
    cap-height="688"
    bbox="-208 -250 1161 938"
    underline-thickness="50"
    underline-position="-75"
    unicode-range="U+0020-FB04"
  />
<missing-glyph horiz-adv-x="500" 
d="M12 665h475v-665h-475v665zM250 375l161 243h-323zM60 91l7 10t18 27t25.5 39t29.5 45q35 54 81 121l-161 242v-484zM278 333l162 -243v485zM250 290l-162 -242h323z" />
    <glyph glyph-name="IJ" unicode="IJ" horiz-adv-x="728" 
d="M103 688h64v-688h-64v688zM628 174q0 -41 -14.5 -75t-40 -59t-60.5 -38.5t-77 -13.5q-62 0 -129 32v62q68 -40 122 -40q30 0 54.5 10t42.5 28t28 43t10 55v510h64v-514z" />
    <glyph glyph-name="ij" unicode="ij" horiz-adv-x="458" 
d="M83 500h63v-500h-63v500zM73 647q0 19 11.5 30t29.5 11q19 0 30.5 -11t11.5 -30q0 -18 -11.5 -29.5t-30.5 -11.5q-18 0 -29.5 11.5t-11.5 29.5zM302 647q0 19 11.5 30t29.5 11q19 0 30.5 -11t11.5 -30q0 -18 -11.5 -29.5t-30.5 -11.5q-18 0 -29.5 11.5t-11.5 29.5z
M375 -90q0 -31 -10.5 -57t-30 -44.5t-46.5 -29t-59 -10.5q-44 0 -96 24v56q48 -28 87 -28q42 0 67 26t25 68v585h63v-590z" />
    <glyph glyph-name="napostrophe" unicode="&#x27;n" horiz-adv-x="648" 
d="M171 500h63v-59q37 35 78 53t84 18q38 0 70 -13t55 -36t35.5 -54.5t12.5 -69.5v-339h-62v332q0 56 -34.5 91.5t-89.5 35.5q-38 0 -76.5 -19.5t-72.5 -57.5v-382h-63v500zM81 688h62l-81 -197h-53z" />
    <glyph glyph-name="uniE400" unicode="fb" horiz-adv-x="885" 
d="M121 450h-99v50h99v59q0 38 13.5 69.5t37.5 54.5t57.5 35.5t74.5 12.5q78 0 166 -44v-234q32 29 69 44t77 15q49 0 90.5 -19.5t71 -54t46 -82.5t16.5 -106t-16.5 -106t-46 -82.5t-71 -54t-90.5 -19.5q-80 0 -146 60v-48h-62v655q-54 24 -101 24q-55 0 -89 -34.5
t-34 -89.5v-55h156v-50h-156v-450h-63v450zM775 250q0 46 -12 84.5t-34 66t-53 43t-68 15.5q-74 0 -138 -64v-289q64 -66 138 -66q37 0 68 15.5t53 43.5t34 66.5t12 84.5z" />
    <glyph glyph-name="uniE401" unicode="ffb" horiz-adv-x="1171" 
d="M121 450h-99v50h99v90q0 63 40.5 102t105.5 39q23 0 46.5 -6t49.5 -17v-56q-47 27 -87 27q-42 0 -67 -25.5t-25 -67.5v-86h224v59q0 38 13.5 69.5t37.5 54.5t57.5 35.5t74.5 12.5q77 0 165 -44v-234q65 59 147 59q49 0 90 -19.5t70 -54t45.5 -82.5t16.5 -106t-16.5 -106
t-45.5 -82.5t-70 -54t-90 -19.5q-82 0 -147 60v-48h-63v655q-26 12 -51 18t-48 6q-55 0 -89.5 -34t-34.5 -88v-57h156v-50h-156v-450h-62v450h-224v-450h-63v450zM1062 250q0 46 -12.5 84.5t-34.5 66t-52.5 43t-67.5 15.5q-75 0 -139 -64v-289q64 -66 139 -66
q37 0 67.5 15.5t52.5 43.5t34.5 66.5t12.5 84.5z" />
    <glyph glyph-name="uniE402" unicode="fh" horiz-adv-x="885" 
d="M121 450h-99v50h99v59q0 38 13.5 69.5t37.5 54.5t57.5 35.5t74.5 12.5q78 0 166 -44v-246q74 71 163 71q38 0 69.5 -13t54.5 -36t36 -54.5t13 -69.5v-339h-63v332q0 28 -9 51t-25.5 40t-39 26.5t-49.5 9.5q-39 0 -77 -19.5t-73 -57.5v-382h-62v655q-54 24 -101 24
q-55 0 -89 -34t-34 -88v-57h156v-50h-156v-450h-63v450z" />
    <glyph glyph-name="uniE403" unicode="ffh" horiz-adv-x="1171" 
d="M693 655q-26 12 -51 18t-48 6q-55 0 -89.5 -34t-34.5 -88v-57h156v-50h-156v-450h-62v450h-224v-450h-63v450h-99v50h99v90q0 63 40.5 102t105.5 39q23 0 46.5 -6t49.5 -17v-56q-47 27 -87 27q-42 0 -67 -25.5t-25 -67.5v-86h224v59q0 38 13.5 69.5t37.5 54.5t57.5 35.5
t74.5 12.5q77 0 165 -44v-246q37 35 78.5 53t83.5 18q38 0 70 -13t55 -36t35.5 -54.5t12.5 -69.5v-339h-62v332q0 56 -34 91.5t-90 35.5q-38 0 -76.5 -19.5t-72.5 -57.5v-382h-63v655z" />
    <glyph glyph-name="uniE404" unicode="fj" horiz-adv-x="553" 
d="M121 450h-99v50h99v59q0 37 13 69t36 54.5t55.5 35.5t70.5 13q65 0 128 -33v-59q-66 40 -123 40q-52 0 -84.5 -34t-32.5 -89v-56h286v-590q0 -31 -11 -57t-30 -44.5t-46 -29t-58 -10.5q-47 0 -96 24v56q47 -28 87 -28q41 0 66.5 26t25.5 68v535h-224v-450h-63v450z" />
    <glyph glyph-name="uniE405" unicode="ffj" horiz-adv-x="839" 
d="M121 450h-99v50h99v90q0 63 40.5 102t105.5 39q23 0 46.5 -6t49.5 -17v-56q-47 27 -87 27q-42 0 -67 -25.5t-25 -67.5v-86h224v59q0 37 13 69t36 54.5t55 35.5t71 13q62 0 127 -33v-59q-68 40 -123 40q-52 0 -84.5 -34t-32.5 -89v-56h286v-590q0 -31 -10.5 -57t-30 -44.5
t-46.5 -29t-59 -10.5q-44 0 -96 24v56q48 -28 87 -28q42 0 67 26t25 68v535h-223v-450h-62v450h-224v-450h-63v450z" />
    <glyph glyph-name="uniE406" unicode="fk" horiz-adv-x="795" 
d="M121 450h-99v50h99v59q0 38 13.5 69.5t37.5 54.5t57.5 35.5t74.5 12.5q78 0 166 -44v-412l218 225h79l-240 -246l248 -254h-80l-225 233v-233h-62v655q-54 24 -101 24q-55 0 -89 -34t-34 -88v-57h156v-50h-156v-450h-63v450z" />
    <glyph glyph-name="uniE407" unicode="ffk" horiz-adv-x="1081" 
d="M121 450h-99v50h99v90q0 63 40.5 102t105.5 39q23 0 46.5 -6t49.5 -17v-56q-47 27 -87 27q-42 0 -67 -25.5t-25 -67.5v-86h224v59q0 38 13.5 69.5t37.5 54.5t57.5 35.5t74.5 12.5q77 0 164 -44v-412l219 225h78l-239 -246l247 -254h-78l-227 233v-233h-62v655
q-26 12 -51 18t-48 6q-55 0 -89.5 -34t-34.5 -88v-57h156v-50h-156v-450h-62v450h-224v-450h-63v450z" />
    <glyph glyph-name="uniE408" unicode="ft" horiz-adv-x="686" 
d="M121 450h-99v50h99v59q0 38 13.5 69.5t37.5 54.5t57.5 35.5t74.5 12.5q78 0 166 -44v-187h178v-50h-178v-316q0 -42 25.5 -68t65.5 -26q39 0 87 28v-56q-50 -24 -96 -24q-32 0 -58 10.5t-45.5 29t-30 44.5t-10.5 57v321h-224v-450h-63v450zM408 500v155q-54 24 -101 24
q-55 0 -89 -34t-34 -88v-57h224z" />
    <glyph glyph-name="uniE409" unicode="fft" horiz-adv-x="973" 
d="M121 450h-99v50h99v90q0 63 40.5 102t105.5 39q23 0 46.5 -6t49.5 -17v-56q-47 27 -87 27q-42 0 -67 -25.5t-25 -67.5v-86h224v59q0 38 13.5 69.5t37.5 54.5t57.5 35.5t74.5 12.5q77 0 165 -44v-187h179v-50h-179v-316q0 -42 25 -68t67 -26q39 0 87 28v-56
q-51 -24 -96 -24q-32 0 -59 10.5t-46.5 29t-30 44.5t-10.5 57v321h-223v-450h-62v450h-224v-450h-63v450zM693 500v155q-26 12 -51 18t-48 6q-55 0 -89.5 -34t-34.5 -88v-57h223z" />
    <glyph glyph-name="uniE410" unicode="f&#xfe;" horiz-adv-x="885" 
d="M121 450h-99v50h99v59q0 38 13.5 69.5t37.5 54.5t57.5 35.5t74.5 12.5q78 0 166 -44v-234q32 29 69 44t77 15q49 0 90.5 -19.5t71 -54t46 -82.5t16.5 -106t-16.5 -106t-46 -82.5t-71 -54t-90.5 -19.5q-80 0 -146 60v-267h-62v874q-54 24 -101 24q-55 0 -89 -34.5
t-34 -89.5v-55h156v-50h-156v-450h-63v450zM775 250q0 46 -12 84.5t-34 66t-53 43t-68 15.5q-74 0 -138 -64v-289q64 -66 138 -66q37 0 68 15.5t53 43.5t34 66.5t12 84.5z" />
    <glyph glyph-name="uniE411" unicode="ff&#xfe;" horiz-adv-x="1171" 
d="M121 450h-99v50h99v90q0 63 40.5 102t105.5 39q23 0 46.5 -6t49.5 -17v-56q-47 27 -87 27q-42 0 -67 -25.5t-25 -67.5v-86h224v59q0 38 13.5 69.5t37.5 54.5t57.5 35.5t74.5 12.5q77 0 165 -44v-234q65 59 147 59q49 0 90 -19.5t70 -54t45.5 -82.5t16.5 -106t-16.5 -106
t-45.5 -82.5t-70 -54t-90 -19.5q-82 0 -147 60v-267h-63v874q-26 12 -51 18t-48 6q-55 0 -89.5 -34t-34.5 -88v-57h156v-50h-156v-450h-62v450h-224v-450h-63v450zM1062 250q0 46 -12.5 84.5t-34.5 66t-52.5 43t-67.5 15.5q-75 0 -139 -64v-289q64 -66 139 -66
q37 0 67.5 15.5t52.5 43.5t34.5 66.5t12.5 84.5z" />
    <glyph glyph-name="uniFB00" unicode="ff" horiz-adv-x="648" 
d="M121 450h-99v50h99v90q0 63 40.5 102t105.5 39q23 0 46.5 -6t49.5 -17v-56q-47 27 -87 27q-42 0 -67 -25.5t-25 -67.5v-86h224v90q0 31 10.5 57t30 44.5t45.5 29t58 10.5q45 0 96 -23v-56q-45 27 -87 27q-40 0 -65.5 -25.5t-25.5 -67.5v-86h156v-50h-156v-450h-62v450
h-224v-450h-63v450z" />
    <glyph glyph-name="uniFB01" unicode="fi" horiz-adv-x="553" 
d="M121 450h-99v50h99v59q0 37 13 69t36 54.5t55.5 35.5t70.5 13q65 0 128 -33v-59q-66 40 -123 40q-52 0 -84.5 -34t-32.5 -89v-56h286v-500h-62v450h-224v-450h-63v450z" />
    <glyph glyph-name="uniFB02" unicode="fl" horiz-adv-x="553" 
d="M121 450h-99v50h99v59q0 38 13.5 69.5t37.5 54.5t57.5 35.5t74.5 12.5q78 0 166 -44v-687h-62v655q-26 12 -52 18t-49 6q-55 0 -89 -34t-34 -88v-57h156v-50h-156v-450h-63v450z" />
    <glyph glyph-name="uniFB03" unicode="ffi" horiz-adv-x="839" 
d="M121 450h-99v50h99v90q0 63 40.5 102t105.5 39q23 0 46.5 -6t49.5 -17v-56q-47 27 -87 27q-42 0 -67 -25.5t-25 -67.5v-86h224v59q0 37 13 69t36 54.5t55 35.5t71 13q62 0 127 -33v-59q-68 40 -123 40q-52 0 -84.5 -34t-32.5 -89v-56h286v-500h-63v450h-223v-450h-62v450
h-224v-450h-63v450z" />
    <glyph glyph-name="uniFB04" unicode="ffl" horiz-adv-x="839" 
d="M121 450h-99v50h99v90q0 63 40.5 102t105.5 39q23 0 46.5 -6t49.5 -17v-56q-47 27 -87 27q-42 0 -67 -25.5t-25 -67.5v-86h224v59q0 38 13.5 69.5t37.5 54.5t57.5 35.5t74.5 12.5q77 0 165 -44v-687h-63v655q-26 12 -51 18t-48 6q-55 0 -89.5 -34t-34.5 -88v-57h156v-50
h-156v-450h-62v450h-224v-450h-63v450z" />
    <glyph glyph-name=".notdef" horiz-adv-x="500" 
d="M12 665h475v-665h-475v665zM250 375l161 243h-323zM60 91l7 10t18 27t25.5 39t29.5 45q35 54 81 121l-161 242v-484zM278 333l162 -243v485zM250 290l-162 -242h323z" />
    <glyph glyph-name="glyph1" horiz-adv-x="0" 
 />
    <glyph glyph-name="glyph1" horiz-adv-x="0" 
 />
    <glyph glyph-name="glyph2" horiz-adv-x="250" 
 />
    <glyph glyph-name="space" unicode=" " horiz-adv-x="250" 
 />
    <glyph glyph-name="exclam" unicode="!" horiz-adv-x="257" 
d="M98 688h62v-496h-62v496zM83 33q0 20 13 33t33 13t32.5 -13t12.5 -33t-12.5 -32.5t-32.5 -12.5t-33 12.5t-13 32.5z" />
    <glyph glyph-name="quotedbl" unicode="&#x22;" horiz-adv-x="412" 
d="M260 688h54v-212h-54v212zM98 688h55v-212h-55v212z" />
    <glyph glyph-name="numbersign" unicode="#" 
d="M14 254h112l23 180h-107v54h113l25 200h55l-25 -200h178l26 200h55l-25 -200h105v-54h-112l-23 -180h106v-54h-112l-25 -200h-55l25 200h-178l-26 -200h-55l25 200h-105v54zM181 254h178l23 180h-178z" />
    <glyph glyph-name="dollar" unicode="$" 
d="M254 20q-39 2 -79 13t-78 32v66q41 -29 84 -43.5t85 -14.5q32 0 59.5 8.5t47.5 24.5t31.5 38t11.5 49q0 42 -24.5 66t-61 40.5t-79.5 29.5t-79.5 33.5t-61 52t-24.5 84.5q0 33 12 61t34.5 50t53 36.5t68.5 19.5v147h55v-145q71 -3 142 -37v-64q-78 49 -154 49
q-64 0 -105 -31t-41 -84q0 -40 24.5 -63.5t61 -39t79.5 -29t79.5 -34t61 -53.5t24.5 -87q0 -35 -12.5 -64t-35 -51.5t-54.5 -37.5t-70 -20v-147h-55v145z" />
    <glyph glyph-name="percent" unicode="%" horiz-adv-x="845" 
d="M479 172q0 40 12 74t33 58.5t50.5 38t64.5 13.5t64.5 -13.5t51 -38t33.5 -58.5t12 -74q0 -41 -12 -74.5t-33.5 -58t-51 -38t-64.5 -13.5t-64.5 13.5t-50.5 38t-33 58t-12 74.5zM532 172q0 -63 29.5 -102t77.5 -39q24 0 44 10.5t34 29t22 44.5t8 57t-8 57t-22 44.5t-34 29
t-44 10.5q-48 0 -77.5 -39t-29.5 -102zM45 516q0 40 12 74t33 58.5t50.5 38t64.5 13.5t64.5 -13.5t51 -38t33.5 -58.5t12 -74q0 -41 -12 -74.5t-33.5 -58t-51 -38t-64.5 -13.5t-64.5 13.5t-50.5 38t-33 58t-12 74.5zM98 516q0 -63 29.5 -101.5t77.5 -38.5t78 38.5t30 101.5
q0 31 -8 57t-22 44.5t-34 29t-44 10.5q-48 0 -77.5 -39t-29.5 -102zM652 688h57l-516 -688h-57z" />
    <glyph glyph-name="ampersand" unicode="&#x26;" horiz-adv-x="638" 
d="M623 324h-137v-284q-51 -26 -99 -39t-99 -13t-93.5 13.5t-73 38.5t-47.5 59t-17 75q0 64 38 112t103 68q-58 19 -92 64t-34 102q0 40 15 73t42.5 57t65.5 37t84 13q80 0 166 -43v-61q-40 24 -80.5 37t-79.5 13q-32 0 -59 -9.5t-46.5 -27t-30.5 -41.5t-11 -53
q0 -31 12.5 -56.5t35.5 -44t55 -29t71 -10.5h311v-51zM122 179q0 -30 12.5 -55t35 -43.5t54 -28.5t68.5 -10q32 0 65 8.5t65 23.5v250h-115q-41 0 -74.5 -10.5t-58.5 -29.5t-38.5 -46t-13.5 -59z" />
    <glyph glyph-name="quotesingle" unicode="'" horiz-adv-x="250" 
d="M98 688h55v-212h-55v212z" />
    <glyph glyph-name="parenleft" unicode="(" horiz-adv-x="317" 
d="M82 282q0 118 37.5 228.5t111.5 208.5h67q-75 -97 -113.5 -207.5t-38.5 -229.5q0 -120 38.5 -230.5t113.5 -207.5h-67q-74 98 -111.5 209t-37.5 229z" />
    <glyph glyph-name="parenright" unicode=")" horiz-adv-x="317" 
d="M234 282q0 -118 -37.5 -229t-110.5 -209h-68q75 97 114 207.5t39 230.5q0 119 -39 229.5t-114 207.5h68q73 -98 110.5 -208.5t37.5 -228.5z" />
    <glyph glyph-name="asterisk" unicode="*" horiz-adv-x="442" 
d="M247 533l148 48l16 -50l-148 -48l92 -126l-43 -31l-91 125l-92 -125l-42 31l91 126l-147 48l16 50l147 -48v155h53v-155z" />
    <glyph glyph-name="plus" unicode="+" 
d="M31 309h223v223h55v-223h223v-55h-223v-223h-55v223h-223v55z" />
    <glyph glyph-name="comma" unicode="," horiz-adv-x="250" 
d="M100 72h62l-82 -197h-54z" />
    <glyph glyph-name="hyphen" unicode="-" horiz-adv-x="313" 
d="M37 279h239v-49h-239v49z" />
    <glyph glyph-name="period" unicode="." horiz-adv-x="250" 
d="M80 33q0 20 12.5 33t32.5 13t32.5 -13t12.5 -33t-12.5 -32.5t-32.5 -12.5t-32.5 12.5t-12.5 32.5z" />
    <glyph glyph-name="slash" unicode="/" horiz-adv-x="375" 
d="M265 719h64l-219 -875h-64z" />
    <glyph glyph-name="zero" unicode="0" 
d="M36 344q0 79 18 144.5t50.5 112.5t77.5 73t100 26q54 0 99.5 -26t77.5 -73t50 -112.5t18 -144.5t-18 -144.5t-50 -112.5t-77.5 -73t-99.5 -26q-55 0 -100 26t-77.5 73t-50.5 112.5t-18 144.5zM102 344q0 -68 13 -123.5t37 -95t57 -61.5t73 -22t73 22t56.5 61.5t36.5 95
t13 123.5q0 67 -13 123t-36.5 95.5t-56.5 61.5t-73 22t-73 -22t-57 -61.5t-37 -95.5t-13 -123z" />
    <glyph glyph-name="one" unicode="1" 
d="M302 619l-181 -107v61l198 115h47v-688h-64v619z" />
    <glyph glyph-name="two" unicode="2" 
d="M64 46q94 87 158 155t103 122t56 96.5t17 78.5q0 33 -10.5 60t-29 46.5t-44.5 30t-56 10.5q-43 0 -88 -17t-90 -52v65q91 59 188 59q43 0 79 -14t62 -39.5t40.5 -61t14.5 -77.5q0 -41 -16 -86t-53 -99t-97.5 -120t-148.5 -149h326v-54h-411v46z" />
    <glyph glyph-name="three" unicode="3" 
d="M191 375h34q37 0 67.5 10.5t52.5 29t34 44t12 56.5q0 29 -10.5 53t-30 41.5t-46.5 27t-60 9.5q-39 0 -79 -13t-80 -38v62q84 43 165 43q46 0 84 -13t65.5 -37t42.5 -57t15 -73q0 -58 -33.5 -102.5t-91.5 -63.5q65 -20 102.5 -68t37.5 -112q0 -41 -16.5 -75t-47 -59
t-73 -38.5t-93.5 -13.5q-42 0 -85.5 11.5t-87.5 35.5v64q41 -29 83.5 -43t84.5 -14q37 0 68 10t53.5 28.5t35 43.5t12.5 55q0 32 -13 58.5t-36 46t-55.5 30t-71.5 10.5h-39v51z" />
    <glyph glyph-name="four" unicode="4" 
d="M352 198h-317v43l327 447h53v-440h112v-50h-112v-198h-63v198zM352 248v340l-247 -340h247z" />
    <glyph glyph-name="five" unicode="5" 
d="M448 634h-283v-227q24 4 46.5 6.5t45.5 2.5q50 0 91 -15.5t70.5 -43.5t45.5 -67t16 -85q0 -47 -17.5 -87t-49.5 -69t-76 -45t-96 -16q-79 0 -157 39v66q75 -51 153 -51q39 0 71.5 12t55.5 34t36 51.5t13 65.5q0 34 -12.5 63t-35 50.5t-54 33.5t-69.5 12q-33 0 -67 -5
t-69 -13v342h342v-54z" />
    <glyph glyph-name="six" unicode="6" 
d="M402 688q-96 -76 -158.5 -154.5t-92.5 -158.5q69 54 149 54q46 0 84.5 -15.5t66 -43.5t42.5 -67t15 -86q0 -50 -16.5 -92t-46.5 -72.5t-71.5 -47.5t-91.5 -17q-48 0 -88.5 18t-70 50.5t-45.5 78t-16 100.5q0 116 63.5 232.5t187.5 220.5h89zM133 302q-3 -17 -4.5 -35
t-1.5 -35q0 -42 11.5 -77t32 -60t49 -39t62.5 -14q36 0 65.5 12.5t50.5 35.5t33 54t12 69q0 36 -11 65.5t-31.5 51t-49 33.5t-62.5 12q-83 0 -156 -73z" />
    <glyph glyph-name="seven" unicode="7" 
d="M411 634h-344v54h417v-38l-277 -650h-67z" />
    <glyph glyph-name="eight" unicode="8" 
d="M74 516q0 40 15.5 74t43 58.5t65.5 38t84 13.5q45 0 83 -13.5t65.5 -38t43 -58.5t15.5 -74q0 -60 -33 -104t-89 -60q63 -16 100 -63t37 -112q0 -42 -16.5 -76.5t-46 -59.5t-70 -39t-89.5 -14t-90 14t-70.5 39t-46 59.5t-16.5 76.5q0 65 37 112t100 63q-56 16 -89 60
t-33 104zM124 183q0 -31 11.5 -57t32.5 -45t50 -29.5t64 -10.5q34 0 63 10.5t50 29.5t32.5 45t11.5 57t-11.5 56.5t-32.5 44t-50 29t-63 10.5q-35 0 -64 -10.5t-50 -29t-32.5 -44t-11.5 -56.5zM139 511q0 -29 10.5 -54t29.5 -43t45 -28t58 -10q31 0 57 10t45 28t29.5 43
t10.5 54q0 60 -39.5 98t-102.5 38q-32 0 -58 -10t-45 -28t-29.5 -43t-10.5 -55z" />
    <glyph glyph-name="nine" unicode="9" 
d="M161 0q191 153 251 314q-68 -55 -149 -55q-47 0 -85 15.5t-65.5 43.5t-42.5 67t-15 86q0 50 16.5 92t46.5 72.5t72 47.5t92 17q48 0 88 -18t69.5 -50.5t45.5 -78t16 -100.5q0 -116 -63.5 -232.5t-187.5 -220.5h-89zM430 386q3 17 4.5 35t1.5 35q0 42 -11.5 77t-32 60
t-49 39t-61.5 14q-36 0 -66 -12.5t-51 -35t-33 -54t-12 -69.5q0 -36 11 -65.5t31.5 -51t48.5 -33.5t63 -12q83 0 156 73z" />
    <glyph glyph-name="colon" unicode=":" horiz-adv-x="250" 
d="M80 467q0 20 12.5 32.5t32.5 12.5t32.5 -12.5t12.5 -32.5t-12.5 -33t-32.5 -13t-32.5 13t-12.5 33zM80 33q0 20 12.5 33t32.5 13t32.5 -13t12.5 -33t-12.5 -32.5t-32.5 -12.5t-32.5 12.5t-12.5 32.5z" />
    <glyph glyph-name="semicolon" unicode=";" horiz-adv-x="250" 
d="M100 72h62l-82 -197h-54zM80 467q0 20 12.5 32.5t32.5 12.5t32.5 -12.5t12.5 -32.5t-12.5 -33t-32.5 -13t-32.5 13t-12.5 33z" />
    <glyph glyph-name="less" unicode="&#x3c;" 
d="M31 259v45l501 216v-59l-417 -179l417 -180v-59z" />
    <glyph glyph-name="equal" unicode="=" 
d="M31 209h501v-54h-501v54zM31 408h501v-54h-501v54z" />
    <glyph glyph-name="greater" unicode="&#x3e;" 
d="M532 304v-45l-501 -216v59l417 180l-417 179v59z" />
    <glyph glyph-name="question" unicode="?" horiz-adv-x="441" 
d="M144 33q0 20 13 33t33 13t32.5 -13t12.5 -33t-12.5 -32.5t-32.5 -12.5t-33 12.5t-13 32.5zM160 213q0 36 11.5 65t28.5 53t37 46t37 44.5t28.5 48t11.5 57.5q0 53 -33.5 86.5t-87.5 33.5q-80 0 -155 -70v64q74 59 162 59q40 0 73.5 -12.5t56.5 -34.5t36 -52.5t13 -67.5
t-12 -66.5t-29.5 -55.5t-38.5 -49t-38.5 -46.5t-29.5 -50t-12 -57.5v-16h-59v21z" />
    <glyph glyph-name="at" unicode="@" horiz-adv-x="974" 
d="M665 155q0 -38 19 -59.5t49 -21.5q28 0 51 15.5t39.5 44.5t26 69t9.5 90q0 78 -26.5 143t-74 112.5t-113 74t-144.5 26.5q-85 0 -156 -29.5t-122 -83t-79.5 -126.5t-28.5 -160q0 -86 29 -159.5t81 -126.5t123.5 -83t156.5 -30q59 0 116 18.5t114 53.5v-58
q-57 -32 -114.5 -48.5t-115.5 -16.5q-98 0 -181 33.5t-143 93.5t-94 142.5t-34 180.5q0 99 33 181.5t92.5 142t141.5 93t181 33.5q91 0 167.5 -30.5t132.5 -84.5t87.5 -128t31.5 -160q0 -61 -14 -111.5t-39.5 -87t-61 -56.5t-78.5 -20q-36 0 -65.5 15.5t-45.5 44.5
q-27 -28 -60.5 -44t-77.5 -16q-43 0 -78.5 16.5t-61.5 46.5t-40.5 72t-14.5 93t14.5 93t40.5 72.5t61.5 47t78.5 16.5q35 0 67 -14t59 -38v42h61v-314zM346 250q0 -39 10 -71.5t29 -55.5t44.5 -36t57.5 -13q33 0 63 13.5t54 40.5v244q-49 55 -117 55q-32 0 -57.5 -13
t-44.5 -36t-29 -56t-10 -72z" />
    <glyph glyph-name="A" unicode="A" horiz-adv-x="635" 
d="M292 688h51l275 -688h-66l-82 208h-305l-83 -208h-65zM185 259h266l-133 337z" />
    <glyph glyph-name="B" unicode="B" horiz-adv-x="599" 
d="M166 51h163q69 0 108.5 38t39.5 99q0 60 -39.5 98t-108.5 38h-163v-273zM166 375h146q31 0 57.5 9.5t45 27t29 41.5t10.5 53t-10.5 53t-29 41.5t-45 27t-57.5 9.5h-146v-262zM103 688h220q43 0 79 -13t62 -36.5t40.5 -56t14.5 -71.5q0 -56 -30.5 -98.5t-83.5 -60.5
q64 -17 101 -62t37 -107q0 -40 -15 -73.5t-42 -58t-64 -38t-82 -13.5h-237v688z" />
    <glyph glyph-name="C" unicode="C" horiz-adv-x="613" 
d="M53 344q0 78 23.5 143.5t66.5 112.5t102.5 73.5t130.5 26.5q48 0 95 -13t92 -38v-64q-93 61 -182 61q-58 0 -106 -22.5t-82.5 -62.5t-53.5 -95.5t-19 -121.5t19 -121.5t53.5 -95.5t82.5 -62.5t106 -22.5q89 0 182 61v-64q-45 -25 -92 -38t-95 -13q-71 0 -130.5 26.5
t-102.5 73.5t-66.5 112.5t-23.5 143.5z" />
    <glyph glyph-name="D" unicode="D" horiz-adv-x="693" 
d="M103 688h204q73 0 134.5 -25.5t105.5 -71t68.5 -108.5t24.5 -139t-24.5 -139t-68.5 -108.5t-105.5 -71t-134.5 -25.5h-204v688zM167 52h136q60 0 110 21.5t85.5 60t55.5 92t20 118.5q0 64 -20 118t-55.5 92.5t-85.5 60t-110 21.5h-136v-584z" />
    <glyph glyph-name="E" unicode="E" horiz-adv-x="550" 
d="M103 688h386v-52h-322v-261h283v-51h-283v-272h330v-52h-394v688z" />
    <glyph glyph-name="F" unicode="F" horiz-adv-x="527" 
d="M103 688h386v-52h-322v-273h283v-52h-283v-311h-64v688z" />
    <glyph glyph-name="G" unicode="G" horiz-adv-x="670" 
d="M600 47q-54 -29 -109 -44t-110 -15q-72 0 -132.5 26.5t-104 73.5t-67.5 112.5t-24 143.5t24 143.5t67.5 112.5t104 73.5t132.5 26.5q51 0 99 -14t96 -41v-66q-49 33 -95.5 50t-94.5 17q-59 0 -108 -22t-84.5 -62t-55 -95.5t-19.5 -122.5t19.5 -122.5t54.5 -95.5t83.5 -62
t107.5 -22q38 0 77 9.5t77 26.5v220h-171v50h233v-301z" />
    <glyph glyph-name="H" unicode="H" horiz-adv-x="732" 
d="M103 688h64v-312h399v312h64v-688h-64v324h-399v-324h-64v688z" />
    <glyph glyph-name="I" unicode="I" horiz-adv-x="270" 
d="M103 688h64v-688h-64v688z" />
    <glyph glyph-name="J" unicode="J" horiz-adv-x="458" 
d="M358 174q0 -41 -14.5 -75t-40 -59t-60.5 -38.5t-77 -13.5q-62 0 -129 32v62q68 -40 122 -40q30 0 54.5 10t42.5 28t28 43t10 55v510h64v-514z" />
    <glyph glyph-name="K" unicode="K" horiz-adv-x="600" 
d="M103 688h63v-321l325 321h82l-339 -338l349 -350h-85l-332 333v-333h-63v688z" />
    <glyph glyph-name="L" unicode="L" horiz-adv-x="497" 
d="M103 688h64v-636h306v-52h-370v688z" />
    <glyph glyph-name="M" unicode="M" horiz-adv-x="825" 
d="M103 688h58l252 -360l252 360h58v-688h-63v581l-225 -323h-44l-225 323v-581h-63v688z" />
    <glyph glyph-name="N" unicode="N" horiz-adv-x="732" 
d="M103 688h58l406 -581v581h63v-688h-58l-406 581v-581h-63v688z" />
    <glyph glyph-name="O" unicode="O" horiz-adv-x="732" 
d="M53 344q0 78 23 143.5t64.5 113t99.5 73.5t127 26t126.5 -26t99 -73.5t64.5 -113t23 -143.5t-23 -143.5t-64.5 -113t-99 -73.5t-126.5 -26t-127 26t-99.5 73.5t-64.5 113t-23 143.5zM120 344q0 -66 18 -121.5t50.5 -95.5t78 -62.5t100.5 -22.5q54 0 99.5 22.5t78 62.5
t50.5 95.5t18 121.5t-18 121.5t-50.5 95.5t-78 62.5t-99.5 22.5q-55 0 -100.5 -22.5t-78 -62.5t-50.5 -95.5t-18 -121.5z" />
    <glyph glyph-name="P" unicode="P" horiz-adv-x="577" 
d="M103 688h203q50 0 92 -15t73 -43t48 -66.5t17 -84.5q0 -47 -17 -85t-48 -66t-73 -43t-92 -15h-140v-270h-63v688zM166 321h131q38 0 69.5 11.5t54.5 32.5t35.5 50t12.5 64t-12.5 64t-35.5 49.5t-54.5 32t-69.5 11.5h-131v-315z" />
    <glyph glyph-name="Q" unicode="Q" horiz-adv-x="732" 
d="M53 344q0 78 23 143.5t64.5 113t99.5 73.5t127 26t126.5 -26t99 -73.5t64.5 -113t23 -143.5q0 -102 -38 -180.5t-104 -124.5l136 -141h-81l-107 114q-27 -11 -57 -17.5t-62 -6.5q-69 0 -127 26t-99.5 73.5t-64.5 113t-23 143.5zM120 344q0 -66 18 -121.5t50.5 -95.5
t78 -62.5t100.5 -22.5q54 0 99.5 22.5t78 62.5t50.5 95.5t18 121.5t-18 121.5t-50.5 95.5t-78 62.5t-99.5 22.5q-55 0 -100.5 -22.5t-78 -62.5t-50.5 -95.5t-18 -121.5z" />
    <glyph glyph-name="R" unicode="R" horiz-adv-x="599" 
d="M166 329h127q37 0 68 11.5t53 32t34.5 48.5t12.5 62t-12.5 62t-34.5 48t-53 31.5t-68 11.5h-127v-307zM103 688h199q50 0 91.5 -15t71.5 -42t46.5 -65t16.5 -83q0 -76 -43.5 -128.5t-119.5 -69.5l180 -285h-73l-175 277h-131v-277h-63v688z" />
    <glyph glyph-name="S" unicode="S" horiz-adv-x="540" 
d="M69 106q46 -31 93 -48t92 -17q37 0 68 10t53 28t34.5 43t12.5 55q0 47 -27 74t-67.5 44.5t-88 32.5t-88 36.5t-67.5 56.5t-27 94q0 41 16.5 75t46 58.5t70.5 38t91 13.5q86 0 174 -41v-67q-87 55 -169 55q-37 0 -67.5 -9.5t-52 -26.5t-33.5 -41t-12 -53q0 -46 27 -72
t67.5 -44t88 -32.5t88 -37t67.5 -58t27 -94.5q0 -42 -16.5 -77.5t-46.5 -60.5t-72 -39t-92 -14q-48 0 -95.5 12t-94.5 37v69z" />
    <glyph glyph-name="T" unicode="T" horiz-adv-x="583" 
d="M259 636h-229v52h522v-52h-228v-636h-65v636z" />
    <glyph glyph-name="U" unicode="U" horiz-adv-x="732" 
d="M634 251q0 -58 -20 -106t-55 -83t-84.5 -54.5t-107.5 -19.5q-59 0 -108 19.5t-84.5 54.5t-55.5 83t-20 106v437h64v-432q0 -47 15 -86t42 -67.5t64.5 -44.5t82.5 -16q44 0 81.5 16t64.5 44.5t42 67.5t15 86v432h64v-437z" />
    <glyph glyph-name="V" unicode="V" horiz-adv-x="635" 
d="M343 0h-51l-275 688h66l235 -593l233 593h67z" />
    <glyph glyph-name="W" unicode="W" horiz-adv-x="1022" 
d="M765 0h-55l-199 602l-198 -602h-56l-235 688h65l199 -602l197 602h56l198 -602l198 602h64z" />
    <glyph glyph-name="X" unicode="X" horiz-adv-x="633" 
d="M278 350l-242 338h76l205 -292l204 292h76l-242 -338l249 -350h-77l-210 304l-211 -304h-78z" />
    <glyph glyph-name="Y" unicode="Y" horiz-adv-x="586" 
d="M261 302l-248 386h74l206 -328l206 328h74l-248 -386v-302h-64v302z" />
    <glyph glyph-name="Z" unicode="Z" horiz-adv-x="614" 
d="M44 42l430 594h-409v52h488v-42l-429 -594h435v-52h-515v42z" />
    <glyph glyph-name="bracketleft" unicode="[" horiz-adv-x="317" 
d="M112 719h174v-49h-111v-777h111v-49h-174v875z" />
    <glyph glyph-name="backslash" unicode="\" horiz-adv-x="375" 
d="M46 719h64l219 -875h-64z" />
    <glyph glyph-name="bracketright" unicode="]" horiz-adv-x="317" 
d="M205 -156h-175v49h112v777h-112v49h175v-875z" />
    <glyph glyph-name="asciicircum" unicode="^" 
d="M259 688h45l216 -500h-59l-179 416l-180 -416h-59z" />
    <glyph glyph-name="underscore" unicode="_" horiz-adv-x="500" 
d="M0 -101h500v-49h-500v49z" />
    <glyph glyph-name="grave" unicode="`" horiz-adv-x="250" 
d="M1 719h69l99 -144h-56z" />
    <glyph glyph-name="a" unicode="a" horiz-adv-x="505" 
d="M365 56q-38 -33 -79.5 -50.5t-85.5 -17.5q-34 0 -62.5 10.5t-49 29t-32 44.5t-11.5 57q0 37 17.5 68.5t48.5 54.5t74.5 35.5t95.5 12.5q22 0 43 -1t41 -3v50q0 25 -9 46t-25.5 36.5t-39 24t-49.5 8.5q-36 0 -75 -10.5t-79 -33.5v57q41 20 81.5 29t78.5 9q40 0 72.5 -12
t55.5 -34t36 -52t13 -66v-348h-60v56zM109 135q0 -43 29 -69.5t76 -26.5q38 0 77 19.5t74 55.5v137q-20 2 -39.5 2.5t-40.5 0.5q-79 0 -127.5 -33t-48.5 -86z" />
    <glyph glyph-name="b" unicode="b" horiz-adv-x="560" 
d="M451 250q0 46 -12.5 84.5t-34.5 66t-52.5 43t-66.5 15.5q-37 0 -72.5 -16t-66.5 -48v-289q63 -66 139 -66q36 0 66.5 15.5t52.5 43.5t34.5 66.5t12.5 84.5zM83 719h63v-266q32 29 69.5 44t76.5 15q49 0 90 -19.5t70.5 -54t46 -82.5t16.5 -106t-16.5 -106t-46 -82.5
t-70.5 -54t-90 -19.5q-39 0 -76.5 15.5t-69.5 44.5v-48h-63v719z" />
    <glyph glyph-name="c" unicode="c" horiz-adv-x="472" 
d="M45 250q0 58 18 106t50 82.5t76 54t97 19.5q73 0 140 -35v-60q-33 22 -67 32.5t-66 10.5q-40 0 -73.5 -15.5t-58 -43t-38 -66.5t-13.5 -85t13.5 -84.5t38 -66.5t58 -43.5t73.5 -15.5q32 0 66 10.5t67 32.5v-60q-67 -35 -140 -35q-53 0 -97 19.5t-76 54t-50 83t-18 105.5z
" />
    <glyph glyph-name="d" unicode="d" horiz-adv-x="560" 
d="M110 250q0 -46 12 -84.5t34 -66.5t53 -43.5t68 -15.5q74 0 138 66v289q-64 64 -138 64q-37 0 -68 -15.5t-53 -43t-34 -66t-12 -84.5zM477 0h-62v48q-66 -60 -146 -60q-50 0 -91 19.5t-70.5 54t-46 82.5t-16.5 106t16.5 106t46 82.5t70.5 54t91 19.5q40 0 77 -15t69 -44
v266h62v-719z" />
    <glyph glyph-name="e" unicode="e" horiz-adv-x="512" 
d="M45 254q0 57 17 104t47 81.5t71.5 53.5t91.5 19q45 0 82 -18t63 -50.5t40 -77t14 -97.5v-15.5t-1 -15.5h-361q1 -44 15.5 -81t38.5 -63t57.5 -40.5t72.5 -14.5q35 0 72 12.5t74 35.5v-60q-75 -39 -153 -39q-53 0 -97 19.5t-76 55t-50 84t-18 107.5zM408 285q0 39 -10 71
t-28 55.5t-43.5 36.5t-56.5 13q-34 0 -62.5 -13t-49.5 -36t-34 -55.5t-15 -71.5h299z" />
    <glyph glyph-name="f" unicode="f" horiz-adv-x="363" 
d="M121 450h-99v50h99v90q0 63 40.5 102t105.5 39q23 0 46.5 -6t49.5 -17v-56q-47 27 -87 27q-42 0 -67 -25.5t-25 -67.5v-86h156v-50h-156v-450h-63v450z" />
    <glyph glyph-name="g" unicode="g" horiz-adv-x="560" 
d="M477 -12q0 -48 -16.5 -88t-46 -69.5t-70 -45.5t-89.5 -16q-80 0 -163 37v60q41 -23 80 -34.5t78 -11.5q36 0 66.5 12.5t52.5 35t34 54t12 68.5v58q-66 -60 -146 -60q-50 0 -91 19.5t-70.5 54t-46 82.5t-16.5 106t16.5 106t46 82.5t70.5 54t91 19.5q40 0 77 -15t69 -44v47
h62v-512zM110 250q0 -46 12 -84.5t34 -66.5t53 -43.5t68 -15.5q74 0 138 66v289q-64 64 -138 64q-37 0 -68 -15.5t-53 -43t-34 -66t-12 -84.5z" />
    <glyph glyph-name="h" unicode="h" horiz-adv-x="560" 
d="M83 719h63v-278q37 35 78 53t84 18q38 0 70 -13t55 -36t35.5 -54.5t12.5 -69.5v-339h-62v332q0 56 -34.5 91.5t-89.5 35.5q-38 0 -76.5 -19.5t-72.5 -57.5v-382h-63v719z" />
    <glyph glyph-name="i" unicode="i" horiz-adv-x="229" 
d="M83 500h63v-500h-63v500zM73 647q0 19 11.5 30t29.5 11q19 0 30.5 -11t11.5 -30q0 -18 -11.5 -29.5t-30.5 -11.5q-18 0 -29.5 11.5t-11.5 29.5z" />
    <glyph glyph-name="j" unicode="j" horiz-adv-x="229" 
d="M73 647q0 19 11.5 30t29.5 11q19 0 30.5 -11t11.5 -30q0 -18 -11.5 -29.5t-30.5 -11.5q-18 0 -29.5 11.5t-11.5 29.5zM146 -90q0 -31 -10.5 -57t-30 -44.5t-46.5 -29t-59 -10.5q-44 0 -96 24v56q48 -28 87 -28q42 0 67 26t25 68v585h63v-590z" />
    <glyph glyph-name="k" unicode="k" horiz-adv-x="470" 
d="M83 719h62v-444l219 225h78l-239 -246l247 -254h-81l-224 233v-233h-62v719z" />
    <glyph glyph-name="l" unicode="l" horiz-adv-x="229" 
d="M83 719h63v-719h-63v719z" />
    <glyph glyph-name="m" unicode="m" horiz-adv-x="857" 
d="M83 500h63v-57q74 69 156 69q49 0 86 -20.5t57 -58.5q81 79 174 79q35 0 64 -12t50 -33.5t32.5 -51.5t11.5 -66v-349h-62v341q0 52 -30.5 85t-79.5 33q-74 0 -143 -75v-384h-62v341q0 52 -31.5 85t-79.5 33q-35 0 -72 -19t-71 -56v-384h-63v500z" />
    <glyph glyph-name="n" unicode="n" horiz-adv-x="560" 
d="M83 500h63v-59q37 35 78 53t84 18q38 0 70 -13t55 -36t35.5 -54.5t12.5 -69.5v-339h-62v332q0 56 -34.5 91.5t-89.5 35.5q-38 0 -76.5 -19.5t-72.5 -57.5v-382h-63v500z" />
    <glyph glyph-name="o" unicode="o" horiz-adv-x="560" 
d="M45 250q0 58 17.5 106t48.5 82.5t74.5 54t95.5 19.5q51 0 94 -19.5t74 -54t48.5 -82.5t17.5 -106t-17.5 -106t-48.5 -82.5t-74 -54t-94 -19.5q-52 0 -95.5 19.5t-74.5 54t-48.5 82.5t-17.5 106zM110 250q0 -47 12.5 -85.5t35 -66t54 -43t69.5 -15.5q37 0 68.5 15.5t54 43
t35 66t12.5 85.5q0 46 -12.5 85t-35 66.5t-54 43t-68.5 15.5q-38 0 -69.5 -15.5t-54 -43t-35 -66.5t-12.5 -85z" />
    <glyph glyph-name="p" unicode="p" horiz-adv-x="560" 
d="M451 250q0 46 -12.5 84.5t-34.5 66t-52.5 43t-66.5 15.5q-37 0 -72.5 -16t-66.5 -48v-289q63 -66 139 -66q36 0 66.5 15.5t52.5 43.5t34.5 66.5t12.5 84.5zM83 500h63v-47q32 29 69.5 44t76.5 15q49 0 90 -19.5t70.5 -54t46 -82.5t16.5 -106t-16.5 -106t-46 -82.5
t-70.5 -54t-90 -19.5q-39 0 -76.5 15.5t-69.5 44.5v-267h-63v719z" />
    <glyph glyph-name="q" unicode="q" horiz-adv-x="560" 
d="M110 250q0 -46 12 -84.5t34 -66.5t53 -43.5t68 -15.5q74 0 138 66v289q-64 64 -138 64q-37 0 -68 -15.5t-53 -43t-34 -66t-12 -84.5zM477 -219h-62v267q-66 -60 -146 -60q-50 0 -91 19.5t-70.5 54t-46 82.5t-16.5 106t16.5 106t46 82.5t70.5 54t91 19.5q40 0 77 -15
t69 -44v47h62v-719z" />
    <glyph glyph-name="r" unicode="r" horiz-adv-x="372" 
d="M83 500h63v-63q30 36 67 55.5t76 19.5q12 0 24.5 -1.5t26.5 -6.5v-58q-26 10 -55 10q-38 0 -73.5 -21t-65.5 -62v-373h-63v500z" />
    <glyph glyph-name="s" unicode="s" horiz-adv-x="418" 
d="M58 86q68 -47 138 -47q50 0 82.5 25t32.5 66q0 32 -19.5 50.5t-48.5 31t-63 23t-63 26.5t-48.5 42t-19.5 69q0 31 12.5 57t35 44.5t53.5 28.5t68 10q65 0 131 -29v-61q-63 39 -126 39q-49 0 -80.5 -24t-31.5 -63q0 -31 19.5 -49t48.5 -30t63 -22.5t63 -27t48.5 -43
t19.5 -70.5q0 -32 -12.5 -58.5t-35.5 -45.5t-55 -29.5t-70 -10.5q-70 0 -142 35v63z" />
    <glyph glyph-name="t" unicode="t" horiz-adv-x="402" 
d="M184 500h179v-50h-179v-316q0 -42 25 -68t67 -26q37 0 87 28v-56q-53 -24 -96 -24q-32 0 -59 10.5t-46.5 29t-30 44.5t-10.5 57v321h-99v50h99v141h63v-141z" />
    <glyph glyph-name="u" unicode="u" horiz-adv-x="560" 
d="M477 0h-62v60q-75 -72 -163 -72q-38 0 -69.5 13t-54.5 36t-36 54.5t-13 69.5v339h63v-332q0 -28 9 -51t25.5 -40t39 -26.5t49.5 -9.5q39 0 77 19.5t73 57.5v382h62v-500z" />
    <glyph glyph-name="v" unicode="v" horiz-adv-x="490" 
d="M271 0h-51l-200 500h65l160 -413l161 413h63z" />
    <glyph glyph-name="w" unicode="w" horiz-adv-x="771" 
d="M577 0h-55l-136 418l-136 -418h-55l-171 500h63l136 -418l136 418h55l135 -418l136 418h62z" />
    <glyph glyph-name="x" unicode="x" horiz-adv-x="492" 
d="M208 254l-174 246h72l140 -202l141 202h71l-174 -246l180 -254h-73l-145 210l-144 -210h-74z" />
    <glyph glyph-name="y" unicode="y" horiz-adv-x="490" 
d="M184 -219h-61l92 230l-195 489h65l160 -413l161 413h63z" />
    <glyph glyph-name="z" unicode="z" horiz-adv-x="473" 
d="M42 38l299 412h-283v50h360v-38l-298 -412h302v-50h-380v38z" />
    <glyph glyph-name="braceleft" unicode="{" horiz-adv-x="317" 
d="M286 670h-10q-42 0 -69 -28t-27 -73v-165q0 -45 -22.5 -77.5t-62.5 -44.5q40 -13 62.5 -45.5t22.5 -77.5v-165q0 -45 27 -73t69 -28h10v-49h-17q-33 0 -61 10.5t-48.5 30t-31.5 46t-11 58.5v165q0 45 -23 74t-60 29h-12v49h12q37 0 60 29t23 74v165q0 32 11 58.5t31.5 46
t48.5 30t61 10.5h17v-49z" />
    <glyph glyph-name="bar" unicode="|" horiz-adv-x="250" 
d="M98 751h55v-1001h-55v1001z" />
    <glyph glyph-name="braceright" unicode="}" horiz-adv-x="317" 
d="M30 -107h10q43 0 70 28t27 73v165q0 45 22.5 77.5t61.5 45.5q-39 12 -61.5 44.5t-22.5 77.5v165q0 45 -27 73t-70 28h-10v49h17q34 0 62 -10.5t48 -30t31.5 -46t11.5 -58.5v-165q0 -45 23 -74t60 -29h10v-49h-10q-37 0 -60 -29t-23 -74v-165q0 -32 -11.5 -58.5t-31.5 -46
t-48 -30t-62 -10.5h-17v49z" />
    <glyph glyph-name="asciitilde" unicode="~" 
d="M42 212q0 34 9.5 62t26.5 48t41 31.5t53 11.5q37 0 65 -17.5t53 -39t48 -39t49 -17.5q35 0 57.5 27.5t22.5 71.5h54q0 -34 -9.5 -62t-26.5 -48.5t-41 -31.5t-53 -11q-37 0 -65 17.5t-53 39t-48 39t-49 17.5q-35 0 -57.5 -27.5t-22.5 -71.5h-54z" />
    <glyph glyph-name="uni00A0" unicode="&#xa0;" horiz-adv-x="250" 
 />
    <glyph glyph-name="exclamdown" unicode="&#xa1;" horiz-adv-x="257" 
d="M161 -188h-64v497h64v-497zM174 467q0 -20 -12.5 -33t-32.5 -13t-33 13t-13 33t13 32.5t33 12.5t32.5 -12.5t12.5 -32.5z" />
    <glyph glyph-name="cent" unicode="&#xa2;" 
d="M293 85q-45 7 -82.5 28.5t-64 55.5t-41 78.5t-14.5 96.5t14.5 96.5t41 78.5t64 55.5t82.5 28.5v148h54v-145q32 -2 63.5 -11t60.5 -24v-60q-65 43 -132 43q-41 0 -74.5 -15.5t-58 -43.5t-38 -66.5t-13.5 -84.5t13.5 -84.5t38 -66.5t58 -43.5t74.5 -15.5q67 0 132 43v-60
q-61 -31 -124 -34v-146h-54v148z" />
    <glyph glyph-name="sterling" unicode="&#xa3;" 
d="M61 34l85 291h-78v50h92l57 192q18 61 62 97t104 36q53 0 104 -24v-60q-24 14 -48.5 22t-47.5 8q-42 0 -71 -25.5t-43 -70.5l-52 -175h163v-50h-178l-80 -273h380v-52h-449v34z" />
    <glyph glyph-name="currency" unicode="&#xa4;" 
d="M83 344q0 71 39 122l-92 91l39 38l91 -91q51 39 122 39q70 0 121 -39l92 91l38 -38l-92 -91q19 -26 29 -56t10 -66q0 -71 -39 -122l92 -91l-38 -38l-92 91q-50 -38 -121 -38q-73 0 -123 38l-91 -91l-38 38l92 91q-39 51 -39 122zM136 344q0 -32 10.5 -58.5t30 -46
t46.5 -30t59 -10.5t58.5 10.5t46 30t30 46t10.5 58.5t-10.5 59t-30 46.5t-46 30t-58.5 10.5q-65 0 -105.5 -40.5t-40.5 -105.5z" />
    <glyph glyph-name="yen" unicode="&#xa5;" 
d="M249 158h-159v47h159v104h-159v47h145l-214 332h74l187 -297l186 297h74l-214 -332h145v-47h-159v-104h159v-47h-159v-158h-65v158z" />
    <glyph glyph-name="brokenbar" unicode="&#xa6;" horiz-adv-x="250" 
d="M98 688h55v-375h-55v375zM98 188h55v-376h-55v376z" />
    <glyph glyph-name="section" unicode="&#xa7;" horiz-adv-x="489" 
d="M70 -33q76 -51 156 -51q28 0 52.5 8t41.5 22t27 33t10 42q0 36 -22 57.5t-54.5 36.5t-71 28t-71 32.5t-54.5 50t-22 80.5q0 34 16 67.5t46 63.5q-51 40 -51 107q0 34 13.5 62.5t38.5 49.5t59 32.5t75 11.5q74 0 146 -33v-64q-70 44 -141 44q-57 0 -92 -28.5t-35 -72.5
q0 -35 22 -56t54.5 -35.5t71 -27.5t71 -33t54.5 -51t22 -82q0 -72 -60 -129q48 -42 48 -109q0 -35 -14 -64.5t-39 -50.5t-60 -33t-77 -12q-82 0 -160 39v65zM176 407q-25 -21 -38.5 -47t-13.5 -54q0 -33 18.5 -54t47 -36t63 -27t66.5 -27q50 41 50 99q0 34 -17.5 55.5
t-45 36.5t-62 27t-68.5 27z" />
    <glyph glyph-name="dieresis" unicode="&#xa8;" horiz-adv-x="250" 
d="M184 647q0 19 11 30t29 11t29.5 -11t11.5 -30q0 -17 -11.5 -29t-29.5 -12t-29 12t-11 29zM-15 647q0 19 11.5 30t29.5 11t29.5 -11t11.5 -30q0 -17 -11.5 -29t-29.5 -12t-29.5 12t-11.5 29z" />
    <glyph glyph-name="copyright" unicode="&#xa9;" horiz-adv-x="845" 
d="M63 344q0 79 26.5 145t74 114t113.5 74.5t145 26.5t145 -26.5t114 -74.5t74.5 -114t26.5 -145t-26.5 -145t-74.5 -114t-114 -74.5t-145 -26.5t-145 26.5t-113.5 74.5t-74 114t-26.5 145zM109 344q0 -69 23 -126.5t64.5 -99.5t99 -65t126.5 -23t126.5 23t99.5 65t65 99.5
t23 126.5t-23 126.5t-65 99.5t-99.5 65t-126.5 23t-126.5 -23t-99 -65t-64.5 -99.5t-23 -126.5zM240 344q0 46 14.5 84.5t40.5 66.5t62 43.5t79 15.5q29 0 57.5 -7.5t54.5 -22.5v-51q-26 17 -52.5 26t-52.5 9q-32 0 -59 -12t-46.5 -34t-30 -52t-10.5 -66t10.5 -66t30 -51.5
t46.5 -33.5t59 -12q51 0 105 34v-51q-26 -14 -54.5 -22t-57.5 -8q-43 0 -79 15.5t-62 43.5t-40.5 66.5t-14.5 84.5z" />
    <glyph glyph-name="ordfeminine" unicode="&#xaa;" horiz-adv-x="332" 
d="M45 302h242v-41h-242v41zM228 407q-44 -39 -98 -39q-44 0 -71 25t-27 65q0 48 41 78t108 30h24t23 -2v23q0 29 -19.5 47.5t-51.5 18.5q-48 0 -98 -28v47q27 11 53 17.5t51 6.5q52 0 84 -29.5t32 -77.5v-214h-51v32zM85 463q0 -23 17 -38t43 -15q44 0 83 42v76
q-21 3 -44 3q-45 0 -72 -18.5t-27 -49.5z" />
    <glyph glyph-name="guillemotleft" unicode="&#xab;" horiz-adv-x="577" 
d="M344 250l181 -205h-67l-197 205l197 206h67zM136 250l181 -205h-69l-196 205l196 206h69z" />
    <glyph glyph-name="logicalnot" unicode="&#xac;" 
d="M31 309h501v-278h-54v223h-447v55z" />
    <glyph glyph-name="uni00AD" unicode="&#xad;" horiz-adv-x="313" 
d="M37 279h239v-49h-239v49z" />
    <glyph glyph-name="registered" unicode="&#xae;" horiz-adv-x="500" 
d="M35 485q0 47 16 86.5t44.5 68t68 44.5t86.5 16t86.5 -16t68 -44.5t44.5 -68t16 -86.5t-16 -86.5t-44.5 -68t-68 -44.5t-86.5 -16t-86.5 16t-68 44.5t-44.5 68t-16 86.5zM69 485q0 -40 13.5 -73t37.5 -57t57 -37.5t73 -13.5t73 13.5t57 37.5t37.5 57t13.5 73t-13.5 73
t-37.5 57t-57 37.5t-73 13.5t-73 -13.5t-57 -37.5t-37.5 -57t-13.5 -73zM217 486h34q21 0 33.5 12.5t12.5 30.5q0 19 -12.5 31t-33.5 12h-34v-86zM179 602h78q35 0 57 -20.5t22 -52.5q0 -24 -13.5 -42t-36.5 -26l57 -93h-41l-53 88h-32v-88h-38v234z" />
    <glyph glyph-name="macron" unicode="&#xaf;" horiz-adv-x="250" 
d="M-20 671h290v-47h-290v47z" />
    <glyph glyph-name="degree" unicode="&#xb0;" horiz-adv-x="348" 
d="M56 582q0 52 33 85t85 33t84.5 -33t32.5 -85t-32.5 -85t-84.5 -33t-85 33t-33 85zM102 582q0 -32 20 -52.5t52 -20.5t52 20.5t20 52.5t-20 52.5t-52 20.5t-52 -20.5t-20 -52.5z" />
    <glyph glyph-name="plusminus" unicode="&#xb1;" 
d="M31 394h223v223h55v-223h223v-54h-223v-224h-55v224h-223v54zM31 54h501v-54h-501v54z" />
    <glyph glyph-name="uni00B2" unicode="&#xb2;" horiz-adv-x="307" 
d="M22 443q52 46 87.5 83.5t57.5 67.5t31.5 54.5t9.5 45.5q0 35 -21 57t-55 22q-24 0 -50 -10t-51 -30v53q57 34 114 34q53 0 86.5 -32.5t33.5 -84.5q0 -24 -9 -50t-29.5 -56t-53 -65.5t-78.5 -78.5h175v-46h-248v36z" />
    <glyph glyph-name="uni00B3" unicode="&#xb3;" horiz-adv-x="303" 
d="M95 635h21q38 0 63 20t25 52q0 30 -21.5 49t-55.5 19q-45 0 -94 -29v49q50 25 100 25q56 0 91 -30t35 -78q0 -33 -19 -59t-51 -37q36 -11 57.5 -39t21.5 -65q0 -51 -38.5 -81.5t-100.5 -30.5q-54 0 -105 25v52q49 -32 99 -32q39 0 64.5 20t25.5 52q0 33 -26 54t-68 21
h-24v43z" />
    <glyph glyph-name="acute" unicode="&#xb4;" horiz-adv-x="250" 
d="M180 719h69l-112 -144h-56z" />
    <glyph glyph-name="uni00B5" unicode="&#xb5;" horiz-adv-x="564" 
d="M83 500h63v-332q0 -28 9 -51t25.5 -40t39 -26.5t49.5 -9.5q39 0 77 19.5t73 57.5v382h62v-500h-62v60q-73 -71 -158 -71q-67 0 -115 46v-254h-63v719z" />
    <glyph glyph-name="paragraph" unicode="&#xb6;" horiz-adv-x="567" 
d="M249 306q-46 0 -84 14t-65.5 39.5t-42.5 60t-15 76.5t15 77.5t42.5 61t65.5 39.5t84 14h215v-813h-54v759h-105v-328h-56z" />
    <glyph glyph-name="periodcentered" unicode="&#xb7;" horiz-adv-x="250" 
d="M80 250q0 20 12.5 33t32.5 13t32.5 -13t12.5 -33t-12.5 -32.5t-32.5 -12.5t-32.5 12.5t-12.5 32.5z" />
    <glyph glyph-name="cedilla" unicode="&#xb8;" horiz-adv-x="250" 
d="M143 -61q35 -6 54.5 -29t19.5 -52q0 -39 -31 -64t-80 -25q-40 0 -73 20v48q35 -23 68 -23q29 0 45 12.5t16 32.5q0 23 -17.5 36t-51.5 13h-8l23 92h49z" />
    <glyph glyph-name="uni00B9" unicode="&#xb9;" horiz-adv-x="246" 
d="M126 754l-104 -60v51l121 68h38v-406h-55v347z" />
    <glyph glyph-name="ordmasculine" unicode="&#xba;" horiz-adv-x="368" 
d="M45 302h278v-41h-278v41zM32 532q0 36 11 66t31.5 52t48.5 34t61 12t61 -12t48 -34t31 -52t11 -66t-11 -66.5t-31 -52t-48 -33.5t-61 -12t-61 12t-48.5 33.5t-31.5 52t-11 66.5zM87 532q0 -54 27 -87t70 -33q44 0 70.5 33t26.5 87q0 53 -26.5 86t-70.5 33q-43 0 -70 -33
t-27 -86z" />
    <glyph glyph-name="guillemotright" unicode="&#xbb;" horiz-adv-x="577" 
d="M233 250l-181 206h68l197 -206l-197 -205h-68zM442 250l-181 206h68l196 -206l-196 -205h-68z" />
    <glyph glyph-name="onequarter" unicode="&#xbc;" horiz-adv-x="845" 
d="M175 629l-104 -60v51l121 68h38v-406h-55v347zM652 688h57l-534 -688h-39zM705 110h-182v34l190 262h45v-253h63v-43h-63v-110h-53v110zM705 153v173l-127 -173h127z" />
    <glyph glyph-name="onehalf" unicode="&#xbd;" horiz-adv-x="845" 
d="M175 629l-104 -60v51l121 68h38v-406h-55v347zM652 688h57l-534 -688h-39zM541 36q52 46 87.5 83.5t57.5 67.5t31.5 54.5t9.5 45.5q0 35 -21 57t-55 22q-24 0 -50 -10t-51 -30v53q57 34 114 34q53 0 86.5 -32.5t33.5 -84.5q0 -24 -9 -50t-29.5 -56t-53 -65.5t-78.5 -78.5
h175v-46h-248v36z" />
    <glyph glyph-name="threequarters" unicode="&#xbe;" horiz-adv-x="845" 
d="M116 510h21q38 0 63 20t25 52q0 30 -21.5 49t-55.5 19q-45 0 -94 -29v49q50 25 100 25q56 0 91 -30t35 -78q0 -33 -19 -59t-51 -37q36 -11 57.5 -39t21.5 -65q0 -51 -38.5 -81.5t-100.5 -30.5q-54 0 -105 25v52q49 -32 99 -32q39 0 64.5 20t25.5 52q0 33 -26 54t-68 21
h-24v43zM652 688h57l-516 -688h-57zM705 110h-182v34l190 262h45v-253h63v-43h-63v-110h-53v110zM705 153v173l-127 -173h127z" />
    <glyph glyph-name="questiondown" unicode="&#xbf;" horiz-adv-x="441" 
d="M296 467q0 -20 -12.5 -33t-32.5 -13t-32.5 13t-12.5 33t12.5 32.5t32.5 12.5t32.5 -12.5t12.5 -32.5zM281 287q0 -36 -11.5 -64.5t-28.5 -53t-37 -46t-37 -44t-28.5 -48t-11.5 -57.5q0 -54 33.5 -87t87.5 -33q79 0 155 70v-65q-75 -58 -162 -58q-41 0 -74 12.5
t-56.5 34.5t-36.5 52.5t-13 67.5t12 66.5t30 55t38.5 48.5t38.5 46.5t30 49.5t12 58v17h59v-22z" />
    <glyph glyph-name="Agrave" unicode="&#xc0;" horiz-adv-x="635" 
d="M292 688h51l275 -688h-66l-82 208h-305l-83 -208h-65zM185 259h266l-133 337zM194 907h69l99 -144h-56z" />
    <glyph glyph-name="Aacute" unicode="&#xc1;" horiz-adv-x="635" 
d="M292 688h51l275 -688h-66l-82 208h-305l-83 -208h-65zM185 259h266l-133 337zM373 907h69l-112 -144h-56z" />
    <glyph glyph-name="Acircumflex" unicode="&#xc2;" horiz-adv-x="635" 
d="M292 688h51l275 -688h-66l-82 208h-305l-83 -208h-65zM185 259h266l-133 337zM293 907h51l99 -144h-54l-71 93l-71 -93h-54z" />
    <glyph glyph-name="Atilde" unicode="&#xc3;" horiz-adv-x="635" 
d="M292 688h51l275 -688h-66l-82 208h-305l-83 -208h-65zM185 259h266l-133 337zM175 793q0 42 23 68.5t59 26.5q19 0 35.5 -9t30.5 -19.5t27.5 -19.5t26.5 -9q17 0 28 12.5t11 33.5h45q0 -42 -22.5 -68t-58.5 -26q-20 0 -36 9t-30.5 19.5t-28 19.5t-26.5 9q-17 0 -28 -12.5
t-11 -34.5h-45z" />
    <glyph glyph-name="Adieresis" unicode="&#xc4;" horiz-adv-x="635" 
d="M292 688h51l275 -688h-66l-82 208h-305l-83 -208h-65zM185 259h266l-133 337zM377 835q0 19 11 30t29 11t29.5 -11t11.5 -30q0 -17 -11.5 -29t-29.5 -12t-29 12t-11 29zM178 835q0 19 11.5 30t29.5 11t29.5 -11t11.5 -30q0 -17 -11.5 -29t-29.5 -12t-29.5 12t-11.5 29z
" />
    <glyph glyph-name="Aring" unicode="&#xc5;" horiz-adv-x="635" 
d="M292 688h51l275 -688h-66l-82 208h-305l-83 -208h-65zM185 259h266l-133 337zM225 835q0 42 26 67.5t67 25.5q42 0 67.5 -25.5t25.5 -67.5q0 -41 -25.5 -66.5t-67.5 -25.5q-41 0 -67 25.5t-26 66.5zM264 835q0 -23 15.5 -38.5t38.5 -15.5t38.5 15.5t15.5 38.5
q0 24 -15.5 39t-38.5 15t-38.5 -15t-15.5 -39z" />
    <glyph glyph-name="AE" unicode="&#xc6;" horiz-adv-x="896" 
d="M228 257h221v351zM434 688h400v-52h-321v-261h282v-51h-282v-272h329v-52h-393v206h-253l-130 -206h-71z" />
    <glyph glyph-name="Ccedilla" unicode="&#xc7;" horiz-adv-x="613" 
d="M53 344q0 78 23.5 143.5t66.5 112.5t102.5 73.5t130.5 26.5q48 0 95 -13t92 -38v-64q-93 61 -182 61q-58 0 -106 -22.5t-82.5 -62.5t-53.5 -95.5t-19 -121.5t19 -121.5t53.5 -95.5t82.5 -62.5t106 -22.5q89 0 182 61v-64q-85 -48 -177 -51l-11 -49q34 -6 54 -29t20 -52
q0 -39 -31.5 -64t-80.5 -25q-19 0 -37 4.5t-35 15.5v48q34 -23 67 -23q29 0 45.5 12.5t16.5 32.5q0 23 -18 36t-52 13h-7l21 82q-64 7 -116.5 35.5t-90 75t-58 108.5t-20.5 135z" />
    <glyph glyph-name="Egrave" unicode="&#xc8;" horiz-adv-x="550" 
d="M103 688h386v-52h-322v-261h283v-51h-283v-272h330v-52h-394v688zM166 907h69l99 -144h-56z" />
    <glyph glyph-name="Eacute" unicode="&#xc9;" horiz-adv-x="550" 
d="M103 688h386v-52h-322v-261h283v-51h-283v-272h330v-52h-394v688zM345 907h69l-112 -144h-56z" />
    <glyph glyph-name="Ecircumflex" unicode="&#xca;" horiz-adv-x="550" 
d="M103 688h386v-52h-322v-261h283v-51h-283v-272h330v-52h-394v688zM265 907h51l99 -144h-54l-71 93l-71 -93h-54z" />
    <glyph glyph-name="Edieresis" unicode="&#xcb;" horiz-adv-x="550" 
d="M103 688h386v-52h-322v-261h283v-51h-283v-272h330v-52h-394v688zM349 835q0 19 11 30t29 11t29.5 -11t11.5 -30q0 -17 -11.5 -29t-29.5 -12t-29 12t-11 29zM150 835q0 19 11.5 30t29.5 11t29.5 -11t11.5 -30q0 -17 -11.5 -29t-29.5 -12t-29.5 12t-11.5 29z" />
    <glyph glyph-name="Igrave" unicode="&#xcc;" horiz-adv-x="270" 
d="M103 688h64v-688h-64v688zM11 907h69l99 -144h-56z" />
    <glyph glyph-name="Iacute" unicode="&#xcd;" horiz-adv-x="270" 
d="M103 688h64v-688h-64v688zM190 907h69l-112 -144h-56z" />
    <glyph glyph-name="Icircumflex" unicode="&#xce;" horiz-adv-x="270" 
d="M103 688h64v-688h-64v688zM110 907h51l99 -144h-54l-71 93l-71 -93h-54z" />
    <glyph glyph-name="Idieresis" unicode="&#xcf;" horiz-adv-x="270" 
d="M103 688h64v-688h-64v688zM194 835q0 19 11 30t29 11t29.5 -11t11.5 -30q0 -17 -11.5 -29t-29.5 -12t-29 12t-11 29zM-5 835q0 19 11.5 30t29.5 11t29.5 -11t11.5 -30q0 -17 -11.5 -29t-29.5 -12t-29.5 12t-11.5 29z" />
    <glyph glyph-name="Eth" unicode="&#xd0;" horiz-adv-x="709" 
d="M118 326h-89v48h89v314h205q73 0 134.5 -25.5t105.5 -71t68.5 -108.5t24.5 -139t-24.5 -139t-68.5 -108.5t-105.5 -71t-134.5 -25.5h-205v326zM183 374h166v-48h-166v-274h136q60 0 109.5 21.5t85.5 60t56 92t20 118.5q0 64 -20 118t-56 92.5t-85.5 60t-109.5 21.5h-136
v-262z" />
    <glyph glyph-name="Ntilde" unicode="&#xd1;" horiz-adv-x="732" 
d="M103 688h58l406 -581v581h63v-688h-58l-406 581v-581h-63v688zM223 793q0 42 23 68.5t59 26.5q19 0 35.5 -9t30.5 -19.5t27.5 -19.5t26.5 -9q17 0 28 12.5t11 33.5h45q0 -42 -22.5 -68t-58.5 -26q-20 0 -36 9t-30.5 19.5t-28 19.5t-26.5 9q-17 0 -28 -12.5t-11 -34.5h-45
z" />
    <glyph glyph-name="Ograve" unicode="&#xd2;" horiz-adv-x="732" 
d="M53 344q0 78 23 143.5t64.5 113t99.5 73.5t127 26t126.5 -26t99 -73.5t64.5 -113t23 -143.5t-23 -143.5t-64.5 -113t-99 -73.5t-126.5 -26t-127 26t-99.5 73.5t-64.5 113t-23 143.5zM120 344q0 -66 18 -121.5t50.5 -95.5t78 -62.5t100.5 -22.5q54 0 99.5 22.5t78 62.5
t50.5 95.5t18 121.5t-18 121.5t-50.5 95.5t-78 62.5t-99.5 22.5q-55 0 -100.5 -22.5t-78 -62.5t-50.5 -95.5t-18 -121.5zM243 907h69l99 -144h-56z" />
    <glyph glyph-name="Oacute" unicode="&#xd3;" horiz-adv-x="732" 
d="M53 344q0 78 23 143.5t64.5 113t99.5 73.5t127 26t126.5 -26t99 -73.5t64.5 -113t23 -143.5t-23 -143.5t-64.5 -113t-99 -73.5t-126.5 -26t-127 26t-99.5 73.5t-64.5 113t-23 143.5zM120 344q0 -66 18 -121.5t50.5 -95.5t78 -62.5t100.5 -22.5q54 0 99.5 22.5t78 62.5
t50.5 95.5t18 121.5t-18 121.5t-50.5 95.5t-78 62.5t-99.5 22.5q-55 0 -100.5 -22.5t-78 -62.5t-50.5 -95.5t-18 -121.5zM422 907h69l-112 -144h-56z" />
    <glyph glyph-name="Ocircumflex" unicode="&#xd4;" horiz-adv-x="732" 
d="M53 344q0 78 23 143.5t64.5 113t99.5 73.5t127 26t126.5 -26t99 -73.5t64.5 -113t23 -143.5t-23 -143.5t-64.5 -113t-99 -73.5t-126.5 -26t-127 26t-99.5 73.5t-64.5 113t-23 143.5zM120 344q0 -66 18 -121.5t50.5 -95.5t78 -62.5t100.5 -22.5q54 0 99.5 22.5t78 62.5
t50.5 95.5t18 121.5t-18 121.5t-50.5 95.5t-78 62.5t-99.5 22.5q-55 0 -100.5 -22.5t-78 -62.5t-50.5 -95.5t-18 -121.5zM342 907h51l99 -144h-54l-71 93l-71 -93h-54z" />
    <glyph glyph-name="Otilde" unicode="&#xd5;" horiz-adv-x="732" 
d="M53 344q0 78 23 143.5t64.5 113t99.5 73.5t127 26t126.5 -26t99 -73.5t64.5 -113t23 -143.5t-23 -143.5t-64.5 -113t-99 -73.5t-126.5 -26t-127 26t-99.5 73.5t-64.5 113t-23 143.5zM120 344q0 -66 18 -121.5t50.5 -95.5t78 -62.5t100.5 -22.5q54 0 99.5 22.5t78 62.5
t50.5 95.5t18 121.5t-18 121.5t-50.5 95.5t-78 62.5t-99.5 22.5q-55 0 -100.5 -22.5t-78 -62.5t-50.5 -95.5t-18 -121.5zM224 793q0 42 23 68.5t59 26.5q19 0 35.5 -9t30.5 -19.5t27.5 -19.5t26.5 -9q17 0 28 12.5t11 33.5h45q0 -42 -22.5 -68t-58.5 -26q-20 0 -36 9
t-30.5 19.5t-28 19.5t-26.5 9q-17 0 -28 -12.5t-11 -34.5h-45z" />
    <glyph glyph-name="Odieresis" unicode="&#xd6;" horiz-adv-x="732" 
d="M53 344q0 78 23 143.5t64.5 113t99.5 73.5t127 26t126.5 -26t99 -73.5t64.5 -113t23 -143.5t-23 -143.5t-64.5 -113t-99 -73.5t-126.5 -26t-127 26t-99.5 73.5t-64.5 113t-23 143.5zM120 344q0 -66 18 -121.5t50.5 -95.5t78 -62.5t100.5 -22.5q54 0 99.5 22.5t78 62.5
t50.5 95.5t18 121.5t-18 121.5t-50.5 95.5t-78 62.5t-99.5 22.5q-55 0 -100.5 -22.5t-78 -62.5t-50.5 -95.5t-18 -121.5zM426 835q0 19 11 30t29 11t29.5 -11t11.5 -30q0 -17 -11.5 -29t-29.5 -12t-29 12t-11 29zM227 835q0 19 11.5 30t29.5 11t29.5 -11t11.5 -30
q0 -17 -11.5 -29t-29.5 -12t-29.5 12t-11.5 29z" />
    <glyph glyph-name="multiply" unicode="&#xd7;" 
d="M63 102l180 180l-180 179l39 39l180 -180l179 180l39 -39l-180 -179l180 -180l-39 -39l-179 180l-180 -180z" />
    <glyph glyph-name="Oslash" unicode="&#xd8;" horiz-adv-x="732" 
d="M53 344q0 78 23 143.5t64.5 113t99.5 73.5t127 26q55 0 102.5 -17t85.5 -49l41 54h57l-65 -86q44 -47 68 -112t24 -146q0 -78 -23 -143.5t-64.5 -113t-99 -73.5t-126.5 -26q-56 0 -104 17t-86 49l-40 -54h-57l64 86q-43 47 -67 112.5t-24 145.5zM120 344q0 -63 16 -116
t45 -93l338 451q-31 29 -69 44.5t-83 15.5q-55 0 -100.5 -22.5t-78 -62.5t-50.5 -95.5t-18 -121.5zM613 344q0 63 -16.5 116t-45.5 92l-337 -450q30 -29 68.5 -44.5t84.5 -15.5q54 0 99.5 22.5t78 62.5t50.5 95.5t18 121.5z" />
    <glyph glyph-name="Ugrave" unicode="&#xd9;" horiz-adv-x="732" 
d="M634 251q0 -58 -20 -106t-55 -83t-84.5 -54.5t-107.5 -19.5q-59 0 -108 19.5t-84.5 54.5t-55.5 83t-20 106v437h64v-432q0 -47 15 -86t42 -67.5t64.5 -44.5t82.5 -16q44 0 81.5 16t64.5 44.5t42 67.5t15 86v432h64v-437zM243 907h69l99 -144h-56z" />
    <glyph glyph-name="Uacute" unicode="&#xda;" horiz-adv-x="732" 
d="M634 251q0 -58 -20 -106t-55 -83t-84.5 -54.5t-107.5 -19.5q-59 0 -108 19.5t-84.5 54.5t-55.5 83t-20 106v437h64v-432q0 -47 15 -86t42 -67.5t64.5 -44.5t82.5 -16q44 0 81.5 16t64.5 44.5t42 67.5t15 86v432h64v-437zM422 907h69l-112 -144h-56z" />
    <glyph glyph-name="Ucircumflex" unicode="&#xdb;" horiz-adv-x="732" 
d="M634 251q0 -58 -20 -106t-55 -83t-84.5 -54.5t-107.5 -19.5q-59 0 -108 19.5t-84.5 54.5t-55.5 83t-20 106v437h64v-432q0 -47 15 -86t42 -67.5t64.5 -44.5t82.5 -16q44 0 81.5 16t64.5 44.5t42 67.5t15 86v432h64v-437zM342 907h51l99 -144h-54l-71 93l-71 -93h-54z" />
    <glyph glyph-name="Udieresis" unicode="&#xdc;" horiz-adv-x="732" 
d="M634 251q0 -58 -20 -106t-55 -83t-84.5 -54.5t-107.5 -19.5q-59 0 -108 19.5t-84.5 54.5t-55.5 83t-20 106v437h64v-432q0 -47 15 -86t42 -67.5t64.5 -44.5t82.5 -16q44 0 81.5 16t64.5 44.5t42 67.5t15 86v432h64v-437zM426 835q0 19 11 30t29 11t29.5 -11t11.5 -30
q0 -17 -11.5 -29t-29.5 -12t-29 12t-11 29zM227 835q0 19 11.5 30t29.5 11t29.5 -11t11.5 -30q0 -17 -11.5 -29t-29.5 -12t-29.5 12t-11.5 29z" />
    <glyph glyph-name="Yacute" unicode="&#xdd;" horiz-adv-x="586" 
d="M261 302l-248 386h74l206 -328l206 328h74l-248 -386v-302h-64v302zM348 907h69l-112 -144h-56z" />
    <glyph glyph-name="Thorn" unicode="&#xde;" horiz-adv-x="577" 
d="M103 688h63v-132h144q49 0 90.5 -15t71.5 -42.5t47 -65.5t17 -83t-17 -83t-47 -65.5t-71.5 -42.5t-90.5 -15h-144v-144h-63v688zM166 196h134q37 0 68.5 11.5t53.5 31.5t34.5 48.5t12.5 62.5t-12.5 62.5t-34.5 48.5t-53.5 31.5t-68.5 11.5h-134v-308z" />
    <glyph glyph-name="germandbls" unicode="&#xdf;" horiz-adv-x="626" 
d="M281 86q70 -47 138 -47q50 0 83 25t33 66q0 32 -18.5 50.5t-45.5 31.5t-59.5 23.5t-59.5 26.5t-45.5 42t-18.5 69q0 37 13.5 62.5t30 47.5t30.5 44t14 54q0 43 -30.5 70.5t-79.5 27.5q-53 0 -86.5 -34t-33.5 -88v-557h-63v559q0 38 13.5 69.5t38 54.5t58 35.5t73.5 12.5
q39 0 70.5 -10.5t54.5 -29.5t35.5 -46t12.5 -60q0 -38 -14 -63.5t-30.5 -47.5t-30.5 -44.5t-14 -53.5q0 -32 18.5 -50t45.5 -30.5t59.5 -23t59.5 -27t45.5 -43t18.5 -70.5q0 -32 -13 -58.5t-36 -45.5t-55 -29.5t-70 -10.5q-70 0 -142 35v63z" />
    <glyph glyph-name="agrave" unicode="&#xe0;" horiz-adv-x="505" 
d="M365 56q-38 -33 -79.5 -50.5t-85.5 -17.5q-34 0 -62.5 10.5t-49 29t-32 44.5t-11.5 57q0 37 17.5 68.5t48.5 54.5t74.5 35.5t95.5 12.5q22 0 43 -1t41 -3v50q0 25 -9 46t-25.5 36.5t-39 24t-49.5 8.5q-36 0 -75 -10.5t-79 -33.5v57q41 20 81.5 29t78.5 9q40 0 72.5 -12
t55.5 -34t36 -52t13 -66v-348h-60v56zM109 135q0 -43 29 -69.5t76 -26.5q38 0 77 19.5t74 55.5v137q-20 2 -39.5 2.5t-40.5 0.5q-79 0 -127.5 -33t-48.5 -86zM128 719h69l99 -144h-56z" />
    <glyph glyph-name="aacute" unicode="&#xe1;" horiz-adv-x="505" 
d="M365 56q-38 -33 -79.5 -50.5t-85.5 -17.5q-34 0 -62.5 10.5t-49 29t-32 44.5t-11.5 57q0 37 17.5 68.5t48.5 54.5t74.5 35.5t95.5 12.5q22 0 43 -1t41 -3v50q0 25 -9 46t-25.5 36.5t-39 24t-49.5 8.5q-36 0 -75 -10.5t-79 -33.5v57q41 20 81.5 29t78.5 9q40 0 72.5 -12
t55.5 -34t36 -52t13 -66v-348h-60v56zM109 135q0 -43 29 -69.5t76 -26.5q38 0 77 19.5t74 55.5v137q-20 2 -39.5 2.5t-40.5 0.5q-79 0 -127.5 -33t-48.5 -86zM307 719h69l-112 -144h-56z" />
    <glyph glyph-name="acircumflex" unicode="&#xe2;" horiz-adv-x="505" 
d="M365 56q-38 -33 -79.5 -50.5t-85.5 -17.5q-34 0 -62.5 10.5t-49 29t-32 44.5t-11.5 57q0 37 17.5 68.5t48.5 54.5t74.5 35.5t95.5 12.5q22 0 43 -1t41 -3v50q0 25 -9 46t-25.5 36.5t-39 24t-49.5 8.5q-36 0 -75 -10.5t-79 -33.5v57q41 20 81.5 29t78.5 9q40 0 72.5 -12
t55.5 -34t36 -52t13 -66v-348h-60v56zM109 135q0 -43 29 -69.5t76 -26.5q38 0 77 19.5t74 55.5v137q-20 2 -39.5 2.5t-40.5 0.5q-79 0 -127.5 -33t-48.5 -86zM227 719h51l99 -144h-54l-71 93l-71 -93h-54z" />
    <glyph glyph-name="atilde" unicode="&#xe3;" horiz-adv-x="505" 
d="M365 56q-38 -33 -79.5 -50.5t-85.5 -17.5q-34 0 -62.5 10.5t-49 29t-32 44.5t-11.5 57q0 37 17.5 68.5t48.5 54.5t74.5 35.5t95.5 12.5q22 0 43 -1t41 -3v50q0 25 -9 46t-25.5 36.5t-39 24t-49.5 8.5q-36 0 -75 -10.5t-79 -33.5v57q41 20 81.5 29t78.5 9q40 0 72.5 -12
t55.5 -34t36 -52t13 -66v-348h-60v56zM109 135q0 -43 29 -69.5t76 -26.5q38 0 77 19.5t74 55.5v137q-20 2 -39.5 2.5t-40.5 0.5q-79 0 -127.5 -33t-48.5 -86zM109 605q0 42 23 68.5t59 26.5q19 0 35.5 -9t30.5 -19.5t27.5 -19.5t26.5 -9q17 0 28 12.5t11 33.5h45
q0 -42 -22.5 -68t-58.5 -26q-20 0 -36 9t-30.5 19.5t-28 19.5t-26.5 9q-17 0 -28 -12.5t-11 -34.5h-45z" />
    <glyph glyph-name="adieresis" unicode="&#xe4;" horiz-adv-x="505" 
d="M365 56q-38 -33 -79.5 -50.5t-85.5 -17.5q-34 0 -62.5 10.5t-49 29t-32 44.5t-11.5 57q0 37 17.5 68.5t48.5 54.5t74.5 35.5t95.5 12.5q22 0 43 -1t41 -3v50q0 25 -9 46t-25.5 36.5t-39 24t-49.5 8.5q-36 0 -75 -10.5t-79 -33.5v57q41 20 81.5 29t78.5 9q40 0 72.5 -12
t55.5 -34t36 -52t13 -66v-348h-60v56zM109 135q0 -43 29 -69.5t76 -26.5q38 0 77 19.5t74 55.5v137q-20 2 -39.5 2.5t-40.5 0.5q-79 0 -127.5 -33t-48.5 -86zM311 647q0 19 11 30t29 11t29.5 -11t11.5 -30q0 -17 -11.5 -29t-29.5 -12t-29 12t-11 29zM112 647q0 19 11.5 30
t29.5 11t29.5 -11t11.5 -30q0 -17 -11.5 -29t-29.5 -12t-29.5 12t-11.5 29z" />
    <glyph glyph-name="aring" unicode="&#xe5;" horiz-adv-x="505" 
d="M365 56q-38 -33 -79.5 -50.5t-85.5 -17.5q-34 0 -62.5 10.5t-49 29t-32 44.5t-11.5 57q0 37 17.5 68.5t48.5 54.5t74.5 35.5t95.5 12.5q22 0 43 -1t41 -3v50q0 25 -9 46t-25.5 36.5t-39 24t-49.5 8.5q-36 0 -75 -10.5t-79 -33.5v57q41 20 81.5 29t78.5 9q40 0 72.5 -12
t55.5 -34t36 -52t13 -66v-348h-60v56zM109 135q0 -43 29 -69.5t76 -26.5q38 0 77 19.5t74 55.5v137q-20 2 -39.5 2.5t-40.5 0.5q-79 0 -127.5 -33t-48.5 -86zM159 647q0 42 26 67.5t67 25.5q42 0 67.5 -25.5t25.5 -67.5q0 -41 -25.5 -66.5t-67.5 -25.5q-41 0 -67 25.5
t-26 66.5zM198 647q0 -23 15.5 -38.5t38.5 -15.5t38.5 15.5t15.5 38.5q0 24 -15.5 39t-38.5 15t-38.5 -15t-15.5 -39z" />
    <glyph glyph-name="ae" unicode="&#xe6;" horiz-adv-x="830" 
d="M425 238q2 -44 16.5 -81t38.5 -63t57.5 -40.5t72.5 -14.5q72 0 146 48v-60q-75 -39 -152 -39q-60 0 -110.5 26t-82.5 73q-45 -48 -96 -73.5t-104 -25.5q-37 0 -67.5 10t-52.5 28.5t-34 44.5t-12 58q0 37 17.5 68.5t48.5 54.5t74.5 35.5t95.5 12.5q23 0 43.5 -1t40.5 -3
v50q0 51 -34 83t-87 32q-38 0 -77 -10.5t-79 -33.5v57q41 20 81.5 29t78.5 9q57 0 100 -25t62 -70q31 46 77.5 70.5t101.5 24.5q45 0 82 -18t63.5 -50.5t40.5 -77t14 -97.5q0 -8 -0.5 -15.5t-0.5 -15.5h-363zM109 135q0 -45 31 -71t79 -26q45 0 88.5 23.5t78.5 66.5
q-11 28 -16 57.5t-5 61.5v4q-20 2 -39.5 2.5t-40.5 0.5q-79 0 -127.5 -33t-48.5 -86zM726 285q0 39 -10.5 71t-29 55.5t-44 36.5t-56.5 13q-33 0 -61.5 -13t-50 -36t-34.5 -55.5t-15 -71.5h301z" />
    <glyph glyph-name="ccedilla" unicode="&#xe7;" horiz-adv-x="472" 
d="M45 250q0 58 18 106t50 82.5t76 54t97 19.5q73 0 140 -35v-60q-33 22 -67 32.5t-66 10.5q-40 0 -73.5 -15.5t-58 -43t-38 -66.5t-13.5 -85t13.5 -84.5t38 -66.5t58 -43.5t73.5 -15.5q32 0 66 10.5t67 32.5v-60q-59 -31 -122 -34l-12 -50q35 -6 55 -29t20 -52
q0 -39 -31.5 -64t-80.5 -25q-19 0 -37 4.5t-35 15.5v48q34 -23 67 -23q29 0 45.5 12.5t16.5 32.5q0 23 -18 36t-52 13h-7l20 82q-47 5 -85.5 26.5t-66.5 55.5t-43 79.5t-15 98.5z" />
    <glyph glyph-name="egrave" unicode="&#xe8;" horiz-adv-x="512" 
d="M45 254q0 57 17 104t47 81.5t71.5 53.5t91.5 19q45 0 82 -18t63 -50.5t40 -77t14 -97.5v-15.5t-1 -15.5h-361q1 -44 15.5 -81t38.5 -63t57.5 -40.5t72.5 -14.5q35 0 72 12.5t74 35.5v-60q-75 -39 -153 -39q-53 0 -97 19.5t-76 55t-50 84t-18 107.5zM408 285q0 39 -10 71
t-28 55.5t-43.5 36.5t-56.5 13q-34 0 -62.5 -13t-49.5 -36t-34 -55.5t-15 -71.5h299zM144 719h69l99 -144h-56z" />
    <glyph glyph-name="eacute" unicode="&#xe9;" horiz-adv-x="512" 
d="M45 254q0 57 17 104t47 81.5t71.5 53.5t91.5 19q45 0 82 -18t63 -50.5t40 -77t14 -97.5v-15.5t-1 -15.5h-361q1 -44 15.5 -81t38.5 -63t57.5 -40.5t72.5 -14.5q35 0 72 12.5t74 35.5v-60q-75 -39 -153 -39q-53 0 -97 19.5t-76 55t-50 84t-18 107.5zM408 285q0 39 -10 71
t-28 55.5t-43.5 36.5t-56.5 13q-34 0 -62.5 -13t-49.5 -36t-34 -55.5t-15 -71.5h299zM323 719h69l-112 -144h-56z" />
    <glyph glyph-name="ecircumflex" unicode="&#xea;" horiz-adv-x="512" 
d="M45 254q0 57 17 104t47 81.5t71.5 53.5t91.5 19q45 0 82 -18t63 -50.5t40 -77t14 -97.5v-15.5t-1 -15.5h-361q1 -44 15.5 -81t38.5 -63t57.5 -40.5t72.5 -14.5q35 0 72 12.5t74 35.5v-60q-75 -39 -153 -39q-53 0 -97 19.5t-76 55t-50 84t-18 107.5zM408 285q0 39 -10 71
t-28 55.5t-43.5 36.5t-56.5 13q-34 0 -62.5 -13t-49.5 -36t-34 -55.5t-15 -71.5h299zM243 719h51l99 -144h-54l-71 93l-71 -93h-54z" />
    <glyph glyph-name="edieresis" unicode="&#xeb;" horiz-adv-x="512" 
d="M45 254q0 57 17 104t47 81.5t71.5 53.5t91.5 19q45 0 82 -18t63 -50.5t40 -77t14 -97.5v-15.5t-1 -15.5h-361q1 -44 15.5 -81t38.5 -63t57.5 -40.5t72.5 -14.5q35 0 72 12.5t74 35.5v-60q-75 -39 -153 -39q-53 0 -97 19.5t-76 55t-50 84t-18 107.5zM408 285q0 39 -10 71
t-28 55.5t-43.5 36.5t-56.5 13q-34 0 -62.5 -13t-49.5 -36t-34 -55.5t-15 -71.5h299zM327 647q0 19 11 30t29 11t29.5 -11t11.5 -30q0 -17 -11.5 -29t-29.5 -12t-29 12t-11 29zM128 647q0 19 11.5 30t29.5 11t29.5 -11t11.5 -30q0 -17 -11.5 -29t-29.5 -12t-29.5 12
t-11.5 29z" />
    <glyph glyph-name="igrave" unicode="&#xec;" horiz-adv-x="229" 
d="M83 500h63v-500h-63v500zM-10 719h69l99 -144h-56z" />
    <glyph glyph-name="iacute" unicode="&#xed;" horiz-adv-x="229" 
d="M83 500h63v-500h-63v500zM169 719h69l-112 -144h-56z" />
    <glyph glyph-name="icircumflex" unicode="&#xee;" horiz-adv-x="229" 
d="M83 500h63v-500h-63v500zM89 719h51l99 -144h-54l-71 93l-71 -93h-54z" />
    <glyph glyph-name="idieresis" unicode="&#xef;" horiz-adv-x="229" 
d="M83 500h63v-500h-63v500zM173 647q0 19 11 30t29 11t29.5 -11t11.5 -30q0 -17 -11.5 -29t-29.5 -12t-29 12t-11 29zM-26 647q0 19 11.5 30t29.5 11t29.5 -11t11.5 -30q0 -17 -11.5 -29t-29.5 -12t-29.5 12t-11.5 29z" />
    <glyph glyph-name="eth" unicode="&#xf0;" horiz-adv-x="559" 
d="M45 250q0 58 17 106t47 82.5t72 54t92 19.5q31 0 62 -8.5t61 -28.5q-25 40 -54.5 76t-62.5 68l-128 -55v50l90 40q-20 17 -41.5 33.5t-44.5 31.5h88q14 -10 26.5 -20.5t25.5 -21.5l114 48v-50l-76 -33q82 -80 131.5 -173.5t49.5 -207.5q0 -60 -17.5 -110.5t-49 -86.5
t-75.5 -56t-96 -20q-51 0 -93.5 19.5t-73 54t-47.5 83t-17 105.5zM110 250q0 -47 12.5 -85.5t35 -66t53.5 -43t69 -15.5q37 0 68 16t53.5 44.5t35.5 67.5t13 86q0 75 -27 146q-33 29 -70.5 44.5t-75.5 15.5q-37 0 -67.5 -15.5t-52.5 -43t-34.5 -66.5t-12.5 -85z" />
    <glyph glyph-name="ntilde" unicode="&#xf1;" horiz-adv-x="560" 
d="M83 500h63v-59q37 35 78 53t84 18q38 0 70 -13t55 -36t35.5 -54.5t12.5 -69.5v-339h-62v332q0 56 -34.5 91.5t-89.5 35.5q-38 0 -76.5 -19.5t-72.5 -57.5v-382h-63v500zM139 605q0 42 23 68.5t59 26.5q19 0 35.5 -9t30.5 -19.5t27.5 -19.5t26.5 -9q17 0 28 12.5t11 33.5
h45q0 -42 -22.5 -68t-58.5 -26q-20 0 -36 9t-30.5 19.5t-28 19.5t-26.5 9q-17 0 -28 -12.5t-11 -34.5h-45z" />
    <glyph glyph-name="ograve" unicode="&#xf2;" horiz-adv-x="560" 
d="M45 250q0 58 17.5 106t48.5 82.5t74.5 54t95.5 19.5q51 0 94 -19.5t74 -54t48.5 -82.5t17.5 -106t-17.5 -106t-48.5 -82.5t-74 -54t-94 -19.5q-52 0 -95.5 19.5t-74.5 54t-48.5 82.5t-17.5 106zM110 250q0 -47 12.5 -85.5t35 -66t54 -43t69.5 -15.5q37 0 68.5 15.5t54 43
t35 66t12.5 85.5q0 46 -12.5 85t-35 66.5t-54 43t-68.5 15.5q-38 0 -69.5 -15.5t-54 -43t-35 -66.5t-12.5 -85zM156 719h69l99 -144h-56z" />
    <glyph glyph-name="oacute" unicode="&#xf3;" horiz-adv-x="560" 
d="M45 250q0 58 17.5 106t48.5 82.5t74.5 54t95.5 19.5q51 0 94 -19.5t74 -54t48.5 -82.5t17.5 -106t-17.5 -106t-48.5 -82.5t-74 -54t-94 -19.5q-52 0 -95.5 19.5t-74.5 54t-48.5 82.5t-17.5 106zM110 250q0 -47 12.5 -85.5t35 -66t54 -43t69.5 -15.5q37 0 68.5 15.5t54 43
t35 66t12.5 85.5q0 46 -12.5 85t-35 66.5t-54 43t-68.5 15.5q-38 0 -69.5 -15.5t-54 -43t-35 -66.5t-12.5 -85zM335 719h69l-112 -144h-56z" />
    <glyph glyph-name="ocircumflex" unicode="&#xf4;" horiz-adv-x="560" 
d="M45 250q0 58 17.5 106t48.5 82.5t74.5 54t95.5 19.5q51 0 94 -19.5t74 -54t48.5 -82.5t17.5 -106t-17.5 -106t-48.5 -82.5t-74 -54t-94 -19.5q-52 0 -95.5 19.5t-74.5 54t-48.5 82.5t-17.5 106zM110 250q0 -47 12.5 -85.5t35 -66t54 -43t69.5 -15.5q37 0 68.5 15.5t54 43
t35 66t12.5 85.5q0 46 -12.5 85t-35 66.5t-54 43t-68.5 15.5q-38 0 -69.5 -15.5t-54 -43t-35 -66.5t-12.5 -85zM255 719h51l99 -144h-54l-71 93l-71 -93h-54z" />
    <glyph glyph-name="otilde" unicode="&#xf5;" horiz-adv-x="560" 
d="M45 250q0 58 17.5 106t48.5 82.5t74.5 54t95.5 19.5q51 0 94 -19.5t74 -54t48.5 -82.5t17.5 -106t-17.5 -106t-48.5 -82.5t-74 -54t-94 -19.5q-52 0 -95.5 19.5t-74.5 54t-48.5 82.5t-17.5 106zM110 250q0 -47 12.5 -85.5t35 -66t54 -43t69.5 -15.5q37 0 68.5 15.5t54 43
t35 66t12.5 85.5q0 46 -12.5 85t-35 66.5t-54 43t-68.5 15.5q-38 0 -69.5 -15.5t-54 -43t-35 -66.5t-12.5 -85zM137 605q0 42 23 68.5t59 26.5q19 0 35.5 -9t30.5 -19.5t27.5 -19.5t26.5 -9q17 0 28 12.5t11 33.5h45q0 -42 -22.5 -68t-58.5 -26q-20 0 -36 9t-30.5 19.5
t-28 19.5t-26.5 9q-17 0 -28 -12.5t-11 -34.5h-45z" />
    <glyph glyph-name="odieresis" unicode="&#xf6;" horiz-adv-x="560" 
d="M45 250q0 58 17.5 106t48.5 82.5t74.5 54t95.5 19.5q51 0 94 -19.5t74 -54t48.5 -82.5t17.5 -106t-17.5 -106t-48.5 -82.5t-74 -54t-94 -19.5q-52 0 -95.5 19.5t-74.5 54t-48.5 82.5t-17.5 106zM110 250q0 -47 12.5 -85.5t35 -66t54 -43t69.5 -15.5q37 0 68.5 15.5t54 43
t35 66t12.5 85.5q0 46 -12.5 85t-35 66.5t-54 43t-68.5 15.5q-38 0 -69.5 -15.5t-54 -43t-35 -66.5t-12.5 -85zM339 647q0 19 11 30t29 11t29.5 -11t11.5 -30q0 -17 -11.5 -29t-29.5 -12t-29 12t-11 29zM140 647q0 19 11.5 30t29.5 11t29.5 -11t11.5 -30q0 -17 -11.5 -29
t-29.5 -12t-29.5 12t-11.5 29z" />
    <glyph glyph-name="divide" unicode="&#xf7;" 
d="M240 94q0 17 12 29t30 12q17 0 29 -12t12 -29q0 -18 -12 -29.5t-29 -11.5q-18 0 -30 11.5t-12 29.5zM31 309h501v-55h-501v55zM240 469q0 18 12 29.5t30 11.5q17 0 29 -11.5t12 -29.5q0 -17 -12 -29t-29 -12q-18 0 -30 12t-12 29z" />
    <glyph glyph-name="oslash" unicode="&#xf8;" horiz-adv-x="560" 
d="M45 250q0 58 17.5 106t48.5 82.5t74.5 54t95.5 19.5q39 0 74 -11t63 -34l25 33h50l-45 -60q32 -35 49.5 -83t17.5 -107q0 -58 -17.5 -106t-48.5 -82.5t-74 -54t-94 -19.5q-81 0 -138 45l-26 -33h-50l46 61q-32 35 -50 83t-18 106zM109 250q0 -86 40 -141l235 313
q-43 38 -103 38q-38 0 -70 -15.5t-54.5 -43t-35 -66.5t-12.5 -85zM452 250q0 43 -10.5 78.5t-30.5 63.5l-235 -313q42 -39 105 -39q37 0 68.5 15.5t54.5 43t35.5 66t12.5 85.5z" />
    <glyph glyph-name="ugrave" unicode="&#xf9;" horiz-adv-x="560" 
d="M477 0h-62v60q-75 -72 -163 -72q-38 0 -69.5 13t-54.5 36t-36 54.5t-13 69.5v339h63v-332q0 -28 9 -51t25.5 -40t39 -26.5t49.5 -9.5q39 0 77 19.5t73 57.5v382h62v-500zM155 719h69l99 -144h-56z" />
    <glyph glyph-name="uacute" unicode="&#xfa;" horiz-adv-x="560" 
d="M477 0h-62v60q-75 -72 -163 -72q-38 0 -69.5 13t-54.5 36t-36 54.5t-13 69.5v339h63v-332q0 -28 9 -51t25.5 -40t39 -26.5t49.5 -9.5q39 0 77 19.5t73 57.5v382h62v-500zM334 719h69l-112 -144h-56z" />
    <glyph glyph-name="ucircumflex" unicode="&#xfb;" horiz-adv-x="560" 
d="M477 0h-62v60q-75 -72 -163 -72q-38 0 -69.5 13t-54.5 36t-36 54.5t-13 69.5v339h63v-332q0 -28 9 -51t25.5 -40t39 -26.5t49.5 -9.5q39 0 77 19.5t73 57.5v382h62v-500zM254 719h51l99 -144h-54l-71 93l-71 -93h-54z" />
    <glyph glyph-name="udieresis" unicode="&#xfc;" horiz-adv-x="560" 
d="M477 0h-62v60q-75 -72 -163 -72q-38 0 -69.5 13t-54.5 36t-36 54.5t-13 69.5v339h63v-332q0 -28 9 -51t25.5 -40t39 -26.5t49.5 -9.5q39 0 77 19.5t73 57.5v382h62v-500zM338 647q0 19 11 30t29 11t29.5 -11t11.5 -30q0 -17 -11.5 -29t-29.5 -12t-29 12t-11 29zM139 647
q0 19 11.5 30t29.5 11t29.5 -11t11.5 -30q0 -17 -11.5 -29t-29.5 -12t-29.5 12t-11.5 29z" />
    <glyph glyph-name="yacute" unicode="&#xfd;" horiz-adv-x="490" 
d="M184 -219h-61l92 230l-195 489h65l160 -413l161 413h63zM300 719h69l-112 -144h-56z" />
    <glyph glyph-name="thorn" unicode="&#xfe;" horiz-adv-x="560" 
d="M451 250q0 46 -12.5 84.5t-34.5 66t-52.5 43t-66.5 15.5q-37 0 -72.5 -16t-66.5 -48v-289q63 -66 139 -66q36 0 66.5 15.5t52.5 43.5t34.5 66.5t12.5 84.5zM83 719h63v-266q32 29 69.5 44t76.5 15q49 0 90 -19.5t70.5 -54t46 -82.5t16.5 -106t-16.5 -106t-46 -82.5
t-70.5 -54t-90 -19.5q-39 0 -76.5 15.5t-69.5 44.5v-267h-63v938z" />
    <glyph glyph-name="ydieresis" unicode="&#xff;" horiz-adv-x="490" 
d="M184 -219h-61l92 230l-195 489h65l160 -413l161 413h63zM304 647q0 19 11 30t29 11t29.5 -11t11.5 -30q0 -17 -11.5 -29t-29.5 -12t-29 12t-11 29zM105 647q0 19 11.5 30t29.5 11t29.5 -11t11.5 -30q0 -17 -11.5 -29t-29.5 -12t-29.5 12t-11.5 29z" />
    <glyph glyph-name="Amacron" unicode="&#x100;" horiz-adv-x="635" 
d="M292 688h51l275 -688h-66l-82 208h-305l-83 -208h-65zM185 259h266l-133 337zM173 859h290v-47h-290v47z" />
    <glyph glyph-name="amacron" unicode="&#x101;" horiz-adv-x="505" 
d="M365 56q-38 -33 -79.5 -50.5t-85.5 -17.5q-34 0 -62.5 10.5t-49 29t-32 44.5t-11.5 57q0 37 17.5 68.5t48.5 54.5t74.5 35.5t95.5 12.5q22 0 43 -1t41 -3v50q0 25 -9 46t-25.5 36.5t-39 24t-49.5 8.5q-36 0 -75 -10.5t-79 -33.5v57q41 20 81.5 29t78.5 9q40 0 72.5 -12
t55.5 -34t36 -52t13 -66v-348h-60v56zM109 135q0 -43 29 -69.5t76 -26.5q38 0 77 19.5t74 55.5v137q-20 2 -39.5 2.5t-40.5 0.5q-79 0 -127.5 -33t-48.5 -86zM107 671h290v-47h-290v47z" />
    <glyph glyph-name="Abreve" unicode="&#x102;" horiz-adv-x="635" 
d="M292 688h51l275 -688h-66l-82 208h-305l-83 -208h-65zM185 259h266l-133 337zM235 907q0 -38 23.5 -62.5t59.5 -24.5t59.5 24.5t23.5 62.5h47q0 -30 -9.5 -55.5t-27 -43.5t-41.5 -28t-52 -10q-29 0 -52.5 10t-41 28t-27 43.5t-9.5 55.5h47z" />
    <glyph glyph-name="abreve" unicode="&#x103;" horiz-adv-x="505" 
d="M365 56q-38 -33 -79.5 -50.5t-85.5 -17.5q-34 0 -62.5 10.5t-49 29t-32 44.5t-11.5 57q0 37 17.5 68.5t48.5 54.5t74.5 35.5t95.5 12.5q22 0 43 -1t41 -3v50q0 25 -9 46t-25.5 36.5t-39 24t-49.5 8.5q-36 0 -75 -10.5t-79 -33.5v57q41 20 81.5 29t78.5 9q40 0 72.5 -12
t55.5 -34t36 -52t13 -66v-348h-60v56zM109 135q0 -43 29 -69.5t76 -26.5q38 0 77 19.5t74 55.5v137q-20 2 -39.5 2.5t-40.5 0.5q-79 0 -127.5 -33t-48.5 -86zM169 719q0 -38 23.5 -62.5t59.5 -24.5t59.5 24.5t23.5 62.5h47q0 -30 -9.5 -55.5t-27 -43.5t-41.5 -28t-52 -10
q-29 0 -52.5 10t-41 28t-27 43.5t-9.5 55.5h47z" />
    <glyph glyph-name="Aogonek" unicode="&#x104;" horiz-adv-x="635" 
d="M552 0l-82 208h-305l-83 -208h-65l275 688h51l275 -688q-45 -26 -68.5 -56t-23.5 -62q0 -23 14 -37t36 -14q11 0 21.5 2.5t20.5 8.5v-46q-25 -13 -54 -13q-42 0 -67.5 25t-25.5 63q0 73 93 129h-12zM185 259h266l-133 337z" />
    <glyph glyph-name="aogonek" unicode="&#x105;" horiz-adv-x="505" 
d="M365 56q-38 -33 -79.5 -50.5t-85.5 -17.5q-34 0 -62.5 10.5t-49 29t-32 44.5t-11.5 57q0 37 17.5 68.5t48.5 54.5t74.5 35.5t95.5 12.5q22 0 43 -1t41 -3v50q0 25 -9 46t-25.5 36.5t-39 24t-49.5 8.5q-36 0 -75 -10.5t-79 -33.5v57q41 20 81.5 29t78.5 9q40 0 72.5 -12
t55.5 -34t36 -52t13 -66l1 -348q-45 -26 -68.5 -56t-23.5 -62q0 -23 14 -37t36 -14q11 0 21.5 2.5t20.5 8.5v-46q-25 -13 -54 -13q-42 0 -67.5 25t-25.5 63q0 73 93 129h-7v56zM109 135q0 -43 29 -69.5t76 -26.5q38 0 77 19.5t74 55.5v137q-20 2 -39.5 2.5t-40.5 0.5
q-79 0 -127.5 -33t-48.5 -86z" />
    <glyph glyph-name="Cacute" unicode="&#x106;" horiz-adv-x="613" 
d="M53 344q0 78 23.5 143.5t66.5 112.5t102.5 73.5t130.5 26.5q48 0 95 -13t92 -38v-64q-93 61 -182 61q-58 0 -106 -22.5t-82.5 -62.5t-53.5 -95.5t-19 -121.5t19 -121.5t53.5 -95.5t82.5 -62.5t106 -22.5q89 0 182 61v-64q-45 -25 -92 -38t-95 -13q-71 0 -130.5 26.5
t-102.5 73.5t-66.5 112.5t-23.5 143.5zM412 907h69l-112 -144h-56z" />
    <glyph glyph-name="cacute" unicode="&#x107;" horiz-adv-x="472" 
d="M45 250q0 58 18 106t50 82.5t76 54t97 19.5q73 0 140 -35v-60q-33 22 -67 32.5t-66 10.5q-40 0 -73.5 -15.5t-58 -43t-38 -66.5t-13.5 -85t13.5 -84.5t38 -66.5t58 -43.5t73.5 -15.5q32 0 66 10.5t67 32.5v-60q-67 -35 -140 -35q-53 0 -97 19.5t-76 54t-50 83t-18 105.5z
M330 719h69l-112 -144h-56z" />
    <glyph glyph-name="Ccircumflex" unicode="&#x108;" horiz-adv-x="613" 
d="M53 344q0 78 23.5 143.5t66.5 112.5t102.5 73.5t130.5 26.5q48 0 95 -13t92 -38v-64q-93 61 -182 61q-58 0 -106 -22.5t-82.5 -62.5t-53.5 -95.5t-19 -121.5t19 -121.5t53.5 -95.5t82.5 -62.5t106 -22.5q89 0 182 61v-64q-45 -25 -92 -38t-95 -13q-71 0 -130.5 26.5
t-102.5 73.5t-66.5 112.5t-23.5 143.5zM332 907h51l99 -144h-54l-71 93l-71 -93h-54z" />
    <glyph glyph-name="ccircumflex" unicode="&#x109;" horiz-adv-x="472" 
d="M45 250q0 58 18 106t50 82.5t76 54t97 19.5q73 0 140 -35v-60q-33 22 -67 32.5t-66 10.5q-40 0 -73.5 -15.5t-58 -43t-38 -66.5t-13.5 -85t13.5 -84.5t38 -66.5t58 -43.5t73.5 -15.5q32 0 66 10.5t67 32.5v-60q-67 -35 -140 -35q-53 0 -97 19.5t-76 54t-50 83t-18 105.5z
M250 719h51l99 -144h-54l-71 93l-71 -93h-54z" />
    <glyph glyph-name="Cdotaccent" unicode="&#x10a;" horiz-adv-x="613" 
d="M53 344q0 78 23.5 143.5t66.5 112.5t102.5 73.5t130.5 26.5q48 0 95 -13t92 -38v-64q-93 61 -182 61q-58 0 -106 -22.5t-82.5 -62.5t-53.5 -95.5t-19 -121.5t19 -121.5t53.5 -95.5t82.5 -62.5t106 -22.5q89 0 182 61v-64q-45 -25 -92 -38t-95 -13q-71 0 -130.5 26.5
t-102.5 73.5t-66.5 112.5t-23.5 143.5zM316 835q0 19 11.5 30t29.5 11q19 0 30 -11t11 -30q0 -18 -11 -29.5t-30 -11.5q-18 0 -29.5 11.5t-11.5 29.5z" />
    <glyph glyph-name="cdotaccent" unicode="&#x10b;" horiz-adv-x="472" 
d="M45 250q0 58 18 106t50 82.5t76 54t97 19.5q73 0 140 -35v-60q-33 22 -67 32.5t-66 10.5q-40 0 -73.5 -15.5t-58 -43t-38 -66.5t-13.5 -85t13.5 -84.5t38 -66.5t58 -43.5t73.5 -15.5q32 0 66 10.5t67 32.5v-60q-67 -35 -140 -35q-53 0 -97 19.5t-76 54t-50 83t-18 105.5z
M234 647q0 19 11.5 30t29.5 11q19 0 30 -11t11 -30q0 -18 -11 -29.5t-30 -11.5q-18 0 -29.5 11.5t-11.5 29.5z" />
    <glyph glyph-name="Ccaron" unicode="&#x10c;" horiz-adv-x="613" 
d="M53 344q0 78 23.5 143.5t66.5 112.5t102.5 73.5t130.5 26.5q48 0 95 -13t92 -38v-64q-93 61 -182 61q-58 0 -106 -22.5t-82.5 -62.5t-53.5 -95.5t-19 -121.5t19 -121.5t53.5 -95.5t82.5 -62.5t106 -22.5q89 0 182 61v-64q-45 -25 -92 -38t-95 -13q-71 0 -130.5 26.5
t-102.5 73.5t-66.5 112.5t-23.5 143.5zM383 763h-51l-100 144h54l71 -92l71 92h54z" />
    <glyph glyph-name="ccaron" unicode="&#x10d;" horiz-adv-x="472" 
d="M45 250q0 58 18 106t50 82.5t76 54t97 19.5q73 0 140 -35v-60q-33 22 -67 32.5t-66 10.5q-40 0 -73.5 -15.5t-58 -43t-38 -66.5t-13.5 -85t13.5 -84.5t38 -66.5t58 -43.5t73.5 -15.5q32 0 66 10.5t67 32.5v-60q-67 -35 -140 -35q-53 0 -97 19.5t-76 54t-50 83t-18 105.5z
M301 575h-51l-100 144h54l71 -92l71 92h54z" />
    <glyph glyph-name="Dcaron" unicode="&#x10e;" horiz-adv-x="693" 
d="M103 688h204q73 0 134.5 -25.5t105.5 -71t68.5 -108.5t24.5 -139t-24.5 -139t-68.5 -108.5t-105.5 -71t-134.5 -25.5h-204v688zM167 52h136q60 0 110 21.5t85.5 60t55.5 92t20 118.5q0 64 -20 118t-55.5 92.5t-85.5 60t-110 21.5h-136v-584zM357 763h-51l-100 144h54
l71 -92l71 92h54z" />
    <glyph glyph-name="dcaron" unicode="&#x10f;" horiz-adv-x="560" 
d="M110 250q0 -46 12 -84.5t34 -66.5t53 -43.5t68 -15.5q74 0 138 66v289q-64 64 -138 64q-37 0 -68 -15.5t-53 -43t-34 -66t-12 -84.5zM477 0h-62v48q-66 -60 -146 -60q-50 0 -91 19.5t-70.5 54t-46 82.5t-16.5 106t16.5 106t46 82.5t70.5 54t91 19.5q40 0 77 -15t69 -44
v266h62v-719zM601 719h59l-61 -144h-51z" />
    <glyph glyph-name="Dcroat" unicode="&#x110;" horiz-adv-x="709" 
d="M118 326h-89v48h89v314h205q73 0 134.5 -25.5t105.5 -71t68.5 -108.5t24.5 -139t-24.5 -139t-68.5 -108.5t-105.5 -71t-134.5 -25.5h-205v326zM183 374h166v-48h-166v-274h136q60 0 109.5 21.5t85.5 60t56 92t20 118.5q0 64 -20 118t-56 92.5t-85.5 60t-109.5 21.5h-136
v-262z" />
    <glyph glyph-name="dcroat" unicode="&#x111;" horiz-adv-x="560" 
d="M477 640h76v-47h-76v-593h-62v48q-66 -60 -146 -60q-50 0 -91 19.5t-70.5 54t-46 82.5t-16.5 106t16.5 106t46 82.5t70.5 54t91 19.5q40 0 77 -15t69 -44v140h-153v47h153v79h62v-79zM110 250q0 -46 12 -84.5t34 -66.5t53 -43.5t68 -15.5q74 0 138 66v289q-64 64 -138 64
q-37 0 -68 -15.5t-53 -43t-34 -66t-12 -84.5z" />
    <glyph glyph-name="Emacron" unicode="&#x112;" horiz-adv-x="550" 
d="M103 688h386v-52h-322v-261h283v-51h-283v-272h330v-52h-394v688zM145 859h290v-47h-290v47z" />
    <glyph glyph-name="emacron" unicode="&#x113;" horiz-adv-x="512" 
d="M45 254q0 57 17 104t47 81.5t71.5 53.5t91.5 19q45 0 82 -18t63 -50.5t40 -77t14 -97.5v-15.5t-1 -15.5h-361q1 -44 15.5 -81t38.5 -63t57.5 -40.5t72.5 -14.5q35 0 72 12.5t74 35.5v-60q-75 -39 -153 -39q-53 0 -97 19.5t-76 55t-50 84t-18 107.5zM408 285q0 39 -10 71
t-28 55.5t-43.5 36.5t-56.5 13q-34 0 -62.5 -13t-49.5 -36t-34 -55.5t-15 -71.5h299zM123 671h290v-47h-290v47z" />
    <glyph glyph-name="Ebreve" unicode="&#x114;" horiz-adv-x="550" 
d="M103 688h386v-52h-322v-261h283v-51h-283v-272h330v-52h-394v688zM207 907q0 -38 23.5 -62.5t59.5 -24.5t59.5 24.5t23.5 62.5h47q0 -30 -9.5 -55.5t-27 -43.5t-41.5 -28t-52 -10q-29 0 -52.5 10t-41 28t-27 43.5t-9.5 55.5h47z" />
    <glyph glyph-name="ebreve" unicode="&#x115;" horiz-adv-x="512" 
d="M45 254q0 57 17 104t47 81.5t71.5 53.5t91.5 19q45 0 82 -18t63 -50.5t40 -77t14 -97.5v-15.5t-1 -15.5h-361q1 -44 15.5 -81t38.5 -63t57.5 -40.5t72.5 -14.5q35 0 72 12.5t74 35.5v-60q-75 -39 -153 -39q-53 0 -97 19.5t-76 55t-50 84t-18 107.5zM408 285q0 39 -10 71
t-28 55.5t-43.5 36.5t-56.5 13q-34 0 -62.5 -13t-49.5 -36t-34 -55.5t-15 -71.5h299zM185 719q0 -38 23.5 -62.5t59.5 -24.5t59.5 24.5t23.5 62.5h47q0 -30 -9.5 -55.5t-27 -43.5t-41.5 -28t-52 -10q-29 0 -52.5 10t-41 28t-27 43.5t-9.5 55.5h47z" />
    <glyph glyph-name="Edotaccent" unicode="&#x116;" horiz-adv-x="550" 
d="M103 688h386v-52h-322v-261h283v-51h-283v-272h330v-52h-394v688zM249 835q0 19 11.5 30t29.5 11q19 0 30 -11t11 -30q0 -18 -11 -29.5t-30 -11.5q-18 0 -29.5 11.5t-11.5 29.5z" />
    <glyph glyph-name="edotaccent" unicode="&#x117;" horiz-adv-x="512" 
d="M45 254q0 57 17 104t47 81.5t71.5 53.5t91.5 19q45 0 82 -18t63 -50.5t40 -77t14 -97.5v-15.5t-1 -15.5h-361q1 -44 15.5 -81t38.5 -63t57.5 -40.5t72.5 -14.5q35 0 72 12.5t74 35.5v-60q-75 -39 -153 -39q-53 0 -97 19.5t-76 55t-50 84t-18 107.5zM408 285q0 39 -10 71
t-28 55.5t-43.5 36.5t-56.5 13q-34 0 -62.5 -13t-49.5 -36t-34 -55.5t-15 -71.5h299zM227 647q0 19 11.5 30t29.5 11q19 0 30 -11t11 -30q0 -18 -11 -29.5t-30 -11.5q-18 0 -29.5 11.5t-11.5 29.5z" />
    <glyph glyph-name="Eogonek" unicode="&#x118;" horiz-adv-x="550" 
d="M103 688h386v-52h-322v-261h283v-51h-283v-272h330v-52q-45 -26 -68.5 -56t-23.5 -62q0 -23 14 -37t36 -14q11 0 21.5 2.5t20.5 8.5v-46q-25 -13 -54 -13q-42 0 -67.5 25t-25.5 63q0 73 93 129h-340v688z" />
    <glyph glyph-name="eogonek" unicode="&#x119;" horiz-adv-x="512" 
d="M45 250q0 58 17 106t47 82.5t71.5 54t91.5 19.5q45 0 82 -18t63 -50.5t40 -77t14 -97.5v-15.5t-1 -15.5h-361q1 -44 15.5 -81t38.5 -63t57.5 -40.5t72.5 -14.5q35 0 72 12.5t74 35.5v-60q-45 -30 -68.5 -66.5t-23.5 -74.5q0 -25 14 -40t36 -15q24 0 42 11v-46
q-23 -13 -54 -13q-40 0 -66 25.5t-26 66.5q0 67 58 121q-17 -4 -33 -6t-32 -2q-53 0 -97 19.5t-76 54t-50 83t-18 105.5zM408 285q0 39 -10 71t-28 55.5t-43.5 36.5t-56.5 13q-34 0 -62.5 -13t-49.5 -36t-34 -55.5t-15 -71.5h299z" />
    <glyph glyph-name="Ecaron" unicode="&#x11a;" horiz-adv-x="550" 
d="M103 688h386v-52h-322v-261h283v-51h-283v-272h330v-52h-394v688zM316 763h-51l-100 144h54l71 -92l71 92h54z" />
    <glyph glyph-name="ecaron" unicode="&#x11b;" horiz-adv-x="512" 
d="M45 254q0 57 17 104t47 81.5t71.5 53.5t91.5 19q45 0 82 -18t63 -50.5t40 -77t14 -97.5v-15.5t-1 -15.5h-361q1 -44 15.5 -81t38.5 -63t57.5 -40.5t72.5 -14.5q35 0 72 12.5t74 35.5v-60q-75 -39 -153 -39q-53 0 -97 19.5t-76 55t-50 84t-18 107.5zM408 285q0 39 -10 71
t-28 55.5t-43.5 36.5t-56.5 13q-34 0 -62.5 -13t-49.5 -36t-34 -55.5t-15 -71.5h299zM294 575h-51l-100 144h54l71 -92l71 92h54z" />
    <glyph glyph-name="Gcircumflex" unicode="&#x11c;" horiz-adv-x="670" 
d="M600 47q-54 -29 -109 -44t-110 -15q-72 0 -132.5 26.5t-104 73.5t-67.5 112.5t-24 143.5t24 143.5t67.5 112.5t104 73.5t132.5 26.5q51 0 99 -14t96 -41v-66q-49 33 -95.5 50t-94.5 17q-59 0 -108 -22t-84.5 -62t-55 -95.5t-19.5 -122.5t19.5 -122.5t54.5 -95.5t83.5 -62
t107.5 -22q38 0 77 9.5t77 26.5v220h-171v50h233v-301zM342 907h51l99 -144h-54l-71 93l-71 -93h-54z" />
    <glyph glyph-name="gcircumflex" unicode="&#x11d;" horiz-adv-x="560" 
d="M477 -12q0 -48 -16.5 -88t-46 -69.5t-70 -45.5t-89.5 -16q-80 0 -163 37v60q41 -23 80 -34.5t78 -11.5q36 0 66.5 12.5t52.5 35t34 54t12 68.5v58q-66 -60 -146 -60q-50 0 -91 19.5t-70.5 54t-46 82.5t-16.5 106t16.5 106t46 82.5t70.5 54t91 19.5q40 0 77 -15t69 -44v47
h62v-512zM110 250q0 -46 12 -84.5t34 -66.5t53 -43.5t68 -15.5q74 0 138 66v289q-64 64 -138 64q-37 0 -68 -15.5t-53 -43t-34 -66t-12 -84.5zM255 719h51l99 -144h-54l-71 93l-71 -93h-54z" />
    <glyph glyph-name="Gbreve" unicode="&#x11e;" horiz-adv-x="670" 
d="M600 47q-54 -29 -109 -44t-110 -15q-72 0 -132.5 26.5t-104 73.5t-67.5 112.5t-24 143.5t24 143.5t67.5 112.5t104 73.5t132.5 26.5q51 0 99 -14t96 -41v-66q-49 33 -95.5 50t-94.5 17q-59 0 -108 -22t-84.5 -62t-55 -95.5t-19.5 -122.5t19.5 -122.5t54.5 -95.5t83.5 -62
t107.5 -22q38 0 77 9.5t77 26.5v220h-171v50h233v-301zM284 907q0 -38 23.5 -62.5t59.5 -24.5t59.5 24.5t23.5 62.5h47q0 -30 -9.5 -55.5t-27 -43.5t-41.5 -28t-52 -10q-29 0 -52.5 10t-41 28t-27 43.5t-9.5 55.5h47z" />
    <glyph glyph-name="gbreve" unicode="&#x11f;" horiz-adv-x="560" 
d="M477 -12q0 -48 -16.5 -88t-46 -69.5t-70 -45.5t-89.5 -16q-80 0 -163 37v60q41 -23 80 -34.5t78 -11.5q36 0 66.5 12.5t52.5 35t34 54t12 68.5v58q-66 -60 -146 -60q-50 0 -91 19.5t-70.5 54t-46 82.5t-16.5 106t16.5 106t46 82.5t70.5 54t91 19.5q40 0 77 -15t69 -44v47
h62v-512zM110 250q0 -46 12 -84.5t34 -66.5t53 -43.5t68 -15.5q74 0 138 66v289q-64 64 -138 64q-37 0 -68 -15.5t-53 -43t-34 -66t-12 -84.5zM197 719q0 -38 23.5 -62.5t59.5 -24.5t59.5 24.5t23.5 62.5h47q0 -30 -9.5 -55.5t-27 -43.5t-41.5 -28t-52 -10q-29 0 -52.5 10
t-41 28t-27 43.5t-9.5 55.5h47z" />
    <glyph glyph-name="Gdotaccent" unicode="&#x120;" horiz-adv-x="670" 
d="M600 47q-54 -29 -109 -44t-110 -15q-72 0 -132.5 26.5t-104 73.5t-67.5 112.5t-24 143.5t24 143.5t67.5 112.5t104 73.5t132.5 26.5q51 0 99 -14t96 -41v-66q-49 33 -95.5 50t-94.5 17q-59 0 -108 -22t-84.5 -62t-55 -95.5t-19.5 -122.5t19.5 -122.5t54.5 -95.5t83.5 -62
t107.5 -22q38 0 77 9.5t77 26.5v220h-171v50h233v-301zM326 835q0 19 11.5 30t29.5 11q19 0 30 -11t11 -30q0 -18 -11 -29.5t-30 -11.5q-18 0 -29.5 11.5t-11.5 29.5z" />
    <glyph glyph-name="gdotaccent" unicode="&#x121;" horiz-adv-x="560" 
d="M477 -12q0 -48 -16.5 -88t-46 -69.5t-70 -45.5t-89.5 -16q-80 0 -163 37v60q41 -23 80 -34.5t78 -11.5q36 0 66.5 12.5t52.5 35t34 54t12 68.5v58q-66 -60 -146 -60q-50 0 -91 19.5t-70.5 54t-46 82.5t-16.5 106t16.5 106t46 82.5t70.5 54t91 19.5q40 0 77 -15t69 -44v47
h62v-512zM110 250q0 -46 12 -84.5t34 -66.5t53 -43.5t68 -15.5q74 0 138 66v289q-64 64 -138 64q-37 0 -68 -15.5t-53 -43t-34 -66t-12 -84.5zM239 647q0 19 11.5 30t29.5 11q19 0 30 -11t11 -30q0 -18 -11 -29.5t-30 -11.5q-18 0 -29.5 11.5t-11.5 29.5z" />
    <glyph glyph-name="Gcommaaccent" unicode="&#x122;" horiz-adv-x="670" 
d="M600 47q-54 -29 -109 -44t-110 -15q-72 0 -132.5 26.5t-104 73.5t-67.5 112.5t-24 143.5t24 143.5t67.5 112.5t104 73.5t132.5 26.5q51 0 99 -14t96 -41v-66q-49 33 -95.5 50t-94.5 17q-59 0 -108 -22t-84.5 -62t-55 -95.5t-19.5 -122.5t19.5 -122.5t54.5 -95.5t83.5 -62
t107.5 -22q38 0 77 9.5t77 26.5v220h-171v50h233v-301zM344 -74h59l-69 -168h-52z" />
    <glyph glyph-name="gcommaaccent" unicode="&#x123;" horiz-adv-x="560" 
d="M477 -12q0 -48 -16.5 -88t-46 -69.5t-70 -45.5t-89.5 -16q-80 0 -163 37v60q41 -23 80 -34.5t78 -11.5q36 0 66.5 12.5t52.5 35t34 54t12 68.5v58q-66 -60 -146 -60q-50 0 -91 19.5t-70.5 54t-46 82.5t-16.5 106t16.5 106t46 82.5t70.5 54t91 19.5q40 0 77 -15t69 -44v47
h62v-512zM110 250q0 -46 12 -84.5t34 -66.5t53 -43.5t68 -15.5q74 0 138 66v289q-64 64 -138 64q-37 0 -68 -15.5t-53 -43t-34 -66t-12 -84.5zM304 575h-60l69 168h52z" />
    <glyph glyph-name="Hcircumflex" unicode="&#x124;" horiz-adv-x="732" 
d="M103 688h64v-312h399v312h64v-688h-64v324h-399v-324h-64v688zM342 907h51l99 -144h-54l-71 93l-71 -93h-54z" />
    <glyph glyph-name="hcircumflex" unicode="&#x125;" horiz-adv-x="560" 
d="M83 719h63v-278q37 35 78 53t84 18q38 0 70 -13t55 -36t35.5 -54.5t12.5 -69.5v-339h-62v332q0 56 -34.5 91.5t-89.5 35.5q-38 0 -76.5 -19.5t-72.5 -57.5v-382h-63v719zM89 938h51l99 -144h-54l-71 93l-71 -93h-54z" />
    <glyph glyph-name="Hbar" unicode="&#x126;" horiz-adv-x="732" 
d="M103 498h-88v48h88v142h64v-142h398v142h65v-142h88v-48h-88v-498h-65v323h-398v-323h-64v498zM167 375h398v123h-398v-123z" />
    <glyph glyph-name="hbar" unicode="&#x127;" horiz-adv-x="560" 
d="M83 593h-76v47h76v79h63v-79h153v-47h-153v-152q37 35 78 53t84 18q38 0 70 -13t55 -36t35.5 -54.5t12.5 -69.5v-339h-62v332q0 56 -34.5 91.5t-89.5 35.5q-38 0 -76.5 -19.5t-72.5 -57.5v-382h-63v593z" />
    <glyph glyph-name="Itilde" unicode="&#x128;" horiz-adv-x="270" 
d="M103 688h64v-688h-64v688zM-8 793q0 42 23 68.5t59 26.5q19 0 35.5 -9t30.5 -19.5t27.5 -19.5t26.5 -9q17 0 28 12.5t11 33.5h45q0 -42 -22.5 -68t-58.5 -26q-20 0 -36 9t-30.5 19.5t-28 19.5t-26.5 9q-17 0 -28 -12.5t-11 -34.5h-45z" />
    <glyph glyph-name="itilde" unicode="&#x129;" horiz-adv-x="229" 
d="M83 500h63v-500h-63v500zM-29 605q0 42 23 68.5t59 26.5q19 0 35.5 -9t30.5 -19.5t27.5 -19.5t26.5 -9q17 0 28 12.5t11 33.5h45q0 -42 -22.5 -68t-58.5 -26q-20 0 -36 9t-30.5 19.5t-28 19.5t-26.5 9q-17 0 -28 -12.5t-11 -34.5h-45z" />
    <glyph glyph-name="Imacron" unicode="&#x12a;" horiz-adv-x="270" 
d="M103 688h64v-688h-64v688zM-10 859h290v-47h-290v47z" />
    <glyph glyph-name="imacron" unicode="&#x12b;" horiz-adv-x="229" 
d="M83 500h63v-500h-63v500zM-31 671h290v-47h-290v47z" />
    <glyph glyph-name="Ibreve" unicode="&#x12c;" horiz-adv-x="270" 
d="M103 688h64v-688h-64v688zM52 907q0 -38 23.5 -62.5t59.5 -24.5t59.5 24.5t23.5 62.5h47q0 -30 -9.5 -55.5t-27 -43.5t-41.5 -28t-52 -10q-29 0 -52.5 10t-41 28t-27 43.5t-9.5 55.5h47z" />
    <glyph glyph-name="ibreve" unicode="&#x12d;" horiz-adv-x="229" 
d="M83 500h63v-500h-63v500zM31 719q0 -38 23.5 -62.5t59.5 -24.5t59.5 24.5t23.5 62.5h47q0 -30 -9.5 -55.5t-27 -43.5t-41.5 -28t-52 -10q-29 0 -52.5 10t-41 28t-27 43.5t-9.5 55.5h47z" />
    <glyph glyph-name="Iogonek" unicode="&#x12e;" horiz-adv-x="277" 
d="M107 688h64v-688q-45 -26 -68.5 -56t-23.5 -62q0 -23 14 -37t36 -14q11 0 21.5 2.5t20.5 8.5v-46q-25 -13 -54 -13q-42 0 -67.5 25t-25.5 63q0 73 93 129h-10v688z" />
    <glyph glyph-name="iogonek" unicode="&#x12f;" horiz-adv-x="229" 
d="M83 500h63v-500q-45 -26 -68.5 -56t-23.5 -62q0 -23 14 -37t36 -14q11 0 21.5 2.5t20.5 8.5v-46q-25 -13 -54 -13q-42 0 -67.5 25t-25.5 63q0 73 93 129h-9v500zM73 647q0 19 11.5 30t29.5 11q19 0 30.5 -11t11.5 -30q0 -18 -11.5 -29.5t-30.5 -11.5q-18 0 -29.5 11.5
t-11.5 29.5z" />
    <glyph glyph-name="Idotaccent" unicode="&#x130;" horiz-adv-x="270" 
d="M103 688h64v-688h-64v688zM94 835q0 19 11.5 30t29.5 11q19 0 30 -11t11 -30q0 -18 -11 -29.5t-30 -11.5q-18 0 -29.5 11.5t-11.5 29.5z" />
    <glyph glyph-name="dotlessi" unicode="&#x131;" horiz-adv-x="229" 
d="M83 500h63v-500h-63v500z" />
    <glyph glyph-name="Jcircumflex" unicode="&#x134;" horiz-adv-x="458" 
d="M358 174q0 -41 -14.5 -75t-40 -59t-60.5 -38.5t-77 -13.5q-62 0 -129 32v62q68 -40 122 -40q30 0 54.5 10t42.5 28t28 43t10 55v510h64v-514zM301 907h51l99 -144h-54l-71 93l-71 -93h-54z" />
    <glyph glyph-name="jcircumflex" unicode="&#x135;" horiz-adv-x="229" 
d="M146 -90q0 -31 -10.5 -57t-30 -44.5t-46.5 -29t-59 -10.5q-44 0 -96 24v56q48 -28 87 -28q42 0 67 26t25 68v585h63v-590zM89 719h51l99 -144h-54l-71 93l-71 -93h-54z" />
    <glyph glyph-name="Kcommaaccent" unicode="&#x136;" horiz-adv-x="600" 
d="M103 688h63v-321l325 321h82l-339 -338l349 -350h-85l-332 333v-333h-63v688zM282 -74h59l-69 -168h-52z" />
    <glyph glyph-name="kcommaaccent" unicode="&#x137;" horiz-adv-x="470" 
d="M83 719h62v-444l219 225h78l-239 -246l247 -254h-81l-224 233v-233h-62v719zM219 -74h59l-69 -168h-52z" />
    <glyph glyph-name="kgreenlandic" unicode="&#x138;" horiz-adv-x="470" 
d="M83 500h62v-225l219 225h78l-239 -246l247 -254h-81l-224 233v-233h-62v500z" />
    <glyph glyph-name="Lacute" unicode="&#x139;" horiz-adv-x="497" 
d="M103 688h64v-636h306v-52h-370v688zM190 907h69l-112 -144h-56z" />
    <glyph glyph-name="lacute" unicode="&#x13a;" horiz-adv-x="229" 
d="M83 719h63v-719h-63v719zM169 938h69l-112 -144h-56z" />
    <glyph glyph-name="Lcommaaccent" unicode="&#x13b;" horiz-adv-x="497" 
d="M103 688h64v-636h306v-52h-370v688zM249 -74h59l-69 -168h-52z" />
    <glyph glyph-name="lcommaaccent" unicode="&#x13c;" horiz-adv-x="229" 
d="M83 719h63v-719h-63v719zM91 -74h59l-69 -168h-52z" />
    <glyph glyph-name="Lcaron" unicode="&#x13d;" horiz-adv-x="497" 
d="M103 688h64v-636h306v-52h-370v688zM307 719h59l-61 -144h-51z" />
    <glyph glyph-name="lcaron" unicode="&#x13e;" horiz-adv-x="229" 
d="M83 719h63v-719h-63v719zM270 719h59l-61 -144h-51z" />
    <glyph glyph-name="Ldot" unicode="&#x13f;" horiz-adv-x="497" 
d="M103 688h64v-636h306v-52h-370v688zM342 352q0 19 11.5 30t29.5 11q19 0 30 -11t11 -30q0 -18 -11 -29.5t-30 -11.5q-18 0 -29.5 11.5t-11.5 29.5z" />
    <glyph glyph-name="ldot" unicode="&#x140;" horiz-adv-x="327" 
d="M83 719h63v-719h-63v719zM237 350q0 19 11.5 30t29.5 11q19 0 30 -11t11 -30q0 -18 -11 -29.5t-30 -11.5q-18 0 -29.5 11.5t-11.5 29.5z" />
    <glyph glyph-name="Lslash" unicode="&#x141;" horiz-adv-x="512" 
d="M118 279l-80 -40v53l80 40v356h65v-324l152 77v-53l-152 -77v-259h306v-52h-371v279z" />
    <glyph glyph-name="lslash" unicode="&#x142;" horiz-adv-x="287" 
d="M112 321l-97 -48v53l97 48v345h62v-313l98 48v-53l-98 -48v-353h-62v321z" />
    <glyph glyph-name="Nacute" unicode="&#x143;" horiz-adv-x="732" 
d="M103 688h58l406 -581v581h63v-688h-58l-406 581v-581h-63v688zM422 907h69l-112 -144h-56z" />
    <glyph glyph-name="nacute" unicode="&#x144;" horiz-adv-x="560" 
d="M83 500h63v-59q37 35 78 53t84 18q38 0 70 -13t55 -36t35.5 -54.5t12.5 -69.5v-339h-62v332q0 56 -34.5 91.5t-89.5 35.5q-38 0 -76.5 -19.5t-72.5 -57.5v-382h-63v500zM337 719h69l-112 -144h-56z" />
    <glyph glyph-name="Ncommaaccent" unicode="&#x145;" horiz-adv-x="732" 
d="M103 688h58l406 -581v581h63v-688h-58l-406 581v-581h-63v688zM344 -74h59l-69 -168h-52z" />
    <glyph glyph-name="ncommaaccent" unicode="&#x146;" horiz-adv-x="560" 
d="M83 500h63v-59q37 35 78 53t84 18q38 0 70 -13t55 -36t35.5 -54.5t12.5 -69.5v-339h-62v332q0 56 -34.5 91.5t-89.5 35.5q-38 0 -76.5 -19.5t-72.5 -57.5v-382h-63v500zM259 -74h59l-69 -168h-52z" />
    <glyph glyph-name="Ncaron" unicode="&#x147;" horiz-adv-x="732" 
d="M103 688h58l406 -581v581h63v-688h-58l-406 581v-581h-63v688zM393 763h-51l-100 144h54l71 -92l71 92h54z" />
    <glyph glyph-name="ncaron" unicode="&#x148;" horiz-adv-x="560" 
d="M83 500h63v-59q37 35 78 53t84 18q38 0 70 -13t55 -36t35.5 -54.5t12.5 -69.5v-339h-62v332q0 56 -34.5 91.5t-89.5 35.5q-38 0 -76.5 -19.5t-72.5 -57.5v-382h-63v500zM308 575h-51l-100 144h54l71 -92l71 92h54z" />
    <glyph glyph-name="Eng" unicode="&#x14a;" horiz-adv-x="732" 
d="M103 688h58l406 -581v581h63v-731q0 -42 -14.5 -76.5t-40 -59t-60.5 -38.5t-77 -14q-30 0 -62.5 7.5t-66.5 24.5v62q66 -40 122 -40q30 0 55 10t42.5 28t27.5 43.5t10 56.5v47l-400 573v-581h-63v688z" />
    <glyph glyph-name="eng" unicode="&#x14b;" horiz-adv-x="560" 
d="M83 500h63v-59q37 35 78 53t84 18q38 0 70 -13t55 -36t35.5 -54.5t12.5 -69.5v-429q0 -31 -10.5 -57t-30 -44.5t-46 -29t-58.5 -10.5q-46 0 -95 24v56q47 -28 86 -28q41 0 66.5 26t25.5 68v417q0 56 -34.5 91.5t-89.5 35.5q-38 0 -76.5 -19.5t-72.5 -57.5v-382h-63v500z
" />
    <glyph glyph-name="Omacron" unicode="&#x14c;" horiz-adv-x="732" 
d="M53 344q0 78 23 143.5t64.5 113t99.5 73.5t127 26t126.5 -26t99 -73.5t64.5 -113t23 -143.5t-23 -143.5t-64.5 -113t-99 -73.5t-126.5 -26t-127 26t-99.5 73.5t-64.5 113t-23 143.5zM120 344q0 -66 18 -121.5t50.5 -95.5t78 -62.5t100.5 -22.5q54 0 99.5 22.5t78 62.5
t50.5 95.5t18 121.5t-18 121.5t-50.5 95.5t-78 62.5t-99.5 22.5q-55 0 -100.5 -22.5t-78 -62.5t-50.5 -95.5t-18 -121.5zM221 859h290v-47h-290v47z" />
    <glyph glyph-name="omacron" unicode="&#x14d;" horiz-adv-x="560" 
d="M45 250q0 58 17.5 106t48.5 82.5t74.5 54t95.5 19.5q51 0 94 -19.5t74 -54t48.5 -82.5t17.5 -106t-17.5 -106t-48.5 -82.5t-74 -54t-94 -19.5q-52 0 -95.5 19.5t-74.5 54t-48.5 82.5t-17.5 106zM110 250q0 -47 12.5 -85.5t35 -66t54 -43t69.5 -15.5q37 0 68.5 15.5t54 43
t35 66t12.5 85.5q0 46 -12.5 85t-35 66.5t-54 43t-68.5 15.5q-38 0 -69.5 -15.5t-54 -43t-35 -66.5t-12.5 -85zM135 671h290v-47h-290v47z" />
    <glyph glyph-name="Obreve" unicode="&#x14e;" horiz-adv-x="732" 
d="M53 344q0 78 23 143.5t64.5 113t99.5 73.5t127 26t126.5 -26t99 -73.5t64.5 -113t23 -143.5t-23 -143.5t-64.5 -113t-99 -73.5t-126.5 -26t-127 26t-99.5 73.5t-64.5 113t-23 143.5zM120 344q0 -66 18 -121.5t50.5 -95.5t78 -62.5t100.5 -22.5q54 0 99.5 22.5t78 62.5
t50.5 95.5t18 121.5t-18 121.5t-50.5 95.5t-78 62.5t-99.5 22.5q-55 0 -100.5 -22.5t-78 -62.5t-50.5 -95.5t-18 -121.5zM284 907q0 -38 23.5 -62.5t59.5 -24.5t59.5 24.5t23.5 62.5h47q0 -30 -9.5 -55.5t-27 -43.5t-41.5 -28t-52 -10q-29 0 -52.5 10t-41 28t-27 43.5
t-9.5 55.5h47z" />
    <glyph glyph-name="obreve" unicode="&#x14f;" horiz-adv-x="560" 
d="M45 250q0 58 17.5 106t48.5 82.5t74.5 54t95.5 19.5q51 0 94 -19.5t74 -54t48.5 -82.5t17.5 -106t-17.5 -106t-48.5 -82.5t-74 -54t-94 -19.5q-52 0 -95.5 19.5t-74.5 54t-48.5 82.5t-17.5 106zM110 250q0 -47 12.5 -85.5t35 -66t54 -43t69.5 -15.5q37 0 68.5 15.5t54 43
t35 66t12.5 85.5q0 46 -12.5 85t-35 66.5t-54 43t-68.5 15.5q-38 0 -69.5 -15.5t-54 -43t-35 -66.5t-12.5 -85zM197 719q0 -38 23.5 -62.5t59.5 -24.5t59.5 24.5t23.5 62.5h47q0 -30 -9.5 -55.5t-27 -43.5t-41.5 -28t-52 -10q-29 0 -52.5 10t-41 28t-27 43.5t-9.5 55.5h47z
" />
    <glyph glyph-name="Ohungarumlaut" unicode="&#x150;" horiz-adv-x="732" 
d="M53 344q0 78 23 143.5t64.5 113t99.5 73.5t127 26t126.5 -26t99 -73.5t64.5 -113t23 -143.5t-23 -143.5t-64.5 -113t-99 -73.5t-126.5 -26t-127 26t-99.5 73.5t-64.5 113t-23 143.5zM120 344q0 -66 18 -121.5t50.5 -95.5t78 -62.5t100.5 -22.5q54 0 99.5 22.5t78 62.5
t50.5 95.5t18 121.5t-18 121.5t-50.5 95.5t-78 62.5t-99.5 22.5q-55 0 -100.5 -22.5t-78 -62.5t-50.5 -95.5t-18 -121.5zM504 907h70l-113 -144h-57zM341 907h69l-113 -144h-56z" />
    <glyph glyph-name="ohungarumlaut" unicode="&#x151;" horiz-adv-x="560" 
d="M45 250q0 58 17.5 106t48.5 82.5t74.5 54t95.5 19.5q51 0 94 -19.5t74 -54t48.5 -82.5t17.5 -106t-17.5 -106t-48.5 -82.5t-74 -54t-94 -19.5q-52 0 -95.5 19.5t-74.5 54t-48.5 82.5t-17.5 106zM110 250q0 -47 12.5 -85.5t35 -66t54 -43t69.5 -15.5q37 0 68.5 15.5t54 43
t35 66t12.5 85.5q0 46 -12.5 85t-35 66.5t-54 43t-68.5 15.5q-38 0 -69.5 -15.5t-54 -43t-35 -66.5t-12.5 -85zM417 719h70l-113 -144h-57zM254 719h69l-113 -144h-56z" />
    <glyph glyph-name="OE" unicode="&#x152;" horiz-adv-x="954" 
d="M893 636h-322v-261h282v-51h-282v-272h329v-52h-514q-73 0 -134 25.5t-105.5 71t-69 108.5t-24.5 139t24.5 139t69 108.5t105.5 71t134 25.5h507v-52zM507 636h-116q-60 0 -110 -21.5t-85.5 -60t-55.5 -92.5t-20 -118t20 -117.5t55.5 -92.5t85.5 -60.5t110 -21.5h116v584
z" />
    <glyph glyph-name="oe" unicode="&#x153;" horiz-adv-x="919" 
d="M45 250q0 58 17.5 106t48.5 82.5t74.5 54t95.5 19.5q68 0 120 -34t81 -92q28 58 78.5 92t116.5 34q46 0 83 -18t63 -50.5t40 -77t14 -97.5q0 -8 -0.5 -15.5t-0.5 -15.5h-362q2 -44 16.5 -81t38.5 -63t57.5 -40.5t72.5 -14.5q35 0 72 12.5t74 35.5v-60
q-38 -20 -76.5 -29.5t-76.5 -9.5q-72 0 -125.5 34.5t-83.5 93.5q-29 -59 -81.5 -93.5t-120.5 -34.5q-52 0 -95.5 19.5t-74.5 54t-48.5 82.5t-17.5 106zM110 250q0 -47 12.5 -85.5t35 -66t54 -43t69.5 -15.5q37 0 68.5 15.5t54 43t35 66t12.5 85.5q0 46 -12.5 85t-35 66.5
t-54 43t-68.5 15.5q-38 0 -69.5 -15.5t-54 -43t-35 -66.5t-12.5 -85zM814 285q0 39 -10 71t-28.5 55.5t-44 36.5t-56.5 13q-33 0 -61.5 -13t-50 -36t-34.5 -55.5t-15 -71.5h300z" />
    <glyph glyph-name="Racute" unicode="&#x154;" horiz-adv-x="599" 
d="M166 329h127q37 0 68 11.5t53 32t34.5 48.5t12.5 62t-12.5 62t-34.5 48t-53 31.5t-68 11.5h-127v-307zM103 688h199q50 0 91.5 -15t71.5 -42t46.5 -65t16.5 -83q0 -76 -43.5 -128.5t-119.5 -69.5l180 -285h-73l-175 277h-131v-277h-63v688zM355 907h69l-112 -144h-56z
" />
    <glyph glyph-name="racute" unicode="&#x155;" horiz-adv-x="372" 
d="M83 500h63v-63q30 36 67 55.5t76 19.5q12 0 24.5 -1.5t26.5 -6.5v-58q-26 10 -55 10q-38 0 -73.5 -21t-65.5 -62v-373h-63v500zM260 719h69l-112 -144h-56z" />
    <glyph glyph-name="Rcommaaccent" unicode="&#x156;" horiz-adv-x="599" 
d="M166 329h127q37 0 68 11.5t53 32t34.5 48.5t12.5 62t-12.5 62t-34.5 48t-53 31.5t-68 11.5h-127v-307zM103 688h199q50 0 91.5 -15t71.5 -42t46.5 -65t16.5 -83q0 -76 -43.5 -128.5t-119.5 -69.5l180 -285h-73l-175 277h-131v-277h-63v688zM277 -74h59l-69 -168h-52z" />
    <glyph glyph-name="rcommaaccent" unicode="&#x157;" horiz-adv-x="372" 
d="M83 500h63v-63q30 36 67 55.5t76 19.5q12 0 24.5 -1.5t26.5 -6.5v-58q-26 10 -55 10q-38 0 -73.5 -21t-65.5 -62v-373h-63v500zM91 -74h59l-69 -168h-52z" />
    <glyph glyph-name="Rcaron" unicode="&#x158;" horiz-adv-x="599" 
d="M166 329h127q37 0 68 11.5t53 32t34.5 48.5t12.5 62t-12.5 62t-34.5 48t-53 31.5t-68 11.5h-127v-307zM103 688h199q50 0 91.5 -15t71.5 -42t46.5 -65t16.5 -83q0 -76 -43.5 -128.5t-119.5 -69.5l180 -285h-73l-175 277h-131v-277h-63v688zM326 763h-51l-100 144h54
l71 -92l71 92h54z" />
    <glyph glyph-name="rcaron" unicode="&#x159;" horiz-adv-x="372" 
d="M83 500h63v-63q30 36 67 55.5t76 19.5q12 0 24.5 -1.5t26.5 -6.5v-58q-26 10 -55 10q-38 0 -73.5 -21t-65.5 -62v-373h-63v500zM231 575h-51l-100 144h54l71 -92l71 92h54z" />
    <glyph glyph-name="Sacute" unicode="&#x15a;" horiz-adv-x="540" 
d="M69 106q46 -31 93 -48t92 -17q37 0 68 10t53 28t34.5 43t12.5 55q0 47 -27 74t-67.5 44.5t-88 32.5t-88 36.5t-67.5 56.5t-27 94q0 41 16.5 75t46 58.5t70.5 38t91 13.5q86 0 174 -41v-67q-87 55 -169 55q-37 0 -67.5 -9.5t-52 -26.5t-33.5 -41t-12 -53q0 -46 27 -72
t67.5 -44t88 -32.5t88 -37t67.5 -58t27 -94.5q0 -42 -16.5 -77.5t-46.5 -60.5t-72 -39t-92 -14q-48 0 -95.5 12t-94.5 37v69zM325 907h69l-112 -144h-56z" />
    <glyph glyph-name="sacute" unicode="&#x15b;" horiz-adv-x="418" 
d="M58 86q68 -47 138 -47q50 0 82.5 25t32.5 66q0 32 -19.5 50.5t-48.5 31t-63 23t-63 26.5t-48.5 42t-19.5 69q0 31 12.5 57t35 44.5t53.5 28.5t68 10q65 0 131 -29v-61q-63 39 -126 39q-49 0 -80.5 -24t-31.5 -63q0 -31 19.5 -49t48.5 -30t63 -22.5t63 -27t48.5 -43
t19.5 -70.5q0 -32 -12.5 -58.5t-35.5 -45.5t-55 -29.5t-70 -10.5q-70 0 -142 35v63zM264 719h69l-112 -144h-56z" />
    <glyph glyph-name="Scircumflex" unicode="&#x15c;" horiz-adv-x="540" 
d="M69 106q46 -31 93 -48t92 -17q37 0 68 10t53 28t34.5 43t12.5 55q0 47 -27 74t-67.5 44.5t-88 32.5t-88 36.5t-67.5 56.5t-27 94q0 41 16.5 75t46 58.5t70.5 38t91 13.5q86 0 174 -41v-67q-87 55 -169 55q-37 0 -67.5 -9.5t-52 -26.5t-33.5 -41t-12 -53q0 -46 27 -72
t67.5 -44t88 -32.5t88 -37t67.5 -58t27 -94.5q0 -42 -16.5 -77.5t-46.5 -60.5t-72 -39t-92 -14q-48 0 -95.5 12t-94.5 37v69zM245 907h51l99 -144h-54l-71 93l-71 -93h-54z" />
    <glyph glyph-name="scircumflex" unicode="&#x15d;" horiz-adv-x="418" 
d="M58 86q68 -47 138 -47q50 0 82.5 25t32.5 66q0 32 -19.5 50.5t-48.5 31t-63 23t-63 26.5t-48.5 42t-19.5 69q0 31 12.5 57t35 44.5t53.5 28.5t68 10q65 0 131 -29v-61q-63 39 -126 39q-49 0 -80.5 -24t-31.5 -63q0 -31 19.5 -49t48.5 -30t63 -22.5t63 -27t48.5 -43
t19.5 -70.5q0 -32 -12.5 -58.5t-35.5 -45.5t-55 -29.5t-70 -10.5q-70 0 -142 35v63zM184 719h51l99 -144h-54l-71 93l-71 -93h-54z" />
    <glyph glyph-name="Scedilla" unicode="&#x15e;" horiz-adv-x="540" 
d="M69 106q46 -31 93 -48t92 -17q37 0 68 10t53 28t34.5 43t12.5 55q0 47 -27 74t-67.5 44.5t-88 32.5t-88 36.5t-67.5 56.5t-27 94q0 41 16.5 75t46 58.5t70.5 38t91 13.5q86 0 174 -41v-67q-87 55 -169 55q-37 0 -67.5 -9.5t-52 -26.5t-33.5 -41t-12 -53q0 -46 27 -72
t67.5 -44t88 -32.5t88 -37t67.5 -58t27 -94.5q0 -38 -13.5 -70t-38 -56.5t-58.5 -40.5t-76 -21l-12 -52q34 -6 54 -29t20 -52q0 -39 -31.5 -64t-80.5 -25q-19 0 -37 4.5t-35 15.5v48q34 -23 67 -23q29 0 45.5 12.5t16.5 32.5q0 23 -18 36t-51 13h-8l20 80q-45 2 -90.5 13.5
t-90.5 35.5v69z" />
    <glyph glyph-name="scedilla" unicode="&#x15f;" horiz-adv-x="418" 
d="M58 86q68 -47 138 -47q49 0 82 25t33 66q0 32 -19.5 50.5t-48.5 31t-63 23t-63 26.5t-48.5 42t-19.5 69q0 31 12.5 57t35 44.5t53.5 28.5t68 10q65 0 131 -29v-61q-63 39 -126 39q-49 0 -80.5 -23.5t-31.5 -63.5q0 -31 19.5 -49t48.5 -30t63 -22.5t63 -27t48.5 -43
t19.5 -70.5q0 -56 -36.5 -93t-97.5 -47l-12 -53q35 -6 54.5 -29t19.5 -52q0 -39 -31 -64t-79 -25q-19 0 -38 4.5t-36 15.5v48q37 -23 68 -23q29 0 45 12.5t16 32.5q0 23 -17.5 36t-51.5 13h-7l20 80q-70 3 -132 35v63z" />
    <glyph glyph-name="Scaron" unicode="&#x160;" horiz-adv-x="540" 
d="M69 106q46 -31 93 -48t92 -17q37 0 68 10t53 28t34.5 43t12.5 55q0 47 -27 74t-67.5 44.5t-88 32.5t-88 36.5t-67.5 56.5t-27 94q0 41 16.5 75t46 58.5t70.5 38t91 13.5q86 0 174 -41v-67q-87 55 -169 55q-37 0 -67.5 -9.5t-52 -26.5t-33.5 -41t-12 -53q0 -46 27 -72
t67.5 -44t88 -32.5t88 -37t67.5 -58t27 -94.5q0 -42 -16.5 -77.5t-46.5 -60.5t-72 -39t-92 -14q-48 0 -95.5 12t-94.5 37v69zM296 763h-51l-100 144h54l71 -92l71 92h54z" />
    <glyph glyph-name="scaron" unicode="&#x161;" horiz-adv-x="418" 
d="M58 86q68 -47 138 -47q50 0 82.5 25t32.5 66q0 32 -19.5 50.5t-48.5 31t-63 23t-63 26.5t-48.5 42t-19.5 69q0 31 12.5 57t35 44.5t53.5 28.5t68 10q65 0 131 -29v-61q-63 39 -126 39q-49 0 -80.5 -24t-31.5 -63q0 -31 19.5 -49t48.5 -30t63 -22.5t63 -27t48.5 -43
t19.5 -70.5q0 -32 -12.5 -58.5t-35.5 -45.5t-55 -29.5t-70 -10.5q-70 0 -142 35v63zM235 575h-51l-100 144h54l71 -92l71 92h54z" />
    <glyph glyph-name="Tcommaaccent" unicode="&#x162;" horiz-adv-x="583" 
d="M259 636h-229v52h522v-52h-228v-636h-65v636zM268 -74h59l-69 -168h-52z" />
    <glyph glyph-name="tcommaaccent" unicode="&#x163;" horiz-adv-x="402" 
d="M184 500h179v-50h-179v-316q0 -42 25 -68t67 -26q37 0 87 28v-56q-53 -24 -96 -24q-32 0 -59 10.5t-46.5 29t-30 44.5t-10.5 57v321h-99v50h99v141h63v-141zM209 -74h59l-69 -168h-52z" />
    <glyph glyph-name="Tcaron" unicode="&#x164;" horiz-adv-x="583" 
d="M259 636h-229v52h522v-52h-228v-636h-65v636zM317 763h-51l-100 144h54l71 -92l71 92h54z" />
    <glyph glyph-name="tcaron" unicode="&#x165;" horiz-adv-x="402" 
d="M184 500h179v-50h-179v-316q0 -42 25 -68t67 -26q37 0 87 28v-56q-53 -24 -96 -24q-32 0 -59 10.5t-46.5 29t-30 44.5t-10.5 57v321h-99v50h99v141h63v-141zM314 719h59l-61 -144h-51z" />
    <glyph glyph-name="Tbar" unicode="&#x166;" horiz-adv-x="583" 
d="M259 314h-144v47h144v275h-229v52h522v-52h-228v-275h142v-47h-142v-314h-65v314z" />
    <glyph glyph-name="tbar" unicode="&#x167;" horiz-adv-x="402" 
d="M184 500h179v-50h-179v-172h163v-47h-163v-97q0 -42 25 -68t67 -26q37 0 87 28v-56q-53 -24 -96 -24q-32 0 -59 10.5t-46.5 29t-30 44.5t-10.5 57v102h-91v47h91v172h-99v50h99v141h63v-141z" />
    <glyph glyph-name="Utilde" unicode="&#x168;" horiz-adv-x="732" 
d="M634 251q0 -58 -20 -106t-55 -83t-84.5 -54.5t-107.5 -19.5q-59 0 -108 19.5t-84.5 54.5t-55.5 83t-20 106v437h64v-432q0 -47 15 -86t42 -67.5t64.5 -44.5t82.5 -16q44 0 81.5 16t64.5 44.5t42 67.5t15 86v432h64v-437zM224 793q0 42 23 68.5t59 26.5q19 0 35.5 -9
t30.5 -19.5t27.5 -19.5t26.5 -9q17 0 28 12.5t11 33.5h45q0 -42 -22.5 -68t-58.5 -26q-20 0 -36 9t-30.5 19.5t-28 19.5t-26.5 9q-17 0 -28 -12.5t-11 -34.5h-45z" />
    <glyph glyph-name="utilde" unicode="&#x169;" horiz-adv-x="560" 
d="M477 0h-62v60q-75 -72 -163 -72q-38 0 -69.5 13t-54.5 36t-36 54.5t-13 69.5v339h63v-332q0 -28 9 -51t25.5 -40t39 -26.5t49.5 -9.5q39 0 77 19.5t73 57.5v382h62v-500zM136 605q0 42 23 68.5t59 26.5q19 0 35.5 -9t30.5 -19.5t27.5 -19.5t26.5 -9q17 0 28 12.5t11 33.5
h45q0 -42 -22.5 -68t-58.5 -26q-20 0 -36 9t-30.5 19.5t-28 19.5t-26.5 9q-17 0 -28 -12.5t-11 -34.5h-45z" />
    <glyph glyph-name="Umacron" unicode="&#x16a;" horiz-adv-x="732" 
d="M634 251q0 -58 -20 -106t-55 -83t-84.5 -54.5t-107.5 -19.5q-59 0 -108 19.5t-84.5 54.5t-55.5 83t-20 106v437h64v-432q0 -47 15 -86t42 -67.5t64.5 -44.5t82.5 -16q44 0 81.5 16t64.5 44.5t42 67.5t15 86v432h64v-437zM222 859h290v-47h-290v47z" />
    <glyph glyph-name="umacron" unicode="&#x16b;" horiz-adv-x="560" 
d="M477 0h-62v60q-75 -72 -163 -72q-38 0 -69.5 13t-54.5 36t-36 54.5t-13 69.5v339h63v-332q0 -28 9 -51t25.5 -40t39 -26.5t49.5 -9.5q39 0 77 19.5t73 57.5v382h62v-500zM134 671h290v-47h-290v47z" />
    <glyph glyph-name="Ubreve" unicode="&#x16c;" horiz-adv-x="732" 
d="M634 251q0 -58 -20 -106t-55 -83t-84.5 -54.5t-107.5 -19.5q-59 0 -108 19.5t-84.5 54.5t-55.5 83t-20 106v437h64v-432q0 -47 15 -86t42 -67.5t64.5 -44.5t82.5 -16q44 0 81.5 16t64.5 44.5t42 67.5t15 86v432h64v-437zM284 907q0 -38 23.5 -62.5t59.5 -24.5t59.5 24.5
t23.5 62.5h47q0 -30 -9.5 -55.5t-27 -43.5t-41.5 -28t-52 -10q-29 0 -52.5 10t-41 28t-27 43.5t-9.5 55.5h47z" />
    <glyph glyph-name="ubreve" unicode="&#x16d;" horiz-adv-x="560" 
d="M477 0h-62v60q-75 -72 -163 -72q-38 0 -69.5 13t-54.5 36t-36 54.5t-13 69.5v339h63v-332q0 -28 9 -51t25.5 -40t39 -26.5t49.5 -9.5q39 0 77 19.5t73 57.5v382h62v-500zM196 719q0 -38 23.5 -62.5t59.5 -24.5t59.5 24.5t23.5 62.5h47q0 -30 -9.5 -55.5t-27 -43.5
t-41.5 -28t-52 -10q-29 0 -52.5 10t-41 28t-27 43.5t-9.5 55.5h47z" />
    <glyph glyph-name="Uring" unicode="&#x16e;" horiz-adv-x="732" 
d="M634 251q0 -58 -20 -106t-55 -83t-84.5 -54.5t-107.5 -19.5q-59 0 -108 19.5t-84.5 54.5t-55.5 83t-20 106v437h64v-432q0 -47 15 -86t42 -67.5t64.5 -44.5t82.5 -16q44 0 81.5 16t64.5 44.5t42 67.5t15 86v432h64v-437zM274 835q0 42 26 67.5t67 25.5q42 0 67.5 -25.5
t25.5 -67.5q0 -41 -25.5 -66.5t-67.5 -25.5q-41 0 -67 25.5t-26 66.5zM313 835q0 -23 15.5 -38.5t38.5 -15.5t38.5 15.5t15.5 38.5q0 24 -15.5 39t-38.5 15t-38.5 -15t-15.5 -39z" />
    <glyph glyph-name="uring" unicode="&#x16f;" horiz-adv-x="560" 
d="M477 0h-62v60q-75 -72 -163 -72q-38 0 -69.5 13t-54.5 36t-36 54.5t-13 69.5v339h63v-332q0 -28 9 -51t25.5 -40t39 -26.5t49.5 -9.5q39 0 77 19.5t73 57.5v382h62v-500zM186 647q0 42 26 67.5t67 25.5q42 0 67.5 -25.5t25.5 -67.5q0 -41 -25.5 -66.5t-67.5 -25.5
q-41 0 -67 25.5t-26 66.5zM225 647q0 -23 15.5 -38.5t38.5 -15.5t38.5 15.5t15.5 38.5q0 24 -15.5 39t-38.5 15t-38.5 -15t-15.5 -39z" />
    <glyph glyph-name="Uhungarumlaut" unicode="&#x170;" horiz-adv-x="732" 
d="M634 251q0 -58 -20 -106t-55 -83t-84.5 -54.5t-107.5 -19.5q-59 0 -108 19.5t-84.5 54.5t-55.5 83t-20 106v437h64v-432q0 -47 15 -86t42 -67.5t64.5 -44.5t82.5 -16q44 0 81.5 16t64.5 44.5t42 67.5t15 86v432h64v-437zM504 907h70l-113 -144h-57zM341 907h69l-113 -144
h-56z" />
    <glyph glyph-name="uhungarumlaut" unicode="&#x171;" horiz-adv-x="560" 
d="M477 0h-62v60q-75 -72 -163 -72q-38 0 -69.5 13t-54.5 36t-36 54.5t-13 69.5v339h63v-332q0 -28 9 -51t25.5 -40t39 -26.5t49.5 -9.5q39 0 77 19.5t73 57.5v382h62v-500zM416 719h70l-113 -144h-57zM253 719h69l-113 -144h-56z" />
    <glyph glyph-name="Uogonek" unicode="&#x172;" horiz-adv-x="732" 
d="M634 251q0 -78 -33.5 -134t-92.5 -94q-63 -40 -92 -74t-29 -67q0 -23 13.5 -37t36.5 -14q24 0 41 11v-46q-23 -13 -53 -13q-41 0 -67 25t-26 63q0 31 17.5 61t60.5 60q-11 -2 -21.5 -3t-21.5 -1q-59 0 -108 19.5t-84.5 54.5t-55.5 83t-20 106v437h64v-432q0 -47 15 -86
t42 -67.5t64.5 -44.5t82.5 -16t82 16t64 44.5t42 67.5t15 86v432h64v-437z" />
    <glyph glyph-name="uogonek" unicode="&#x173;" horiz-adv-x="560" 
d="M415 0v60q-75 -72 -163 -72q-38 0 -69.5 13t-54.5 36t-36 54.5t-13 69.5v339h63v-332q0 -28 9 -51t25.5 -40t39 -26.5t49.5 -9.5q39 0 77 19.5t73 57.5v382h62v-500q-45 -26 -68.5 -56t-23.5 -62q0 -23 14 -37t36 -14q11 0 21.5 2.5t20.5 8.5v-46q-25 -13 -54 -13
q-42 0 -67.5 25t-25.5 63q0 73 93 129h-8z" />
    <glyph glyph-name="Wcircumflex" unicode="&#x174;" horiz-adv-x="1022" 
d="M765 0h-55l-199 602l-198 -602h-56l-235 688h65l199 -602l197 602h56l198 -602l198 602h64zM486 907h51l99 -144h-54l-71 93l-71 -93h-54z" />
    <glyph glyph-name="wcircumflex" unicode="&#x175;" horiz-adv-x="771" 
d="M577 0h-55l-136 418l-136 -418h-55l-171 500h63l136 -418l136 418h55l135 -418l136 418h62zM361 719h51l99 -144h-54l-71 93l-71 -93h-54z" />
    <glyph glyph-name="Ycircumflex" unicode="&#x176;" horiz-adv-x="586" 
d="M261 302l-248 386h74l206 -328l206 328h74l-248 -386v-302h-64v302zM268 907h51l99 -144h-54l-71 93l-71 -93h-54z" />
    <glyph glyph-name="ycircumflex" unicode="&#x177;" horiz-adv-x="490" 
d="M184 -219h-61l92 230l-195 489h65l160 -413l161 413h63zM220 719h51l99 -144h-54l-71 93l-71 -93h-54z" />
    <glyph glyph-name="Ydieresis" unicode="&#x178;" horiz-adv-x="586" 
d="M261 302l-248 386h74l206 -328l206 328h74l-248 -386v-302h-64v302zM352 835q0 19 11 30t29 11t29.5 -11t11.5 -30q0 -17 -11.5 -29t-29.5 -12t-29 12t-11 29zM153 835q0 19 11.5 30t29.5 11t29.5 -11t11.5 -30q0 -17 -11.5 -29t-29.5 -12t-29.5 12t-11.5 29z" />
    <glyph glyph-name="Zacute" unicode="&#x179;" horiz-adv-x="614" 
d="M44 42l430 594h-409v52h488v-42l-429 -594h435v-52h-515v42zM362 907h69l-112 -144h-56z" />
    <glyph glyph-name="zacute" unicode="&#x17a;" horiz-adv-x="473" 
d="M42 38l299 412h-283v50h360v-38l-298 -412h302v-50h-380v38zM291 719h69l-112 -144h-56z" />
    <glyph glyph-name="Zdotaccent" unicode="&#x17b;" horiz-adv-x="614" 
d="M44 42l430 594h-409v52h488v-42l-429 -594h435v-52h-515v42zM266 835q0 19 11.5 30t29.5 11q19 0 30 -11t11 -30q0 -18 -11 -29.5t-30 -11.5q-18 0 -29.5 11.5t-11.5 29.5z" />
    <glyph glyph-name="zdotaccent" unicode="&#x17c;" horiz-adv-x="473" 
d="M42 38l299 412h-283v50h360v-38l-298 -412h302v-50h-380v38zM195 647q0 19 11.5 30t29.5 11q19 0 30 -11t11 -30q0 -18 -11 -29.5t-30 -11.5q-18 0 -29.5 11.5t-11.5 29.5z" />
    <glyph glyph-name="Zcaron" unicode="&#x17d;" horiz-adv-x="614" 
d="M44 42l430 594h-409v52h488v-42l-429 -594h435v-52h-515v42zM333 763h-51l-100 144h54l71 -92l71 92h54z" />
    <glyph glyph-name="zcaron" unicode="&#x17e;" horiz-adv-x="473" 
d="M42 38l299 412h-283v50h360v-38l-298 -412h302v-50h-380v38zM262 575h-51l-100 144h54l71 -92l71 92h54z" />
    <glyph glyph-name="florin" unicode="&#x192;" 
d="M129 433h112v130q0 30 10.5 55t30 43.5t45.5 28.5t58 10q40 0 78 -16v-59q-35 21 -69 21q-39 0 -63.5 -25t-24.5 -63v-125h142v-50h-142v-383q0 -30 -10.5 -55t-30 -43.5t-46 -28.5t-57.5 -10q-19 0 -38.5 4t-39.5 12v60q34 -22 69 -22q40 0 64 25t24 63v378h-112v50z
" />
    <glyph glyph-name="Scommaaccent" unicode="&#x218;" horiz-adv-x="540" 
d="M69 106q46 -31 93 -48t92 -17q37 0 68 10t53 28t34.5 43t12.5 55q0 47 -27 74t-67.5 44.5t-88 32.5t-88 36.5t-67.5 56.5t-27 94q0 41 16.5 75t46 58.5t70.5 38t91 13.5q86 0 174 -41v-67q-87 55 -169 55q-37 0 -67.5 -9.5t-52 -26.5t-33.5 -41t-12 -53q0 -46 27 -72
t67.5 -44t88 -32.5t88 -37t67.5 -58t27 -94.5q0 -42 -16.5 -77.5t-46.5 -60.5t-72 -39t-92 -14q-48 0 -95.5 12t-94.5 37v69zM247 -74h59l-69 -168h-52z" />
    <glyph glyph-name="scommaaccent" unicode="&#x219;" horiz-adv-x="418" 
d="M58 86q68 -47 138 -47q50 0 82.5 25t32.5 66q0 32 -19.5 50.5t-48.5 31t-63 23t-63 26.5t-48.5 42t-19.5 69q0 31 12.5 57t35 44.5t53.5 28.5t68 10q65 0 131 -29v-61q-63 39 -126 39q-49 0 -80.5 -24t-31.5 -63q0 -31 19.5 -49t48.5 -30t63 -22.5t63 -27t48.5 -43
t19.5 -70.5q0 -32 -12.5 -58.5t-35.5 -45.5t-55 -29.5t-70 -10.5q-70 0 -142 35v63zM186 -74h59l-69 -168h-52z" />
    <glyph glyph-name="uni021A" unicode="&#x21a;" horiz-adv-x="583" 
d="M259 636h-229v52h522v-52h-228v-636h-65v636zM268 -74h59l-69 -168h-52z" />
    <glyph glyph-name="uni021B" unicode="&#x21b;" horiz-adv-x="402" 
d="M184 500h179v-50h-179v-316q0 -42 25 -68t67 -26q37 0 87 28v-56q-53 -24 -96 -24q-32 0 -59 10.5t-46.5 29t-30 44.5t-10.5 57v321h-99v50h99v141h63v-141zM209 -74h59l-69 -168h-52z" />
    <glyph glyph-name="uni0237" unicode="&#x237;" horiz-adv-x="229" 
d="M146 -90q0 -31 -10.5 -57t-30 -44.5t-46.5 -29t-59 -10.5q-44 0 -96 24v56q48 -28 87 -28q42 0 67 26t25 68v585h63v-590z" />
    <glyph glyph-name="circumflex" unicode="&#x2c6;" horiz-adv-x="250" 
d="M100 719h51l99 -144h-54l-71 93l-71 -93h-54z" />
    <glyph glyph-name="caron" unicode="&#x2c7;" horiz-adv-x="250" 
d="M151 575h-51l-100 144h54l71 -92l71 92h54z" />
    <glyph glyph-name="uni02C9" unicode="&#x2c9;" horiz-adv-x="250" 
d="M-20 671h290v-47h-290v47z" />
    <glyph glyph-name="breve" unicode="&#x2d8;" horiz-adv-x="250" 
d="M42 719q0 -38 23.5 -62.5t59.5 -24.5t59.5 24.5t23.5 62.5h47q0 -30 -9.5 -55.5t-27 -43.5t-41.5 -28t-52 -10q-29 0 -52.5 10t-41 28t-27 43.5t-9.5 55.5h47z" />
    <glyph glyph-name="dotaccent" unicode="&#x2d9;" horiz-adv-x="250" 
d="M84 647q0 19 11.5 30t29.5 11q19 0 30 -11t11 -30q0 -18 -11 -29.5t-30 -11.5q-18 0 -29.5 11.5t-11.5 29.5z" />
    <glyph glyph-name="ring" unicode="&#x2da;" horiz-adv-x="250" 
d="M32 647q0 42 26 67.5t67 25.5q42 0 67.5 -25.5t25.5 -67.5q0 -41 -25.5 -66.5t-67.5 -25.5q-41 0 -67 25.5t-26 66.5zM71 647q0 -23 15.5 -38.5t38.5 -15.5t38.5 15.5t15.5 38.5q0 24 -15.5 39t-38.5 15t-38.5 -15t-15.5 -39z" />
    <glyph glyph-name="ogonek" unicode="&#x2db;" horiz-adv-x="250" 
d="M156 0q-45 -26 -68.5 -56t-23.5 -62q0 -23 14 -37t36 -14q11 0 21.5 2.5t20.5 8.5v-46q-25 -13 -54 -13q-42 0 -67.5 25t-25.5 63q0 73 93 129h54z" />
    <glyph glyph-name="tilde" unicode="&#x2dc;" horiz-adv-x="250" 
d="M-18 605q0 42 23 68.5t59 26.5q19 0 35.5 -9t30.5 -19.5t27.5 -19.5t26.5 -9q17 0 28 12.5t11 33.5h45q0 -42 -22.5 -68t-58.5 -26q-20 0 -36 9t-30.5 19.5t-28 19.5t-26.5 9q-17 0 -28 -12.5t-11 -34.5h-45z" />
    <glyph glyph-name="hungarumlaut" unicode="&#x2dd;" horiz-adv-x="250" 
d="M262 719h70l-113 -144h-57zM99 719h69l-113 -144h-56z" />
    <glyph glyph-name="Delta" unicode="&#x394;" horiz-adv-x="635" 
d="M31 36l261 652h51l260 -652v-36h-572v36zM104 36h428l-214 557z" />
    <glyph glyph-name="Omega" unicode="&#x3a9;" horiz-adv-x="764" 
d="M45 52h199q-85 68 -130.5 153t-45.5 179q0 69 23 127t65 100t99.5 65.5t126.5 23.5t126.5 -23.5t99 -65.5t64.5 -100t23 -127q0 -94 -45 -179t-130 -153h199v-52h-277v45q91 70 139 154.5t48 174.5q0 60 -18.5 110t-51 86t-78 56t-99.5 20t-99.5 -20t-78.5 -56t-51 -86
t-18 -110q0 -90 48 -174.5t139 -154.5v-45h-277v52z" />
    <glyph glyph-name="mu" unicode="&#x3bc;" horiz-adv-x="564" 
d="M83 500h63v-332q0 -28 9 -51t25.5 -40t39 -26.5t49.5 -9.5q39 0 77 19.5t73 57.5v382h62v-500h-62v60q-73 -71 -158 -71q-67 0 -115 46v-254h-63v719z" />
    <glyph glyph-name="pi" unicode="&#x3c0;" horiz-adv-x="584" 
d="M114 451h-99v49h554v-49h-99v-451h-62v451h-232v-451h-62v451z" />
    <glyph glyph-name="Wgrave" unicode="&#x1e80;" horiz-adv-x="1022" 
d="M765 0h-55l-199 602l-198 -602h-56l-235 688h65l199 -602l197 602h56l198 -602l198 602h64zM387 907h69l99 -144h-56z" />
    <glyph glyph-name="wgrave" unicode="&#x1e81;" horiz-adv-x="771" 
d="M577 0h-55l-136 418l-136 -418h-55l-171 500h63l136 -418l136 418h55l135 -418l136 418h62zM262 719h69l99 -144h-56z" />
    <glyph glyph-name="Wacute" unicode="&#x1e82;" horiz-adv-x="1022" 
d="M765 0h-55l-199 602l-198 -602h-56l-235 688h65l199 -602l197 602h56l198 -602l198 602h64zM566 907h69l-112 -144h-56z" />
    <glyph glyph-name="wacute" unicode="&#x1e83;" horiz-adv-x="771" 
d="M577 0h-55l-136 418l-136 -418h-55l-171 500h63l136 -418l136 418h55l135 -418l136 418h62zM441 719h69l-112 -144h-56z" />
    <glyph glyph-name="Wdieresis" unicode="&#x1e84;" horiz-adv-x="1022" 
d="M765 0h-55l-199 602l-198 -602h-56l-235 688h65l199 -602l197 602h56l198 -602l198 602h64zM570 835q0 19 11 30t29 11t29.5 -11t11.5 -30q0 -17 -11.5 -29t-29.5 -12t-29 12t-11 29zM371 835q0 19 11.5 30t29.5 11t29.5 -11t11.5 -30q0 -17 -11.5 -29t-29.5 -12
t-29.5 12t-11.5 29z" />
    <glyph glyph-name="wdieresis" unicode="&#x1e85;" horiz-adv-x="771" 
d="M577 0h-55l-136 418l-136 -418h-55l-171 500h63l136 -418l136 418h55l135 -418l136 418h62zM445 647q0 19 11 30t29 11t29.5 -11t11.5 -30q0 -17 -11.5 -29t-29.5 -12t-29 12t-11 29zM246 647q0 19 11.5 30t29.5 11t29.5 -11t11.5 -30q0 -17 -11.5 -29t-29.5 -12
t-29.5 12t-11.5 29z" />
    <glyph glyph-name="uni1E9E" unicode="&#x1e9e;" horiz-adv-x="732" 
d="M103 688h537v-42l-165 -239q45 -4 82.5 -21t64.5 -44t42.5 -63t15.5 -78q0 -46 -17 -85t-47 -67.5t-71.5 -44.5t-91.5 -16q-77 0 -156 42v66q78 -54 151 -54q36 0 66.5 12t52.5 33t34.5 50t12.5 64t-13.5 64t-38.5 49.5t-59.5 32t-76.5 11.5h-28v42l164 236h-396v-636
h-63v688z" />
    <glyph glyph-name="Ygrave" unicode="&#x1ef2;" horiz-adv-x="586" 
d="M261 302l-248 386h74l206 -328l206 328h74l-248 -386v-302h-64v302zM169 907h69l99 -144h-56z" />
    <glyph glyph-name="ygrave" unicode="&#x1ef3;" horiz-adv-x="490" 
d="M184 -219h-61l92 230l-195 489h65l160 -413l161 413h63zM121 719h69l99 -144h-56z" />
    <glyph glyph-name="figuredash" unicode="&#x2012;" 
d="M45 367h473v-45h-473v45z" />
    <glyph glyph-name="endash" unicode="&#x2013;" horiz-adv-x="500" 
d="M37 279h426v-49h-426v49z" />
    <glyph glyph-name="emdash" unicode="&#x2014;" horiz-adv-x="1000" 
d="M37 279h926v-49h-926v49z" />
    <glyph glyph-name="quoteleft" unicode="&#x2018;" horiz-adv-x="250" 
d="M120 491h-62l82 197h53z" />
    <glyph glyph-name="quoteright" unicode="&#x2019;" horiz-adv-x="250" 
d="M130 688h63l-82 -197h-53z" />
    <glyph glyph-name="quotesinglbase" unicode="&#x201a;" horiz-adv-x="250" 
d="M100 72h62l-82 -197h-54z" />
    <glyph glyph-name="quotedblleft" unicode="&#x201c;" horiz-adv-x="412" 
d="M282 491h-63l82 197h54zM120 491h-62l82 197h53z" />
    <glyph glyph-name="quotedblright" unicode="&#x201d;" horiz-adv-x="412" 
d="M130 688h63l-82 -197h-53zM292 688h63l-82 -197h-54z" />
    <glyph glyph-name="quotedblbase" unicode="&#x201e;" horiz-adv-x="412" 
d="M262 72h63l-82 -197h-54zM100 72h62l-82 -197h-54z" />
    <glyph glyph-name="dagger" unicode="&#x2020;" horiz-adv-x="442" 
d="M193 470h-164v54h164v164h54v-164h165v-54h-165v-470h-54v470z" />
    <glyph glyph-name="daggerdbl" unicode="&#x2021;" horiz-adv-x="442" 
d="M193 164h-164v54h164v252h-164v54h164v164h54v-164h165v-54h-165v-252h165v-54h-165v-164h-54v164z" />
    <glyph glyph-name="bullet" unicode="&#x2022;" horiz-adv-x="500" 
d="M109 344q0 29 11 55t30.5 45t45 30t54.5 11t55 -11t45 -30t30 -45t11 -55t-11 -55t-30 -45t-45 -30t-55 -11t-54.5 11t-45 30t-30.5 45t-11 55z" />
    <glyph glyph-name="ellipsis" unicode="&#x2026;" horiz-adv-x="1001" 
d="M455 33q0 20 12.5 33t32.5 13t33 -13t13 -33t-13 -32.5t-33 -12.5t-32.5 12.5t-12.5 32.5zM122 33q0 20 12.5 33t32.5 13t32.5 -13t12.5 -33t-12.5 -32.5t-32.5 -12.5t-32.5 12.5t-12.5 32.5zM789 33q0 20 12.5 33t32.5 13t32.5 -13t12.5 -33t-12.5 -32.5t-32.5 -12.5
t-32.5 12.5t-12.5 32.5z" />
    <glyph glyph-name="perthousand" unicode="&#x2030;" horiz-adv-x="1206" 
d="M841 172q0 40 12 74t33 58.5t50.5 38t64.5 13.5t64.5 -13.5t50.5 -38t33 -58.5t12 -74q0 -41 -12 -74.5t-33 -58t-50.5 -38t-64.5 -13.5t-64.5 13.5t-50.5 38t-33 58t-12 74.5zM893 172q0 -63 30 -102t78 -39t77.5 39t29.5 102t-29.5 102t-77.5 39t-78 -39t-30 -102z
M479 172q0 40 12 74t33 58.5t50.5 38t64.5 13.5t64.5 -13.5t51 -38t33.5 -58.5t12 -74q0 -41 -12 -74.5t-33.5 -58t-51 -38t-64.5 -13.5t-64.5 13.5t-50.5 38t-33 58t-12 74.5zM532 172q0 -63 29.5 -102t77.5 -39q24 0 44 10.5t34 29t22 44.5t8 57t-8 57t-22 44.5t-34 29
t-44 10.5q-48 0 -77.5 -39t-29.5 -102zM45 516q0 40 12 74t33 58.5t50.5 38t64.5 13.5t64.5 -13.5t51 -38t33.5 -58.5t12 -74q0 -41 -12 -74.5t-33.5 -58t-51 -38t-64.5 -13.5t-64.5 13.5t-50.5 38t-33 58t-12 74.5zM98 516q0 -63 29.5 -101.5t77.5 -38.5t78 38.5t30 101.5
q0 31 -8 57t-22 44.5t-34 29t-44 10.5q-48 0 -77.5 -39t-29.5 -102zM652 688h57l-516 -688h-57z" />
    <glyph glyph-name="guilsinglleft" unicode="&#x2039;" horiz-adv-x="369" 
d="M136 250l181 -205h-69l-196 205l196 206h69z" />
    <glyph glyph-name="guilsinglright" unicode="&#x203a;" horiz-adv-x="369" 
d="M233 250l-181 206h68l197 -206l-197 -205h-68z" />
    <glyph glyph-name="fraction" unicode="&#x2044;" horiz-adv-x="156" 
d="M308 688h57l-516 -688h-57z" />
    <glyph glyph-name="uni2070" unicode="&#x2070;" horiz-adv-x="371" 
d="M38 610q0 46 10.5 85t30 66.5t47 43t60.5 15.5t60 -15.5t46.5 -43t30.5 -66.5t11 -85q0 -47 -11 -85.5t-30.5 -66t-46.5 -43t-60 -15.5t-60.5 15.5t-47 43t-30 66t-10.5 85.5zM93 610q0 -74 25.5 -119t67.5 -45t67 45t25 119t-25 119t-67 45t-67.5 -45t-25.5 -119z" />
    <glyph glyph-name="uni2074" unicode="&#x2074;" horiz-adv-x="341" 
d="M203 517h-182v34l190 262h45v-253h63v-43h-63v-110h-53v110zM203 560v173l-127 -173h127z" />
    <glyph glyph-name="uni2075" unicode="&#x2075;" horiz-adv-x="308" 
d="M255 767h-159v-116q13 3 24 4t22 1q60 0 96 -34.5t36 -90.5q0 -58 -40.5 -94.5t-104.5 -36.5q-46 0 -94 23v53q45 -30 89 -30q42 0 68 23.5t26 61.5q0 36 -25 59t-66 23t-80 -10v210h208v-46z" />
    <glyph glyph-name="uni2076" unicode="&#x2076;" horiz-adv-x="339" 
d="M250 813q-54 -43 -91 -87t-55 -90q36 29 80 29q55 0 89.5 -35.5t34.5 -92.5q0 -61 -39 -99t-100 -38q-30 0 -54.5 11t-42 30.5t-27.5 47t-10 60.5q0 68 36.5 136t106.5 128h72zM92 581q-3 -17 -3 -36q0 -45 22.5 -72t57.5 -27q37 0 61 24.5t24 63.5q0 38 -22.5 61.5
t-58.5 23.5q-22 0 -42 -10t-39 -28z" />
    <glyph glyph-name="uni2077" unicode="&#x2077;" horiz-adv-x="277" 
d="M200 767h-193v46h256v-31l-159 -375h-56z" />
    <glyph glyph-name="uni2078" unicode="&#x2078;" horiz-adv-x="341" 
d="M44 710q0 49 35 79.5t92 30.5t92 -30.5t35 -79.5q0 -34 -18.5 -59t-49.5 -35q35 -10 56 -37.5t21 -64.5q0 -51 -37.5 -82.5t-98.5 -31.5t-98.5 31.5t-37.5 82.5q0 37 20.5 64.5t55.5 37.5q-31 10 -49 35t-18 59zM89 518q0 -33 22.5 -54t59.5 -21q36 0 59 21t23 54
q0 32 -23 53t-59 21q-37 0 -59.5 -21t-22.5 -53zM96 706q0 -31 21 -51t54 -20t53.5 20t20.5 51t-20.5 51t-53.5 20t-54 -20t-21 -51z" />
    <glyph glyph-name="uni2079" unicode="&#x2079;" horiz-adv-x="339" 
d="M89 407q109 87 145 177q-35 -29 -79 -29q-56 0 -90 35.5t-34 92.5q0 61 38.5 99t101.5 38q29 0 53.5 -11t42.5 -30.5t28 -47t10 -60.5q0 -68 -37.5 -136t-106.5 -128h-72zM247 639q3 16 3 36q0 45 -22.5 72t-58.5 27q-37 0 -60 -24.5t-23 -63.5q0 -38 22 -61.5t58 -23.5
q43 0 81 38z" />
    <glyph glyph-name="uni207A" unicode="&#x207a;" horiz-adv-x="344" 
d="M24 633h125v125h46v-125h125v-46h-125v-125h-46v125h-125v46z" />
    <glyph glyph-name="uni207B" unicode="&#x207b;" horiz-adv-x="344" 
d="M24 633h296v-46h-296v46z" />
    <glyph glyph-name="uni207C" unicode="&#x207c;" horiz-adv-x="344" 
d="M24 573h296v-45h-296v45zM24 692h296v-45h-296v45z" />
    <glyph glyph-name="uni207D" unicode="&#x207d;" horiz-adv-x="203" 
d="M195 869q-45 -57 -67.5 -122.5t-22.5 -136.5q0 -143 90 -259h-56q-43 58 -65 124t-22 135t22 135t65 124h56z" />
    <glyph glyph-name="uni207E" unicode="&#x207e;" horiz-adv-x="203" 
d="M9 351q45 57 68 123t23 136q0 71 -23 136.5t-68 122.5h56q43 -58 65 -123.5t22 -135.5q0 -69 -22 -135t-65 -124h-56z" />
    <glyph glyph-name="uni2080" unicode="&#x2080;" horiz-adv-x="371" 
d="M38 78q0 46 10.5 85t30 66.5t47 43t60.5 15.5t60 -15.5t46.5 -43t30.5 -66.5t11 -85q0 -47 -11 -85.5t-30.5 -66t-46.5 -43t-60 -15.5t-60.5 15.5t-47 43t-30 66t-10.5 85.5zM93 78q0 -74 25.5 -119t67.5 -45t67 45t25 119t-25 119t-67 45t-67.5 -45t-25.5 -119z" />
    <glyph glyph-name="uni2081" unicode="&#x2081;" horiz-adv-x="246" 
d="M126 222l-104 -60v51l121 68h38v-406h-55v347z" />
    <glyph glyph-name="uni2082" unicode="&#x2082;" horiz-adv-x="307" 
d="M22 -89q52 46 87.5 83.5t57.5 67.5t31.5 54.5t9.5 45.5q0 35 -21 57t-55 22q-24 0 -50 -10t-51 -30v53q57 34 114 34q53 0 86.5 -32.5t33.5 -84.5q0 -24 -9 -50t-29.5 -56t-53 -65.5t-78.5 -78.5h175v-46h-248v36z" />
    <glyph glyph-name="uni2083" unicode="&#x2083;" horiz-adv-x="303" 
d="M95 103h21q38 0 63 20t25 52q0 30 -21.5 49t-55.5 19q-45 0 -94 -29v49q50 25 100 25q56 0 91 -30t35 -78q0 -33 -19 -59t-51 -37q36 -11 57.5 -39t21.5 -65q0 -51 -38.5 -81.5t-100.5 -30.5q-54 0 -105 25v52q49 -32 99 -32q39 0 64.5 20t25.5 52q0 33 -26 54t-68 21
h-24v43z" />
    <glyph glyph-name="uni2084" unicode="&#x2084;" horiz-adv-x="341" 
d="M203 -15h-182v34l190 262h45v-253h63v-43h-63v-110h-53v110zM203 28v173l-127 -173h127z" />
    <glyph glyph-name="uni2085" unicode="&#x2085;" horiz-adv-x="308" 
d="M255 235h-159v-116q13 3 24 4t22 1q60 0 96 -34.5t36 -90.5q0 -58 -40.5 -94.5t-104.5 -36.5q-46 0 -94 23v53q45 -30 89 -30q42 0 68 23.5t26 61.5q0 36 -25 59t-66 23t-80 -10v210h208v-46z" />
    <glyph glyph-name="uni2086" unicode="&#x2086;" horiz-adv-x="339" 
d="M250 281q-54 -43 -91 -87t-55 -90q36 29 80 29q55 0 89.5 -35.5t34.5 -92.5q0 -61 -39 -99t-100 -38q-30 0 -54.5 11t-42 30.5t-27.5 47t-10 60.5q0 68 36.5 136t106.5 128h72zM92 49q-3 -17 -3 -36q0 -45 22.5 -72t57.5 -27q37 0 61 24.5t24 63.5q0 38 -22.5 61.5
t-58.5 23.5q-22 0 -42 -10t-39 -28z" />
    <glyph glyph-name="uni2087" unicode="&#x2087;" horiz-adv-x="277" 
d="M200 235h-193v46h256v-31l-159 -375h-56z" />
    <glyph glyph-name="uni2088" unicode="&#x2088;" horiz-adv-x="341" 
d="M44 178q0 49 35 79.5t92 30.5t92 -30.5t35 -79.5q0 -34 -18.5 -59t-49.5 -35q35 -10 56 -37.5t21 -64.5q0 -51 -37.5 -82.5t-98.5 -31.5t-98.5 31.5t-37.5 82.5q0 37 20.5 64.5t55.5 37.5q-31 10 -49 35t-18 59zM89 -14q0 -33 22.5 -54t59.5 -21q36 0 59 21t23 54
q0 32 -23 53t-59 21q-37 0 -59.5 -21t-22.5 -53zM96 174q0 -31 21 -51t54 -20t53.5 20t20.5 51t-20.5 51t-53.5 20t-54 -20t-21 -51z" />
    <glyph glyph-name="uni2089" unicode="&#x2089;" horiz-adv-x="339" 
d="M89 -125q109 87 145 177q-35 -29 -79 -29q-56 0 -90 35.5t-34 92.5q0 61 38.5 99t101.5 38q29 0 53.5 -11t42.5 -30.5t28 -47t10 -60.5q0 -68 -37.5 -136t-106.5 -128h-72zM247 107q3 16 3 36q0 45 -22.5 72t-58.5 27q-37 0 -60 -24.5t-23 -63.5q0 -38 22 -61.5t58 -23.5
q43 0 81 38z" />
    <glyph glyph-name="uni208A" unicode="&#x208a;" horiz-adv-x="344" 
d="M24 101h125v125h46v-125h125v-46h-125v-125h-46v125h-125v46z" />
    <glyph glyph-name="uni208B" unicode="&#x208b;" horiz-adv-x="344" 
d="M24 101h296v-46h-296v46z" />
    <glyph glyph-name="uni208C" unicode="&#x208c;" horiz-adv-x="344" 
d="M24 41h296v-45h-296v45zM24 160h296v-45h-296v45z" />
    <glyph glyph-name="uni208D" unicode="&#x208d;" horiz-adv-x="203" 
d="M195 337q-45 -57 -67.5 -122.5t-22.5 -136.5q0 -143 90 -259h-56q-43 58 -65 124t-22 135t22 135t65 124h56z" />
    <glyph glyph-name="uni208E" unicode="&#x208e;" horiz-adv-x="203" 
d="M9 -181q45 57 68 123t23 136q0 71 -23 136.5t-68 122.5h56q43 -58 65 -123.5t22 -135.5q0 -69 -22 -135t-65 -124h-56z" />
    <glyph glyph-name="Euro" unicode="&#x20ac;" 
d="M15 293h77q-2 12 -2 24.5v26.5v26.5t1 24.5h-76v47h84q12 58 36.5 106t60 81.5t81 52t98.5 18.5q36 0 71 -9.5t72 -29.5v-61q-70 46 -138 46q-81 0 -137 -55t-77 -149h231v-47h-239q-3 -24 -3 -51t3 -51h239v-47h-231q21 -94 77 -149t137 -55q68 0 138 46v-61
q-37 -20 -72 -29.5t-71 -9.5q-53 0 -98.5 18.5t-81 52t-60 81t-36.5 106.5h-84v47z" />
    <glyph glyph-name="afii61289" unicode="&#x2113;" horiz-adv-x="380" 
d="M336 583q0 -96 -48.5 -179t-141.5 -146v-124q0 -42 25 -68t67 -26q37 0 87 28v-56q-53 -24 -96 -24q-65 0 -105.5 39t-40.5 102v450q0 33 9.5 61t27 48.5t41.5 31.5t53 11q54 0 88 -41t34 -107zM285 579q0 45 -18.5 72.5t-50.5 27.5t-51 -27t-19 -77v-253
q68 49 103.5 115.5t35.5 141.5z" />
    <glyph glyph-name="afii61352" unicode="&#x2116;" horiz-adv-x="1101" 
d="M103 688h58l406 -581v581h63v-688h-58l-406 581v-581h-63v688zM777 302h278v-41h-278v41zM764 532q0 36 11 66t31.5 52t48.5 34t61 12t61 -12t48 -34t31 -52t11 -66t-11 -66.5t-31 -52t-48 -33.5t-61 -12t-61 12t-48.5 33.5t-31.5 52t-11 66.5zM819 532q0 -54 27 -87
t70 -33q44 0 70.5 33t26.5 87q0 53 -26.5 86t-70.5 33q-43 0 -70 -33t-27 -86z" />
    <glyph glyph-name="uni2117" unicode="&#x2117;" horiz-adv-x="845" 
d="M63 344q0 79 26.5 145t74 114t113.5 74.5t145 26.5t145 -26.5t114 -74.5t74.5 -114t26.5 -145t-26.5 -145t-74.5 -114t-114 -74.5t-145 -26.5t-145 26.5t-113.5 74.5t-74 114t-26.5 145zM109 344q0 -69 23 -126.5t64.5 -99.5t99 -65t126.5 -23t126.5 23t99.5 65t65 99.5
t23 126.5t-23 126.5t-65 99.5t-99.5 65t-126.5 23t-126.5 -23t-99 -65t-64.5 -99.5t-23 -126.5zM314 547h130q61 0 99.5 -35t38.5 -91q0 -28 -10 -51.5t-28.5 -40.5t-44 -26.5t-55.5 -9.5h-76v-152h-54v406zM368 338h68q40 0 65 23t25 60t-25 59.5t-65 22.5h-68v-165z" />
    <glyph glyph-name="uni2120" unicode="&#x2120;" horiz-adv-x="841" 
d="M45 356q57 -37 111 -37q40 0 64.5 19.5t24.5 51.5q0 25 -15.5 39t-38.5 23.5t-49.5 18t-49.5 21.5t-38.5 34t-15.5 56q0 51 38 82t99 31q52 0 106 -23v-53q-25 16 -51 23.5t-51 7.5q-38 0 -62 -18.5t-24 -48.5q0 -24 15.5 -37.5t38.5 -23t49.5 -18t49.5 -22t38.5 -35
t15.5 -56.5q0 -26 -10.5 -47t-29 -36.5t-44 -24t-56.5 -8.5q-59 0 -115 28v53zM398 688h49l141 -200l141 200h48v-406h-53v317l-119 -170h-34l-119 170v-317h-54v406z" />
    <glyph glyph-name="trademark" unicode="&#x2122;" horiz-adv-x="866" 
d="M153 643h-130v45h316v-45h-131v-361h-55v361zM424 688h48l141 -200l142 200h47v-406h-52v317l-119 -170h-35l-119 170v-317h-53v406z" />
    <glyph glyph-name="uni2126" unicode="&#x2126;" horiz-adv-x="764" 
d="M45 52h199q-85 68 -130.5 153t-45.5 179q0 69 23 127t65 100t99.5 65.5t126.5 23.5t126.5 -23.5t99 -65.5t64.5 -100t23 -127q0 -94 -45 -179t-130 -153h199v-52h-277v45q91 70 139 154.5t48 174.5q0 60 -18.5 110t-51 86t-78 56t-99.5 20t-99.5 -20t-78.5 -56t-51 -86
t-18 -110q0 -90 48 -174.5t139 -154.5v-45h-277v52z" />
    <glyph glyph-name="estimated" unicode="&#x212e;" horiz-adv-x="938" 
d="M78 344q0 74 30.5 139t84 113t124.5 76t152 28t152 -28t124.5 -76t84 -113t30.5 -139v-16h-641v-191q45 -54 110 -85.5t140 -31.5q78 0 143 32t110 89h68q-54 -70 -137.5 -111.5t-183.5 -41.5q-81 0 -152 28t-124.5 76.5t-84 113t-30.5 138.5zM219 360h500v191
q-45 54 -109.5 86t-140.5 32q-75 0 -140 -32t-110 -86v-191z" />
    <glyph glyph-name="onethird" unicode="&#x2153;" horiz-adv-x="845" 
d="M175 629l-104 -60v51l121 68h38v-406h-55v347zM652 688h57l-534 -688h-39zM616 228h21q38 0 63 20t25 52q0 30 -21.5 49t-55.5 19q-45 0 -94 -29v49q50 25 100 25q56 0 91 -30t35 -78q0 -33 -19 -59t-51 -37q36 -11 57.5 -39t21.5 -65q0 -51 -38.5 -81.5t-100.5 -30.5
q-54 0 -105 25v52q49 -32 99 -32q39 0 64.5 20t25.5 52q0 33 -25 54t-57 21h-36v43z" />
    <glyph glyph-name="twothirds" unicode="&#x2154;" horiz-adv-x="845" 
d="M41 318q52 46 87.5 83.5t57.5 67.5t31.5 54.5t9.5 45.5q0 35 -21 57t-55 22q-24 0 -50 -10t-51 -30v53q57 34 114 34q53 0 86.5 -32.5t33.5 -84.5q0 -24 -9 -50t-29.5 -56t-53 -65.5t-78.5 -78.5h175v-46h-248v36zM652 688h57l-516 -688h-57zM616 228h21q38 0 63 20
t25 52q0 30 -21.5 49t-55.5 19q-45 0 -94 -29v49q50 25 100 25q56 0 91 -30t35 -78q0 -33 -19 -59t-51 -37q36 -11 57.5 -39t21.5 -65q0 -51 -38.5 -81.5t-100.5 -30.5q-54 0 -105 25v52q49 -32 99 -32q39 0 64.5 20t25.5 52q0 33 -25 54t-57 21h-36v43z" />
    <glyph glyph-name="uni2155" unicode="&#x2155;" horiz-adv-x="845" 
d="M175 629l-104 -60v51l121 68h38v-406h-55v347zM652 688h57l-534 -688h-39zM774 360h-159v-116q13 3 24 4t22 1q60 0 96 -34.5t36 -90.5q0 -58 -40.5 -94.5t-104.5 -36.5q-46 0 -94 23v53q45 -30 89 -30q42 0 68 23.5t26 61.5q0 36 -25 59t-66 23t-80 -10v210h208v-46z
" />
    <glyph glyph-name="uni2156" unicode="&#x2156;" horiz-adv-x="845" 
d="M41 318q52 46 87.5 83.5t57.5 67.5t31.5 54.5t9.5 45.5q0 35 -21 57t-55 22q-24 0 -50 -10t-51 -30v53q57 34 114 34q53 0 86.5 -32.5t33.5 -84.5q0 -24 -9 -50t-29.5 -56t-53 -65.5t-78.5 -78.5h175v-46h-248v36zM652 688h57l-516 -688h-57zM774 360h-159v-116
q13 3 24 4t22 1q60 0 96 -34.5t36 -90.5q0 -58 -40.5 -94.5t-104.5 -36.5q-46 0 -94 23v53q45 -30 89 -30q42 0 68 23.5t26 61.5q0 36 -25 59t-66 23t-80 -10v210h208v-46z" />
    <glyph glyph-name="uni2157" unicode="&#x2157;" horiz-adv-x="845" 
d="M116 510h21q38 0 63 20t25 52q0 30 -21.5 49t-55.5 19q-45 0 -94 -29v49q50 25 100 25q56 0 91 -30t35 -78q0 -33 -19 -59t-51 -37q36 -11 57.5 -39t21.5 -65q0 -51 -38.5 -81.5t-100.5 -30.5q-54 0 -105 25v52q49 -32 99 -32q39 0 64.5 20t25.5 52q0 33 -26 54t-68 21
h-24v43zM652 688h57l-516 -688h-57zM774 360h-159v-116q13 3 24 4t22 1q60 0 96 -34.5t36 -90.5q0 -58 -40.5 -94.5t-104.5 -36.5q-46 0 -94 23v53q45 -30 89 -30q42 0 68 23.5t26 61.5q0 36 -25 59t-66 23t-80 -10v210h208v-46z" />
    <glyph glyph-name="uni2158" unicode="&#x2158;" horiz-adv-x="845" 
d="M204 392h-182v34l190 262h45v-253h63v-43h-63v-110h-53v110zM204 435v173l-127 -173h127zM652 688h57l-505 -688h-68zM774 360h-159v-116q13 3 24 4t22 1q60 0 96 -34.5t36 -90.5q0 -58 -40.5 -94.5t-104.5 -36.5q-46 0 -94 23v53q45 -30 89 -30q42 0 68 23.5t26 61.5
q0 36 -25 59t-66 23t-80 -10v210h208v-46z" />
    <glyph glyph-name="uni2159" unicode="&#x2159;" horiz-adv-x="845" 
d="M175 629l-104 -60v51l121 68h38v-406h-55v347zM652 688h57l-534 -688h-39zM753 406q-54 -43 -91 -87t-55 -90q36 29 80 29q55 0 89.5 -35.5t34.5 -92.5q0 -61 -39 -99t-100 -38q-30 0 -54.5 11t-42 30.5t-27.5 47t-10 60.5q0 68 36.5 136t106.5 128h72zM595 174
q-3 -17 -3 -36q0 -45 22.5 -72t57.5 -27q37 0 61 24.5t24 63.5q0 38 -22.5 61.5t-58.5 23.5q-22 0 -42 -10t-39 -28z" />
    <glyph glyph-name="uni215A" unicode="&#x215a;" horiz-adv-x="845" 
d="M273 642h-159v-116q13 3 24 4t22 1q60 0 96 -34.5t36 -90.5q0 -58 -40.5 -94.5t-104.5 -36.5q-46 0 -94 23v53q45 -30 89 -30q42 0 68 23.5t26 61.5q0 36 -25 59t-66 23t-80 -10v210h208v-46zM652 688h57l-516 -688h-57zM753 406q-54 -43 -91 -87t-55 -90q36 29 80 29
q55 0 89.5 -35.5t34.5 -92.5q0 -61 -39 -99t-100 -38q-30 0 -54.5 11t-42 30.5t-27.5 47t-10 60.5q0 68 36.5 136t106.5 128h72zM595 174q-3 -17 -3 -36q0 -45 22.5 -72t57.5 -27q37 0 61 24.5t24 63.5q0 38 -22.5 61.5t-58.5 23.5q-22 0 -42 -10t-39 -28z" />
    <glyph glyph-name="oneeighth" unicode="&#x215b;" horiz-adv-x="845" 
d="M175 629l-104 -60v51l121 68h38v-406h-55v347zM652 688h57l-534 -688h-39zM546 303q0 49 35 79.5t92 30.5t92 -30.5t35 -79.5q0 -34 -18.5 -59t-49.5 -35q35 -10 56 -37.5t21 -64.5q0 -51 -37.5 -82.5t-98.5 -31.5t-98.5 31.5t-37.5 82.5q0 37 20.5 64.5t55.5 37.5
q-31 10 -49 35t-18 59zM591 111q0 -33 22.5 -54t59.5 -21q36 0 59 21t23 54q0 32 -23 53t-59 21q-37 0 -59.5 -21t-22.5 -53zM598 299q0 -31 21 -51t54 -20t53.5 20t20.5 51t-20.5 51t-53.5 20t-54 -20t-21 -51z" />
    <glyph glyph-name="threeeighths" unicode="&#x215c;" horiz-adv-x="845" 
d="M113 510h21q38 0 63 20t25 52q0 30 -21.5 49t-55.5 19q-45 0 -94 -29v49q50 25 100 25q56 0 91 -30t35 -78q0 -33 -19 -59t-51 -37q36 -11 57.5 -39t21.5 -65q0 -51 -38.5 -81.5t-100.5 -30.5q-54 0 -105 25v52q49 -32 99 -32q39 0 64.5 20t25.5 52q0 33 -26 54t-68 21
h-24v43zM652 688h57l-516 -688h-57zM546 303q0 49 35 79.5t92 30.5t92 -30.5t35 -79.5q0 -34 -18.5 -59t-49.5 -35q35 -10 56 -37.5t21 -64.5q0 -51 -37.5 -82.5t-98.5 -31.5t-98.5 31.5t-37.5 82.5q0 37 20.5 64.5t55.5 37.5q-31 10 -49 35t-18 59zM591 111q0 -33 22.5 -54
t59.5 -21q36 0 59 21t23 54q0 32 -23 53t-59 21q-37 0 -59.5 -21t-22.5 -53zM598 299q0 -31 21 -51t54 -20t53.5 20t20.5 51t-20.5 51t-53.5 20t-54 -20t-21 -51z" />
    <glyph glyph-name="fiveeighths" unicode="&#x215d;" horiz-adv-x="845" 
d="M273 642h-159v-116q13 3 24 4t22 1q60 0 96 -34.5t36 -90.5q0 -58 -40.5 -94.5t-104.5 -36.5q-46 0 -94 23v53q45 -30 89 -30q42 0 68 23.5t26 61.5q0 36 -25 59t-66 23t-80 -10v210h208v-46zM652 688h57l-516 -688h-57zM546 303q0 49 35 79.5t92 30.5t92 -30.5t35 -79.5
q0 -34 -18.5 -59t-49.5 -35q35 -10 56 -37.5t21 -64.5q0 -51 -37.5 -82.5t-98.5 -31.5t-98.5 31.5t-37.5 82.5q0 37 20.5 64.5t55.5 37.5q-31 10 -49 35t-18 59zM591 111q0 -33 22.5 -54t59.5 -21q36 0 59 21t23 54q0 32 -23 53t-59 21q-37 0 -59.5 -21t-22.5 -53zM598 299
q0 -31 21 -51t54 -20t53.5 20t20.5 51t-20.5 51t-53.5 20t-54 -20t-21 -51z" />
    <glyph glyph-name="seveneighths" unicode="&#x215e;" horiz-adv-x="845" 
d="M234 642h-193v46h256v-31l-159 -375h-56zM652 688h57l-516 -688h-57zM546 303q0 49 35 79.5t92 30.5t92 -30.5t35 -79.5q0 -34 -18.5 -59t-49.5 -35q35 -10 56 -37.5t21 -64.5q0 -51 -37.5 -82.5t-98.5 -31.5t-98.5 31.5t-37.5 82.5q0 37 20.5 64.5t55.5 37.5
q-31 10 -49 35t-18 59zM591 111q0 -33 22.5 -54t59.5 -21q36 0 59 21t23 54q0 32 -23 53t-59 21q-37 0 -59.5 -21t-22.5 -53zM598 299q0 -31 21 -51t54 -20t53.5 20t20.5 51t-20.5 51t-53.5 20t-54 -20t-21 -51z" />
    <glyph glyph-name="uni215F" unicode="&#x215f;" horiz-adv-x="500" 
d="M170 629l-104 -60v51l121 68h38v-406h-55v347zM652 688h57l-539 -688h-34z" />
    <glyph glyph-name="arrowleft" unicode="&#x2190;" horiz-adv-x="1000" 
d="M179 252l251 -252h-85l-282 282l282 282h85l-251 -252h758v-60h-758z" />
    <glyph glyph-name="arrowup" unicode="&#x2191;" horiz-adv-x="1000" 
d="M470 603l-252 -251v85l282 282l282 -282v-85l-252 251v-758h-60v758z" />
    <glyph glyph-name="arrowright" unicode="&#x2192;" horiz-adv-x="1000" 
d="M821 312l-251 252h85l282 -282l-282 -282h-85l251 252h-758v60h758z" />
    <glyph glyph-name="arrowdown" unicode="&#x2193;" horiz-adv-x="1000" 
d="M530 -39l252 251v-85l-282 -282l-282 282v85l252 -251v758h60v-758z" />
    <glyph glyph-name="uni2196" unicode="&#x2196;" horiz-adv-x="1000" 
d="M251 488v-356l-60 60v399h399l60 -60h-356l536 -537l-42 -42z" />
    <glyph glyph-name="uni2197" unicode="&#x2197;" horiz-adv-x="1000" 
d="M706 531h-356l60 60h399v-399l-60 -60v356l-537 -536l-42 42z" />
    <glyph glyph-name="uni2198" unicode="&#x2198;" horiz-adv-x="1000" 
d="M749 76v356l60 -60v-399h-399l-60 60h356l-536 537l42 42z" />
    <glyph glyph-name="uni2199" unicode="&#x2199;" horiz-adv-x="1000" 
d="M294 33h356l-60 -60h-399v399l60 60v-356l537 536l42 -42z" />
    <glyph glyph-name="partialdiff" unicode="&#x2202;" horiz-adv-x="560" 
d="M45 253q0 57 16.5 104.5t47 82t72.5 53.5t93 19q41 0 84 -17.5t78 -56.5q-6 55 -22.5 100t-41 76t-57 48t-69.5 17q-32 0 -69 -11.5t-72 -36.5v61q38 21 76 30t72 9q58 0 105 -26.5t80 -76.5t51 -121.5t18 -161.5q0 -80 -17 -145.5t-48.5 -112.5t-75.5 -73t-98 -26
q-49 0 -90 19.5t-70.5 54.5t-46 83.5t-16.5 107.5zM109 250q0 -46 11.5 -84.5t32.5 -66.5t50.5 -43.5t65.5 -15.5q39 0 71 19.5t55.5 55t36 85t12.5 110.5q0 28 -3 61q-35 43 -77 66t-84 23q-39 0 -70.5 -15t-54 -43t-34.5 -66.5t-12 -85.5z" />
    <glyph glyph-name="uni2206" unicode="&#x2206;" horiz-adv-x="635" 
d="M31 36l261 652h51l260 -652v-36h-572v36zM104 36h428l-214 557z" />
    <glyph glyph-name="product" unicode="&#x220f;" horiz-adv-x="756" 
d="M103 719h550v-938h-64v887h-422v-887h-64v938z" />
    <glyph glyph-name="summation" unicode="&#x2211;" horiz-adv-x="661" 
d="M69 -177l336 433l-320 421v42h513v-51h-432l297 -392v-40l-313 -403h464v-52h-545v42z" />
    <glyph glyph-name="minus" unicode="&#x2212;" 
d="M31 309h501v-55h-501v55z" />
    <glyph glyph-name="uni2215" unicode="&#x2215;" horiz-adv-x="156" 
d="M308 688h57l-516 -688h-57z" />
    <glyph glyph-name="uni2219" unicode="&#x2219;" horiz-adv-x="250" 
d="M80 250q0 20 12.5 33t32.5 13t32.5 -13t12.5 -33t-12.5 -32.5t-32.5 -12.5t-32.5 12.5t-12.5 32.5z" />
    <glyph glyph-name="radical" unicode="&#x221a;" horiz-adv-x="688" 
d="M396 -219h-53l-120 359l-164 -56v56l199 67l109 -326l209 838h55z" />
    <glyph glyph-name="infinity" unicode="&#x221e;" horiz-adv-x="787" 
d="M45 282q0 41 12.5 75t34.5 58.5t52.5 38t67.5 13.5q44 0 84.5 -24.5t69.5 -69.5l28 -43l27 43q29 46 69.5 69.5t85.5 24.5q36 0 66.5 -13.5t52.5 -38t34.5 -58.5t12.5 -75t-12.5 -75.5t-34.5 -59t-52.5 -38t-66.5 -13.5q-45 0 -85.5 24.5t-69.5 70.5l-27 42l-28 -42
q-31 -46 -70 -70.5t-84 -24.5q-37 0 -67.5 13.5t-52.5 38t-34.5 59t-12.5 75.5zM103 282q0 -60 30.5 -97.5t79.5 -37.5q29 0 58 18t51 51l43 66l-43 65q-23 33 -51.5 51t-57.5 18q-49 0 -79.5 -37.5t-30.5 -96.5zM684 282q0 59 -30.5 96.5t-79.5 37.5q-31 0 -58.5 -18
t-49.5 -51l-44 -65l44 -66q22 -33 50 -51t58 -18q49 0 79.5 37.5t30.5 97.5z" />
    <glyph glyph-name="integral" unicode="&#x222b;" horiz-adv-x="500" 
d="M224 567q0 -66 18.5 -146t40.5 -164t40.5 -166t18.5 -152q0 -38 -10.5 -69t-29 -53.5t-44.5 -35t-57 -12.5q-14 0 -28 2.5t-29 7.5v56q15 -8 26 -11t24 -3q37 0 59.5 31.5t22.5 81.5q0 44 -8.5 94.5t-22 104.5t-28.5 110.5t-28.5 111.5t-22 107.5t-8.5 99.5q0 37 10.5 68
t29 53.5t44.5 35t57 12.5q14 0 28.5 -2.5t28.5 -7.5v-54q-24 12 -50 12q-36 0 -59 -31t-23 -81z" />
    <glyph glyph-name="approxequal" unicode="&#x2248;" 
d="M31 204q29 23 62 33t69 10t66.5 -9.5t59 -21t56 -21t57.5 -9.5q37 0 69.5 14.5t61.5 37.5v-63q-29 -23 -62 -33t-69 -10t-66.5 9.5t-59 21t-56 21t-57.5 9.5q-37 0 -69.5 -14.5t-61.5 -37.5v63zM31 388q28 23 61.5 33t69.5 10t66 -9.5t58.5 -20.5t56.5 -20.5t58 -9.5
q37 0 69.5 14t61.5 37v-63q-29 -23 -62 -33t-69 -10q-35 0 -65.5 9.5t-59 21t-56.5 21t-58 9.5q-37 0 -69.5 -14.5t-61.5 -37.5v63z" />
    <glyph glyph-name="notequal" unicode="&#x2260;" 
d="M188 155h-157v54h184l72 145h-256v54h283l78 155h60l-77 -155h157v-54h-184l-72 -145h256v-54h-283l-78 -155h-60z" />
    <glyph glyph-name="lessequal" unicode="&#x2264;" 
d="M31 54h501v-54h-501v54zM31 345v44l501 216v-59l-417 -179l417 -180v-59z" />
    <glyph glyph-name="greaterequal" unicode="&#x2265;" 
d="M31 54h501v-54h-501v54zM532 389v-44l-501 -217v59l417 180l-417 179v59z" />
    <glyph glyph-name="lozenge" unicode="&#x25ca;" 
d="M58 344l202 344h43l202 -344l-202 -344h-43zM120 344l162 -273l161 273l-161 274z" />
    <glyph glyph-name="uniE010" unicode="&#xe010;" horiz-adv-x="604" 
d="M57 344q0 79 18 144.5t50.5 112.5t77.5 73t100 26q54 0 99.5 -26t77.5 -73t50 -112.5t18 -144.5t-18 -144.5t-50 -112.5t-77.5 -73t-99.5 -26q-55 0 -100 26t-77.5 73t-50.5 112.5t-18 144.5zM123 344q0 -68 13 -123.5t37 -95t57 -61.5t73 -22t73 22t56.5 61.5t36.5 95
t13 123.5q0 67 -13 123t-36.5 95.5t-56.5 61.5t-73 22t-73 -22t-57 -61.5t-37 -95.5t-13 -123z" />
    <glyph glyph-name="uniE011" unicode="&#xe011;" horiz-adv-x="382" 
d="M212 619l-181 -107v61l198 115h47v-688h-64v619z" />
    <glyph glyph-name="uniE012" unicode="&#xe012;" horiz-adv-x="496" 
d="M30 46q94 87 158 155t103 122t56 96.5t17 78.5q0 33 -10.5 60t-29 46.5t-44.5 30t-56 10.5q-43 0 -88 -17t-90 -52v65q91 59 188 59q43 0 79 -14t62 -39.5t40.5 -61t14.5 -77.5q0 -41 -16 -86t-53 -99t-97.5 -120t-148.5 -149h326v-54h-411v46z" />
    <glyph glyph-name="uniE013" unicode="&#xe013;" horiz-adv-x="488" 
d="M153 375h34q37 0 67.5 10.5t52.5 29t34 44t12 56.5q0 29 -10.5 53t-30 41.5t-46.5 27t-60 9.5q-39 0 -79 -13t-80 -38v62q84 43 165 43q46 0 84 -13t65.5 -37t42.5 -57t15 -73q0 -58 -33.5 -102.5t-91.5 -63.5q65 -20 102.5 -68t37.5 -112q0 -41 -16.5 -75t-47 -59
t-73 -38.5t-93.5 -13.5q-42 0 -85.5 11.5t-87.5 35.5v64q41 -29 83.5 -43t84.5 -14q37 0 68 10t53.5 28.5t35 43.5t12.5 55q0 32 -13 58.5t-36 46t-55.5 30t-71.5 10.5h-39v51z" />
    <glyph glyph-name="uniE014" unicode="&#xe014;" horiz-adv-x="551" 
d="M346 198h-317v43l327 447h53v-440h112v-50h-112v-198h-63v198zM346 248v340l-247 -340h247z" />
    <glyph glyph-name="uniE015" unicode="&#xe015;" horiz-adv-x="496" 
d="M414 634h-283v-227q24 4 46.5 6.5t45.5 2.5q50 0 91 -15.5t70.5 -43.5t45.5 -67t16 -85q0 -47 -17.5 -87t-49.5 -69t-76 -45t-96 -16q-79 0 -157 39v66q75 -51 153 -51q39 0 71.5 12t55.5 34t36 51.5t13 65.5q0 34 -12.5 63t-35 50.5t-54 33.5t-69.5 12q-33 0 -67 -5
t-69 -13v342h342v-54z" />
    <glyph glyph-name="uniE016" unicode="&#xe016;" horiz-adv-x="544" 
d="M392 688q-96 -76 -158.5 -154.5t-92.5 -158.5q69 54 149 54q46 0 84.5 -15.5t66 -43.5t42.5 -67t15 -86q0 -50 -16.5 -92t-46.5 -72.5t-71.5 -47.5t-91.5 -17q-48 0 -88.5 18t-70 50.5t-45.5 78t-16 100.5q0 116 63.5 232.5t187.5 220.5h89zM123 302q-3 -17 -4.5 -35
t-1.5 -35q0 -42 11.5 -77t32 -60t49 -39t62.5 -14q36 0 65.5 12.5t50.5 35.5t33 54t12 69q0 36 -11 65.5t-31.5 51t-49 33.5t-62.5 12q-83 0 -156 -73z" />
    <glyph glyph-name="uniE017" unicode="&#xe017;" horiz-adv-x="442" 
d="M350 634h-344v54h417v-38l-277 -650h-67z" />
    <glyph glyph-name="uniE018" unicode="&#xe018;" horiz-adv-x="551" 
d="M68 516q0 40 15.5 74t43 58.5t65.5 38t84 13.5q45 0 83 -13.5t65.5 -38t43 -58.5t15.5 -74q0 -60 -33 -104t-89 -60q63 -16 100 -63t37 -112q0 -42 -16.5 -76.5t-46 -59.5t-70 -39t-89.5 -14t-90 14t-70.5 39t-46 59.5t-16.5 76.5q0 65 37 112t100 63q-56 16 -89 60
t-33 104zM118 183q0 -31 11.5 -57t32.5 -45t50 -29.5t64 -10.5q34 0 63 10.5t50 29.5t32.5 45t11.5 57t-11.5 56.5t-32.5 44t-50 29t-63 10.5q-35 0 -64 -10.5t-50 -29t-32.5 -44t-11.5 -56.5zM133 511q0 -29 10.5 -54t29.5 -43t45 -28t58 -10q31 0 57 10t45 28t29.5 43
t10.5 54q0 60 -39.5 98t-102.5 38q-32 0 -58 -10t-45 -28t-29.5 -43t-10.5 -55z" />
    <glyph glyph-name="uniE019" unicode="&#xe019;" horiz-adv-x="544" 
d="M151 0q191 153 251 314q-68 -55 -149 -55q-47 0 -85 15.5t-65.5 43.5t-42.5 67t-15 86q0 50 16.5 92t46.5 72.5t72 47.5t92 17q48 0 88 -18t69.5 -50.5t45.5 -78t16 -100.5q0 -116 -63.5 -232.5t-187.5 -220.5h-89zM420 386q3 17 4.5 35t1.5 35q0 42 -11.5 77t-32 60
t-49 39t-61.5 14q-36 0 -66 -12.5t-51 -35t-33 -54t-12 -69.5q0 -36 11 -65.5t31.5 -51t48.5 -33.5t63 -12q83 0 156 73z" />
    <glyph glyph-name="uniE020" unicode="&#xe020;" 
d="M44 266q0 61 17.5 112t49 88t75.5 57.5t96 20.5t95.5 -20.5t75 -57.5t49 -88t17.5 -112t-17.5 -112t-49 -88t-75 -57.5t-95.5 -20.5t-96 20.5t-75.5 57.5t-49 88t-17.5 112zM108 266q0 -50 13 -91.5t36 -71.5t55 -46.5t70 -16.5t70 16.5t55 46.5t35.5 71.5t12.5 91.5
t-12.5 91.5t-35.5 71t-55 46t-70 16.5t-70 -16.5t-55 -46t-36 -71t-13 -91.5z" />
    <glyph glyph-name="uniE021" unicode="&#xe021;" 
d="M292 467l-144 -86v58l160 93h46v-532h-62v467z" />
    <glyph glyph-name="uniE022" unicode="&#xe022;" 
d="M102 46q138 112 204.5 193t66.5 138q0 51 -30 82.5t-78 31.5q-36 0 -73.5 -15t-73.5 -45v62q38 25 77 38t79 13q36 0 65.5 -11.5t51.5 -32.5t34 -49.5t12 -62.5q0 -126 -246 -336h254v-52h-343v46z" />
    <glyph glyph-name="uniE023" unicode="&#xe023;" 
d="M201 249h31q33 0 60 9.5t47 26t31 39.5t11 50q0 52 -36.5 84.5t-94.5 32.5q-70 0 -144 -46v59q74 40 150 40q42 0 76.5 -12t59.5 -34t39 -52t14 -66q0 -53 -30.5 -93.5t-83.5 -57.5q59 -17 93.5 -61t34.5 -101q0 -38 -15.5 -69.5t-43 -54t-66.5 -35t-85 -12.5
q-78 0 -159 43v62q37 -26 76 -39.5t77 -13.5q33 0 61 9t48 25.5t31 39t11 49.5q0 28 -11.5 52t-32 41t-49.5 26.5t-64 9.5h-36v49z" />
    <glyph glyph-name="uniE024" unicode="&#xe024;" 
d="M341 85h-286v42l295 405h52v-399h101v-48h-101v-179h-61v179zM341 133v305l-220 -305h220z" />
    <glyph glyph-name="uniE025" unicode="&#xe025;" 
d="M432 479h-253v-201q21 3 41.5 5t40.5 2q45 0 82 -14t63.5 -39.5t41 -60.5t14.5 -77q0 -43 -16 -79.5t-44.5 -63.5t-68.5 -42t-88 -15q-36 0 -72.5 10t-71.5 28v61q35 -23 69.5 -35t69.5 -12t64 11t50 31t32.5 47t11.5 59q0 30 -11 56t-31.5 44.5t-49 29t-62.5 10.5
q-59 0 -122 -15v313h310v-53z" />
    <glyph glyph-name="uniE026" unicode="&#xe026;" 
d="M391 626q-88 -69 -144 -140t-85 -143q64 49 136 49q42 0 77 -14.5t60 -40t38.5 -61.5t13.5 -78q0 -46 -15.5 -84.5t-43 -66.5t-65.5 -43.5t-83 -15.5q-44 0 -81 17t-64 47t-42 71.5t-15 91.5q0 106 58 211.5t170 199.5h85zM148 275q-3 -15 -4.5 -32t-1.5 -33
q0 -37 10 -68.5t28.5 -54t44 -35t55.5 -12.5q32 0 58.5 11t45 31.5t29 48.5t10.5 62q0 64 -37 105.5t-99 41.5q-76 0 -139 -65z" />
    <glyph glyph-name="uniE027" unicode="&#xe027;" 
d="M395 479h-312v53h383v-37l-249 -589h-67z" />
    <glyph glyph-name="uniE028" unicode="&#xe028;" 
d="M92 469q0 37 14 67.5t39.5 53t60 35t76.5 12.5t76.5 -12.5t59.5 -35t39 -53t14 -67.5q0 -54 -29.5 -94t-80.5 -55q57 -14 90.5 -57t33.5 -102q0 -38 -15 -69.5t-42 -54.5t-64 -36t-82 -13t-82.5 13t-64.5 36t-42 54.5t-15 69.5q0 59 33.5 102t90.5 57q-51 15 -80.5 55
t-29.5 94zM142 166q0 -56 38.5 -91.5t101.5 -35.5q62 0 100.5 35.5t38.5 91.5q0 55 -38.5 90.5t-100.5 35.5q-31 0 -57 -9.5t-44.5 -26t-28.5 -40t-10 -50.5zM155 464q0 -26 9.5 -48t26 -38.5t40 -25.5t51.5 -9q56 0 91 34.5t35 86.5q0 54 -35 88t-91 34q-57 0 -92 -34
t-35 -88z" />
    <glyph glyph-name="uniE029" unicode="&#xe029;" 
d="M172 -94q88 69 144 139.5t85 143.5q-64 -49 -136 -49q-42 0 -77 14.5t-60 40t-38.5 61.5t-13.5 78q0 46 15.5 84.5t43 66.5t65.5 43.5t83 15.5q44 0 81 -17t64 -47t42 -71.5t15 -91.5q0 -106 -58 -211.5t-170 -199.5h-85zM415 257q3 15 4.5 32t1.5 33q0 37 -10 68
t-28.5 53.5t-44 35t-55.5 12.5q-32 0 -58 -11.5t-45 -31.5t-29.5 -48t-10.5 -62q0 -32 9.5 -58.5t27.5 -46t43 -30.5t56 -11q76 0 139 65z" />
    <glyph glyph-name="uniE02A" unicode="&#xe02a;" 
d="M254 -29q-36 2 -71.5 12t-70.5 29v63q38 -26 77 -39t77 -13q28 0 53 7.5t43 22t28.5 34t10.5 43.5q0 37 -22 58.5t-55 36t-71.5 27t-71.5 30.5t-55 47t-22 77q0 60 41.5 101t108.5 51v138h55v-135q32 -2 63.5 -10t63.5 -23v-62q-68 43 -139 43q-57 0 -94 -27t-37 -74
q0 -36 22 -56.5t55 -35t71.5 -26.5t71.5 -30.5t55 -48.5t22 -79q0 -63 -42.5 -105.5t-111.5 -52.5v-138h-55v135z" />
    <glyph glyph-name="uniE02B" unicode="&#xe02b;" 
d="M106 266q0 47 13.5 87.5t38 71t58.5 50.5t75 26v140h54v-138q58 -3 111 -31v-57q-30 20 -61 28.5t-60 8.5q-36 0 -66.5 -13.5t-52.5 -38t-34 -59t-12 -75.5t12 -75.5t34 -59t52.5 -38.5t66.5 -14q29 0 60 9.5t61 29.5v-58q-27 -14 -54.5 -22t-56.5 -10v-137h-54v139
q-41 6 -75 26t-58.5 51t-38 71.5t-13.5 87.5z" />
    <glyph glyph-name="uniE02C" unicode="&#xe02c;" 
d="M38 269h68q-1 11 -1 22v22v22t1 22h-68v46h76q11 53 34 96.5t55.5 74t74.5 47t90 16.5q63 0 129 -35v-59q-63 42 -124 42q-72 0 -122.5 -49t-69.5 -133h208v-46h-219q0 -11 -0.5 -22t-0.5 -22t0.5 -22t0.5 -22h219v-46h-208q19 -84 69.5 -133.5t122.5 -49.5q59 0 124 42
v-59q-34 -17 -65.5 -26t-63.5 -9q-48 0 -90 16.5t-74.5 47.5t-55.5 74.5t-34 96.5h-76v46z" />
    <glyph glyph-name="uniE02D" unicode="&#xe02d;" 
d="M80 34l76 260h-68v49h83l50 170q17 57 57 90.5t95 33.5q47 0 96 -22v-58q-22 13 -44.5 20.5t-43.5 7.5q-38 0 -64 -23.5t-38 -64.5l-46 -154h147v-49h-161l-71 -244h343v-50h-411v34z" />
    <glyph glyph-name="uniE02E" unicode="&#xe02e;" 
d="M250 143h-145v47h145v89h-145v47h131l-193 300h72l167 -268l166 268h72l-193 -300h131v-47h-145v-89h145v-47h-145v-143h-63v143z" />
    <glyph glyph-name="uniE030" unicode="&#xe030;" horiz-adv-x="573" 
d="M49 266q0 61 17.5 112t49 88t75.5 57.5t96 20.5t95.5 -20.5t75 -57.5t49 -88t17.5 -112t-17.5 -112t-49 -88t-75 -57.5t-95.5 -20.5t-96 20.5t-75.5 57.5t-49 88t-17.5 112zM113 266q0 -50 13 -91.5t36 -71.5t55 -46.5t70 -16.5t70 16.5t55 46.5t35.5 71.5t12.5 91.5
t-12.5 91.5t-35.5 71t-55 46t-70 16.5t-70 -16.5t-55 -46t-36 -71t-13 -91.5z" />
    <glyph glyph-name="uniE031" unicode="&#xe031;" horiz-adv-x="320" 
d="M171 467l-144 -86v58l160 93h46v-532h-62v467z" />
    <glyph glyph-name="uniE032" unicode="&#xe032;" horiz-adv-x="424" 
d="M33 46q138 112 204.5 193t66.5 138q0 51 -30 82.5t-78 31.5q-36 0 -73.5 -15t-73.5 -45v62q38 25 77 38t79 13q36 0 65.5 -11.5t51.5 -32.5t34 -49.5t12 -62.5q0 -126 -246 -336h254v-52h-343v46z" />
    <glyph glyph-name="uniE033" unicode="&#xe033;" horiz-adv-x="440" 
d="M139 249h31q33 0 60 9.5t47 26t31 39.5t11 50q0 52 -36.5 84.5t-94.5 32.5q-70 0 -144 -46v59q74 40 150 40q42 0 76.5 -12t59.5 -34t39 -52t14 -66q0 -53 -30.5 -93.5t-83.5 -57.5q59 -17 93.5 -61t34.5 -101q0 -38 -15.5 -69.5t-43 -54t-66.5 -35t-85 -12.5
q-78 0 -159 43v62q37 -26 76 -39.5t77 -13.5q33 0 61 9t48 25.5t31 39t11 49.5q0 28 -11.5 52t-32 41t-49.5 26.5t-64 9.5h-36v49z" />
    <glyph glyph-name="uniE034" unicode="&#xe034;" horiz-adv-x="504" 
d="M312 85h-286v42l295 405h52v-399h101v-48h-101v-179h-61v179zM312 133v305l-220 -305h220z" />
    <glyph glyph-name="uniE035" unicode="&#xe035;" horiz-adv-x="434" 
d="M368 479h-253v-201q21 3 41.5 5t40.5 2q45 0 82 -14t63.5 -39.5t41 -60.5t14.5 -77q0 -43 -16 -79.5t-44.5 -63.5t-68.5 -42t-88 -15q-36 0 -72.5 10t-71.5 28v61q35 -23 69.5 -35t69.5 -12t64 11t50 31t32.5 47t11.5 59q0 30 -11 56t-31.5 44.5t-49 29t-62.5 10.5
q-59 0 -122 -15v313h310v-53z" />
    <glyph glyph-name="uniE036" unicode="&#xe036;" horiz-adv-x="504" 
d="M362 626q-88 -69 -144 -140t-85 -143q64 49 136 49q42 0 77 -14.5t60 -40t38.5 -61.5t13.5 -78q0 -46 -15.5 -84.5t-43 -66.5t-65.5 -43.5t-83 -15.5q-44 0 -81 17t-64 47t-42 71.5t-15 91.5q0 106 58 211.5t170 199.5h85zM119 275q-3 -15 -4.5 -32t-1.5 -33
q0 -37 10 -68.5t28.5 -54t44 -35t55.5 -12.5q32 0 58.5 11t45 31.5t29 48.5t10.5 62q0 64 -37 105.5t-99 41.5q-76 0 -139 -65z" />
    <glyph glyph-name="uniE037" unicode="&#xe037;" horiz-adv-x="403" 
d="M315 479h-312v53h383v-37l-249 -589h-67z" />
    <glyph glyph-name="uniE038" unicode="&#xe038;" horiz-adv-x="504" 
d="M63 469q0 37 14 67.5t39.5 53t60 35t76.5 12.5t76.5 -12.5t59.5 -35t39 -53t14 -67.5q0 -54 -29.5 -94t-80.5 -55q57 -14 90.5 -57t33.5 -102q0 -38 -15 -69.5t-42 -54.5t-64 -36t-82 -13t-82.5 13t-64.5 36t-42 54.5t-15 69.5q0 59 33.5 102t90.5 57q-51 15 -80.5 55
t-29.5 94zM113 166q0 -56 38.5 -91.5t101.5 -35.5q62 0 100.5 35.5t38.5 91.5q0 55 -38.5 90.5t-100.5 35.5q-31 0 -57 -9.5t-44.5 -26t-28.5 -40t-10 -50.5zM126 464q0 -26 9.5 -48t26 -38.5t40 -25.5t51.5 -9q56 0 91 34.5t35 86.5q0 54 -35 88t-91 34q-57 0 -92 -34
t-35 -88z" />
    <glyph glyph-name="uniE039" unicode="&#xe039;" horiz-adv-x="504" 
d="M143 -94q88 69 144 139.5t85 143.5q-64 -49 -136 -49q-42 0 -77 14.5t-60 40t-38.5 61.5t-13.5 78q0 46 15.5 84.5t43 66.5t65.5 43.5t83 15.5q44 0 81 -17t64 -47t42 -71.5t15 -91.5q0 -106 -58 -211.5t-170 -199.5h-85zM386 257q3 15 4.5 32t1.5 33q0 37 -10 68
t-28.5 53.5t-44 35t-55.5 12.5q-32 0 -58 -11.5t-45 -31.5t-29.5 -48t-10.5 -62q0 -32 9.5 -58.5t27.5 -46t43 -30.5t56 -11q76 0 139 65z" />
    <glyph glyph-name="uniE040" unicode="&#xe040;" horiz-adv-x="371" 
d="M38 485q0 46 10.5 85t30 66.5t47 43t60.5 15.5t60 -15.5t46.5 -43t30.5 -66.5t11 -85q0 -47 -11 -85.5t-30.5 -66t-46.5 -43t-60 -15.5t-60.5 15.5t-47 43t-30 66t-10.5 85.5zM93 485q0 -74 25.5 -119t67.5 -45t67 45t25 119t-25 119t-67 45t-67.5 -45t-25.5 -119z" />
    <glyph glyph-name="uniE041" unicode="&#xe041;" horiz-adv-x="246" 
d="M126 629l-104 -60v51l121 68h38v-406h-55v347z" />
    <glyph glyph-name="uniE042" unicode="&#xe042;" horiz-adv-x="307" 
d="M22 318q52 46 87.5 83.5t57.5 67.5t31.5 54.5t9.5 45.5q0 35 -21 57t-55 22q-24 0 -50 -10t-51 -30v53q57 34 114 34q53 0 86.5 -32.5t33.5 -84.5q0 -24 -9 -50t-29.5 -56t-53 -65.5t-78.5 -78.5h175v-46h-248v36z" />
    <glyph glyph-name="uniE043" unicode="&#xe043;" horiz-adv-x="303" 
d="M95 510h21q38 0 63 20t25 52q0 30 -21.5 49t-55.5 19q-45 0 -94 -29v49q50 25 100 25q56 0 91 -30t35 -78q0 -33 -19 -59t-51 -37q36 -11 57.5 -39t21.5 -65q0 -51 -38.5 -81.5t-100.5 -30.5q-54 0 -105 25v52q49 -32 99 -32q39 0 64.5 20t25.5 52q0 33 -26 54t-68 21
h-24v43z" />
    <glyph glyph-name="uniE044" unicode="&#xe044;" horiz-adv-x="341" 
d="M203 392h-182v34l190 262h45v-253h63v-43h-63v-110h-53v110zM203 435v173l-127 -173h127z" />
    <glyph glyph-name="uniE045" unicode="&#xe045;" horiz-adv-x="308" 
d="M255 642h-159v-116q13 3 24 4t22 1q60 0 96 -34.5t36 -90.5q0 -58 -40.5 -94.5t-104.5 -36.5q-46 0 -94 23v53q45 -30 89 -30q42 0 68 23.5t26 61.5q0 36 -25 59t-66 23t-80 -10v210h208v-46z" />
    <glyph glyph-name="uniE046" unicode="&#xe046;" horiz-adv-x="339" 
d="M250 688q-54 -43 -91 -87t-55 -90q36 29 80 29q55 0 89.5 -35.5t34.5 -92.5q0 -61 -39 -99t-100 -38q-30 0 -54.5 11t-42 30.5t-27.5 47t-10 60.5q0 68 36.5 136t106.5 128h72zM92 456q-3 -17 -3 -36q0 -45 22.5 -72t57.5 -27q37 0 61 24.5t24 63.5q0 38 -22.5 61.5
t-58.5 23.5q-22 0 -42 -10t-39 -28z" />
    <glyph glyph-name="uniE047" unicode="&#xe047;" horiz-adv-x="277" 
d="M200 642h-193v46h256v-31l-159 -375h-56z" />
    <glyph glyph-name="uniE048" unicode="&#xe048;" horiz-adv-x="341" 
d="M44 585q0 49 35 79.5t92 30.5t92 -30.5t35 -79.5q0 -34 -18.5 -59t-49.5 -35q35 -10 56 -37.5t21 -64.5q0 -51 -37.5 -82.5t-98.5 -31.5t-98.5 31.5t-37.5 82.5q0 37 20.5 64.5t55.5 37.5q-31 10 -49 35t-18 59zM89 393q0 -33 22.5 -54t59.5 -21q36 0 59 21t23 54
q0 32 -23 53t-59 21q-37 0 -59.5 -21t-22.5 -53zM96 581q0 -31 21 -51t54 -20t53.5 20t20.5 51t-20.5 51t-53.5 20t-54 -20t-21 -51z" />
    <glyph glyph-name="uniE049" unicode="&#xe049;" horiz-adv-x="339" 
d="M89 282q109 87 145 177q-35 -29 -79 -29q-56 0 -90 35.5t-34 92.5q0 61 38.5 99t101.5 38q29 0 53.5 -11t42.5 -30.5t28 -47t10 -60.5q0 -68 -37.5 -136t-106.5 -128h-72zM247 514q3 16 3 36q0 45 -22.5 72t-58.5 27q-37 0 -60 -24.5t-23 -63.5q0 -38 22 -61.5t58 -23.5
q43 0 81 38z" />
    <glyph glyph-name="uniE04A" unicode="&#xe04a;" horiz-adv-x="344" 
d="M24 508h125v125h46v-125h125v-46h-125v-125h-46v125h-125v46z" />
    <glyph glyph-name="uniE04B" unicode="&#xe04b;" horiz-adv-x="344" 
d="M24 508h296v-46h-296v46z" />
    <glyph glyph-name="uniE04C" unicode="&#xe04c;" horiz-adv-x="344" 
d="M24 448h296v-45h-296v45zM24 567h296v-45h-296v45z" />
    <glyph glyph-name="uniE04D" unicode="&#xe04d;" horiz-adv-x="203" 
d="M195 744q-45 -57 -67.5 -122.5t-22.5 -136.5q0 -143 90 -259h-56q-43 58 -65 124t-22 135t22 135t65 124h56z" />
    <glyph glyph-name="uniE04E" unicode="&#xe04e;" horiz-adv-x="203" 
d="M9 226q45 57 68 123t23 136q0 71 -23 136.5t-68 122.5h56q43 -58 65 -123.5t22 -135.5q0 -69 -22 -135t-65 -124h-56z" />
    <glyph glyph-name="uniE050" unicode="&#xe050;" horiz-adv-x="371" 
d="M38 203q0 46 10.5 85t30 66.5t47 43t60.5 15.5t60 -15.5t46.5 -43t30.5 -66.5t11 -85q0 -47 -11 -85.5t-30.5 -66t-46.5 -43t-60 -15.5t-60.5 15.5t-47 43t-30 66t-10.5 85.5zM93 203q0 -74 25.5 -119t67.5 -45t67 45t25 119t-25 119t-67 45t-67.5 -45t-25.5 -119z" />
    <glyph glyph-name="uniE051" unicode="&#xe051;" horiz-adv-x="246" 
d="M126 347l-104 -60v51l121 68h38v-406h-55v347z" />
    <glyph glyph-name="uniE052" unicode="&#xe052;" horiz-adv-x="307" 
d="M22 36q52 46 87.5 83.5t57.5 67.5t31.5 54.5t9.5 45.5q0 35 -21 57t-55 22q-24 0 -50 -10t-51 -30v53q57 34 114 34q53 0 86.5 -32.5t33.5 -84.5q0 -24 -9 -50t-29.5 -56t-53 -65.5t-78.5 -78.5h175v-46h-248v36z" />
    <glyph glyph-name="uniE053" unicode="&#xe053;" horiz-adv-x="303" 
d="M95 228h21q38 0 63 20t25 52q0 30 -21.5 49t-55.5 19q-45 0 -94 -29v49q50 25 100 25q56 0 91 -30t35 -78q0 -33 -19 -59t-51 -37q36 -11 57.5 -39t21.5 -65q0 -51 -38.5 -81.5t-100.5 -30.5q-54 0 -105 25v52q49 -32 99 -32q39 0 64.5 20t25.5 52q0 33 -26 54t-68 21
h-24v43z" />
    <glyph glyph-name="uniE054" unicode="&#xe054;" horiz-adv-x="341" 
d="M203 110h-182v34l190 262h45v-253h63v-43h-63v-110h-53v110zM203 153v173l-127 -173h127z" />
    <glyph glyph-name="uniE055" unicode="&#xe055;" horiz-adv-x="308" 
d="M255 360h-159v-116q13 3 24 4t22 1q60 0 96 -34.5t36 -90.5q0 -58 -40.5 -94.5t-104.5 -36.5q-46 0 -94 23v53q45 -30 89 -30q42 0 68 23.5t26 61.5q0 36 -25 59t-66 23t-80 -10v210h208v-46z" />
    <glyph glyph-name="uniE056" unicode="&#xe056;" horiz-adv-x="339" 
d="M250 406q-54 -43 -91 -87t-55 -90q36 29 80 29q55 0 89.5 -35.5t34.5 -92.5q0 -61 -39 -99t-100 -38q-30 0 -54.5 11t-42 30.5t-27.5 47t-10 60.5q0 68 36.5 136t106.5 128h72zM92 174q-3 -17 -3 -36q0 -45 22.5 -72t57.5 -27q37 0 61 24.5t24 63.5q0 38 -22.5 61.5
t-58.5 23.5q-22 0 -42 -10t-39 -28z" />
    <glyph glyph-name="uniE057" unicode="&#xe057;" horiz-adv-x="277" 
d="M200 360h-193v46h256v-31l-159 -375h-56z" />
    <glyph glyph-name="uniE058" unicode="&#xe058;" horiz-adv-x="341" 
d="M44 303q0 49 35 79.5t92 30.5t92 -30.5t35 -79.5q0 -34 -18.5 -59t-49.5 -35q35 -10 56 -37.5t21 -64.5q0 -51 -37.5 -82.5t-98.5 -31.5t-98.5 31.5t-37.5 82.5q0 37 20.5 64.5t55.5 37.5q-31 10 -49 35t-18 59zM89 111q0 -33 22.5 -54t59.5 -21q36 0 59 21t23 54
q0 32 -23 53t-59 21q-37 0 -59.5 -21t-22.5 -53zM96 299q0 -31 21 -51t54 -20t53.5 20t20.5 51t-20.5 51t-53.5 20t-54 -20t-21 -51z" />
    <glyph glyph-name="uniE059" unicode="&#xe059;" horiz-adv-x="339" 
d="M89 0q109 87 145 177q-35 -29 -79 -29q-56 0 -90 35.5t-34 92.5q0 61 38.5 99t101.5 38q29 0 53.5 -11t42.5 -30.5t28 -47t10 -60.5q0 -68 -37.5 -136t-106.5 -128h-72zM247 232q3 16 3 36q0 45 -22.5 72t-58.5 27q-37 0 -60 -24.5t-23 -63.5q0 -38 22 -61.5t58 -23.5
q43 0 81 38z" />
    <glyph glyph-name="uniE05A" unicode="&#xe05a;" horiz-adv-x="344" 
d="M24 226h125v125h46v-125h125v-46h-125v-125h-46v125h-125v46z" />
    <glyph glyph-name="uniE05B" unicode="&#xe05b;" horiz-adv-x="344" 
d="M24 226h296v-46h-296v46z" />
    <glyph glyph-name="uniE05C" unicode="&#xe05c;" horiz-adv-x="344" 
d="M24 166h296v-45h-296v45zM24 285h296v-45h-296v45z" />
    <glyph glyph-name="uniE05D" unicode="&#xe05d;" horiz-adv-x="203" 
d="M195 462q-45 -57 -67.5 -122.5t-22.5 -136.5q0 -143 90 -259h-56q-43 58 -65 124t-22 135t22 135t65 124h56z" />
    <glyph glyph-name="uniE05E" unicode="&#xe05e;" horiz-adv-x="203" 
d="M9 -56q45 57 68 123t23 136q0 71 -23 136.5t-68 122.5h56q43 -58 65 -123.5t22 -135.5q0 -69 -22 -135t-65 -124h-56z" />
    <glyph glyph-name="uniE060" unicode="&#xe060;" horiz-adv-x="160" 
d="M45 435q0 15 10 25t25 10t25 -10t10 -25t-10 -25t-25 -10t-25 10t-10 25z" />
    <glyph glyph-name="uniE061" unicode="&#xe061;" horiz-adv-x="160" 
d="M58 461h52l-54 -129h-45z" />
    <glyph glyph-name="uniE062" unicode="&#xe062;" horiz-adv-x="160" 
d="M45 -97q0 15 10 25t25 10t25 -10t10 -25t-10 -25t-25 -10t-25 10t-10 25z" />
    <glyph glyph-name="uniE063" unicode="&#xe063;" horiz-adv-x="160" 
d="M58 -71h52l-54 -129h-45z" />
    <glyph glyph-name="uniE064" unicode="&#xe064;" horiz-adv-x="160" 
d="M45 310q0 15 10 25t25 10t25 -10t10 -25t-10 -25t-25 -10t-25 10t-10 25z" />
    <glyph glyph-name="uniE065" unicode="&#xe065;" horiz-adv-x="160" 
d="M58 336h52l-54 -129h-45z" />
    <glyph glyph-name="uniE066" unicode="&#xe066;" horiz-adv-x="160" 
d="M45 28q0 15 10 25t25 10t25 -10t10 -25t-10 -25t-25 -10t-25 10t-10 25z" />
    <glyph glyph-name="uniE067" unicode="&#xe067;" horiz-adv-x="160" 
d="M58 54h52l-54 -129h-45z" />
    <glyph glyph-name="uniE080" unicode="&#xe080;" 
d="M276 785l-104 -60v51l121 68h38v-406h-55v347zM45 367h473v-45h-473v45zM150 -120q52 46 87.5 83.5t57.5 67.5t31.5 54.5t9.5 45.5q0 35 -21 57t-55 22q-24 0 -50 -10t-51 -30v53q57 34 114 34q53 0 86.5 -32.5t33.5 -84.5q0 -24 -9 -50t-29.5 -56t-53 -65.5t-78.5 -78.5
h175v-46h-248v36z" />
    <glyph glyph-name="uniE081" unicode="&#xe081;" 
d="M276 785l-104 -60v51l121 68h38v-406h-55v347zM45 367h473v-45h-473v45zM225 72h21q38 0 63 20t25 52q0 30 -21.5 49t-55.5 19q-45 0 -94 -29v49q50 25 100 25q56 0 91 -30t35 -78q0 -33 -19 -59t-51 -37q36 -11 57.5 -39t21.5 -65q0 -51 -38.5 -81.5t-100.5 -30.5
q-54 0 -105 25v52q49 -32 99 -32q39 0 64.5 20t25.5 52q0 33 -26 54t-68 21h-24v43z" />
    <glyph glyph-name="uniE082" unicode="&#xe082;" 
d="M150 474q52 46 87.5 83.5t57.5 67.5t31.5 54.5t9.5 45.5q0 35 -21 57t-55 22q-24 0 -50 -10t-51 -30v53q57 34 114 34q53 0 86.5 -32.5t33.5 -84.5q0 -24 -9 -50t-29.5 -56t-53 -65.5t-78.5 -78.5h175v-46h-248v36zM45 367h473v-45h-473v45zM225 72h21q38 0 63 20t25 52
q0 30 -21.5 49t-55.5 19q-45 0 -94 -29v49q50 25 100 25q56 0 91 -30t35 -78q0 -33 -19 -59t-51 -37q36 -11 57.5 -39t21.5 -65q0 -51 -38.5 -81.5t-100.5 -30.5q-54 0 -105 25v52q49 -32 99 -32q39 0 64.5 20t25.5 52q0 33 -26 54t-68 21h-24v43z" />
    <glyph glyph-name="uniE083" unicode="&#xe083;" 
d="M276 785l-104 -60v51l121 68h38v-406h-55v347zM45 367h473v-45h-473v45zM314 -46h-182v34l190 262h45v-253h63v-43h-63v-110h-53v110zM314 -3v173l-127 -173h127z" />
    <glyph glyph-name="uniE084" unicode="&#xe084;" 
d="M225 666h21q38 0 63 20t25 52q0 30 -21.5 49t-55.5 19q-45 0 -94 -29v49q50 25 100 25q56 0 91 -30t35 -78q0 -33 -19 -59t-51 -37q36 -11 57.5 -39t21.5 -65q0 -51 -38.5 -81.5t-100.5 -30.5q-54 0 -105 25v52q49 -32 99 -32q39 0 64.5 20t25.5 52q0 33 -26 54t-68 21
h-24v43zM45 367h473v-45h-473v45zM314 -46h-182v34l190 262h45v-253h63v-43h-63v-110h-53v110zM314 -3v173l-127 -173h127z" />
    <glyph glyph-name="uniE085" unicode="&#xe085;" 
d="M276 785l-104 -60v51l121 68h38v-406h-55v347zM45 367h473v-45h-473v45zM383 204h-159v-116q13 3 24 4t22 1q60 0 96 -34.5t36 -90.5q0 -58 -40.5 -94.5t-104.5 -36.5q-46 0 -94 23v53q45 -30 89 -30q42 0 68 23.5t26 61.5q0 36 -25 59t-66 23t-80 -10v210h208v-46z" />
    <glyph glyph-name="uniE086" unicode="&#xe086;" 
d="M150 474q52 46 87.5 83.5t57.5 67.5t31.5 54.5t9.5 45.5q0 35 -21 57t-55 22q-24 0 -50 -10t-51 -30v53q57 34 114 34q53 0 86.5 -32.5t33.5 -84.5q0 -24 -9 -50t-29.5 -56t-53 -65.5t-78.5 -78.5h175v-46h-248v36zM45 367h473v-45h-473v45zM383 204h-159v-116q13 3 24 4
t22 1q60 0 96 -34.5t36 -90.5q0 -58 -40.5 -94.5t-104.5 -36.5q-46 0 -94 23v53q45 -30 89 -30q42 0 68 23.5t26 61.5q0 36 -25 59t-66 23t-80 -10v210h208v-46z" />
    <glyph glyph-name="uniE087" unicode="&#xe087;" 
d="M223 666h21q38 0 63 20t25 52q0 30 -21.5 49t-55.5 19q-45 0 -94 -29v49q50 25 100 25q56 0 91 -30t35 -78q0 -33 -19 -59t-51 -37q36 -11 57.5 -39t21.5 -65q0 -51 -38.5 -81.5t-100.5 -30.5q-54 0 -105 25v52q49 -32 99 -32q39 0 64.5 20t25.5 52q0 33 -26 54t-68 21
h-24v43zM45 367h473v-45h-473v45zM383 204h-159v-116q13 3 24 4t22 1q60 0 96 -34.5t36 -90.5q0 -58 -40.5 -94.5t-104.5 -36.5q-46 0 -94 23v53q45 -30 89 -30q42 0 68 23.5t26 61.5q0 36 -25 59t-66 23t-80 -10v210h208v-46z" />
    <glyph glyph-name="uniE088" unicode="&#xe088;" 
d="M314 548h-182v34l190 262h45v-253h63v-43h-63v-110h-53v110zM314 591v173l-127 -173h127zM45 367h473v-45h-473v45zM383 204h-159v-116q13 3 24 4t22 1q60 0 96 -34.5t36 -90.5q0 -58 -40.5 -94.5t-104.5 -36.5q-46 0 -94 23v53q45 -30 89 -30q42 0 68 23.5t26 61.5
q0 36 -25 59t-66 23t-80 -10v210h208v-46z" />
    <glyph glyph-name="uniE089" unicode="&#xe089;" 
d="M276 785l-104 -60v51l121 68h38v-406h-55v347zM45 367h473v-45h-473v45zM362 250q-54 -43 -91 -87t-55 -90q36 29 80 29q55 0 89.5 -35.5t34.5 -92.5q0 -61 -39 -99t-100 -38q-30 0 -54.5 11t-42 30.5t-27.5 47t-10 60.5q0 68 36.5 136t106.5 128h72zM204 18
q-3 -17 -3 -36q0 -45 22.5 -72t57.5 -27q37 0 61 24.5t24 63.5q0 38 -22.5 61.5t-58.5 23.5q-22 0 -42 -10t-39 -28z" />
    <glyph glyph-name="uniE08A" unicode="&#xe08a;" 
d="M383 798h-159v-116q13 3 24 4t22 1q60 0 96 -34.5t36 -90.5q0 -58 -40.5 -94.5t-104.5 -36.5q-46 0 -94 23v53q45 -30 89 -30q42 0 68 23.5t26 61.5q0 36 -25 59t-66 23t-80 -10v210h208v-46zM45 367h473v-45h-473v45zM362 250q-54 -43 -91 -87t-55 -90q36 29 80 29
q55 0 89.5 -35.5t34.5 -92.5q0 -61 -39 -99t-100 -38q-30 0 -54.5 11t-42 30.5t-27.5 47t-10 60.5q0 68 36.5 136t106.5 128h72zM204 18q-3 -17 -3 -36q0 -45 22.5 -72t57.5 -27q37 0 61 24.5t24 63.5q0 38 -22.5 61.5t-58.5 23.5q-22 0 -42 -10t-39 -28z" />
    <glyph glyph-name="uniE08B" unicode="&#xe08b;" 
d="M276 785l-104 -60v51l121 68h38v-406h-55v347zM45 367h473v-45h-473v45zM155 147q0 49 35 79.5t92 30.5t92 -30.5t35 -79.5q0 -34 -18.5 -59t-49.5 -35q35 -10 56 -37.5t21 -64.5q0 -51 -37.5 -82.5t-98.5 -31.5t-98.5 31.5t-37.5 82.5q0 37 20.5 64.5t55.5 37.5
q-31 10 -49 35t-18 59zM200 -45q0 -33 22.5 -54t59.5 -21q36 0 59 21t23 54q0 32 -23 53t-59 21q-37 0 -59.5 -21t-22.5 -53zM207 143q0 -31 21 -51t54 -20t53.5 20t20.5 51t-20.5 51t-53.5 20t-54 -20t-21 -51z" />
    <glyph glyph-name="uniE08C" unicode="&#xe08c;" 
d="M223 666h21q38 0 63 20t25 52q0 30 -21.5 49t-55.5 19q-45 0 -94 -29v49q50 25 100 25q56 0 91 -30t35 -78q0 -33 -19 -59t-51 -37q36 -11 57.5 -39t21.5 -65q0 -51 -38.5 -81.5t-100.5 -30.5q-54 0 -105 25v52q49 -32 99 -32q39 0 64.5 20t25.5 52q0 33 -26 54t-68 21
h-24v43zM45 367h473v-45h-473v45zM155 147q0 49 35 79.5t92 30.5t92 -30.5t35 -79.5q0 -34 -18.5 -59t-49.5 -35q35 -10 56 -37.5t21 -64.5q0 -51 -37.5 -82.5t-98.5 -31.5t-98.5 31.5t-37.5 82.5q0 37 20.5 64.5t55.5 37.5q-31 10 -49 35t-18 59zM200 -45q0 -33 22.5 -54
t59.5 -21q36 0 59 21t23 54q0 32 -23 53t-59 21q-37 0 -59.5 -21t-22.5 -53zM207 143q0 -31 21 -51t54 -20t53.5 20t20.5 51t-20.5 51t-53.5 20t-54 -20t-21 -51z" />
    <glyph glyph-name="uniE08D" unicode="&#xe08d;" 
d="M383 798h-159v-116q13 3 24 4t22 1q60 0 96 -34.5t36 -90.5q0 -58 -40.5 -94.5t-104.5 -36.5q-46 0 -94 23v53q45 -30 89 -30q42 0 68 23.5t26 61.5q0 36 -25 59t-66 23t-80 -10v210h208v-46zM45 367h473v-45h-473v45zM155 147q0 49 35 79.5t92 30.5t92 -30.5t35 -79.5
q0 -34 -18.5 -59t-49.5 -35q35 -10 56 -37.5t21 -64.5q0 -51 -37.5 -82.5t-98.5 -31.5t-98.5 31.5t-37.5 82.5q0 37 20.5 64.5t55.5 37.5q-31 10 -49 35t-18 59zM200 -45q0 -33 22.5 -54t59.5 -21q36 0 59 21t23 54q0 32 -23 53t-59 21q-37 0 -59.5 -21t-22.5 -53zM207 143
q0 -31 21 -51t54 -20t53.5 20t20.5 51t-20.5 51t-53.5 20t-54 -20t-21 -51z" />
    <glyph glyph-name="uniE08E" unicode="&#xe08e;" 
d="M343 798h-193v46h256v-31l-159 -375h-56zM45 367h473v-45h-473v45zM155 147q0 49 35 79.5t92 30.5t92 -30.5t35 -79.5q0 -34 -18.5 -59t-49.5 -35q35 -10 56 -37.5t21 -64.5q0 -51 -37.5 -82.5t-98.5 -31.5t-98.5 31.5t-37.5 82.5q0 37 20.5 64.5t55.5 37.5
q-31 10 -49 35t-18 59zM200 -45q0 -33 22.5 -54t59.5 -21q36 0 59 21t23 54q0 32 -23 53t-59 21q-37 0 -59.5 -21t-22.5 -53zM207 143q0 -31 21 -51t54 -20t53.5 20t20.5 51t-20.5 51t-53.5 20t-54 -20t-21 -51z" />
    <glyph glyph-name="uniE08F" unicode="&#xe08f;" 
d="M276 785l-104 -60v51l121 68h38v-406h-55v347zM45 367h473v-45h-473v45z" />
    <glyph glyph-name="uniE100" unicode="&#xe100;" horiz-adv-x="394" 
d="M174 688h46l162 -406h-55l-44 112h-172l-44 -112h-55zM127 436h140l-70 179z" />
    <glyph glyph-name="uniE101" unicode="&#xe101;" horiz-adv-x="373" 
d="M116 325h87q36 0 57 19.5t21 51.5q0 31 -21 51t-57 20h-87v-142zM116 509h78q33 0 53.5 19t20.5 49t-20.5 49t-53.5 19h-78v-136zM63 688h140q53 0 85.5 -29t32.5 -77q0 -32 -16.5 -56t-45.5 -35q35 -10 55.5 -37.5t20.5 -62.5q0 -49 -33.5 -79t-88.5 -30h-150v406z" />
    <glyph glyph-name="uniE102" unicode="&#xe102;" horiz-adv-x="377" 
d="M35 485q0 46 14.5 84.5t40.5 66.5t62 43.5t79 15.5q56 0 112 -30v-51q-56 34 -105 34q-32 0 -59 -12t-46.5 -33.5t-30 -51.5t-10.5 -66t10.5 -66t30 -52t46.5 -34t59 -12q50 0 105 35v-51q-28 -16 -56.5 -23t-55.5 -7q-43 0 -79 15.5t-62 43.5t-40.5 66.5t-14.5 84.5z
" />
    <glyph glyph-name="uniE103" unicode="&#xe103;" horiz-adv-x="428" 
d="M63 688h133q43 0 79 -15t62.5 -42t41 -64t14.5 -82t-14.5 -82t-41 -64t-62.5 -42t-79 -15h-133v406zM118 327h74q32 0 58.5 11.5t46 32.5t30 50t10.5 64t-10.5 64t-30 50t-46 32.5t-58.5 11.5h-74v-316z" />
    <glyph glyph-name="uniE104" unicode="&#xe104;" horiz-adv-x="340" 
d="M63 688h236v-45h-181v-133h158v-43h-158v-140h186v-45h-241v406z" />
    <glyph glyph-name="uniE105" unicode="&#xe105;" horiz-adv-x="327" 
d="M63 688h236v-45h-181v-142h158v-46h-158v-173h-55v406z" />
    <glyph glyph-name="uniE106" unicode="&#xe106;" horiz-adv-x="415" 
d="M369 309q-68 -34 -135 -34q-44 0 -80.5 15.5t-62.5 43.5t-41 66.5t-15 84.5t14.5 84.5t41 66.5t63 43.5t80.5 15.5q60 0 119 -32v-54q-29 20 -57 30.5t-55 10.5q-33 0 -60.5 -12t-47 -34t-30.5 -52.5t-11 -66.5t10.5 -66.5t30 -52.5t46.5 -34t59 -12q19 0 38.5 5t39.5 13
v113h-95v43h148v-185z" />
    <glyph glyph-name="uniE107" unicode="&#xe107;" horiz-adv-x="452" 
d="M63 688h55v-178h216v178h55v-406h-55v184h-216v-184h-55v406z" />
    <glyph glyph-name="uniE108" unicode="&#xe108;" horiz-adv-x="182" 
d="M63 688h55v-406h-55v406z" />
    <glyph glyph-name="uniE109" unicode="&#xe109;" horiz-adv-x="286" 
d="M226 390q0 -51 -33 -83t-86 -32q-39 0 -79 18v49q36 -21 68 -21q33 0 54 21t21 53v293h55v-298z" />
    <glyph glyph-name="uniE10A" unicode="&#xe10a;" horiz-adv-x="378" 
d="M63 688h54v-181l176 181h67l-192 -200l198 -206h-68l-181 188v-188h-54v406z" />
    <glyph glyph-name="uniE10B" unicode="&#xe10b;" horiz-adv-x="309" 
d="M63 688h55v-361h174v-45h-229v406z" />
    <glyph glyph-name="uniE10C" unicode="&#xe10c;" horiz-adv-x="505" 
d="M63 688h49l140 -200l141 200h48v-406h-52v317l-119 -170h-34l-120 170v-317h-53v406z" />
    <glyph glyph-name="uniE10D" unicode="&#xe10d;" horiz-adv-x="452" 
d="M63 688h49l224 -318v318h53v-406h-49l-224 317v-317h-53v406z" />
    <glyph glyph-name="uniE10E" unicode="&#xe10e;" horiz-adv-x="452" 
d="M35 485q0 46 14 85t39 66.5t60.5 43t77.5 15.5t77 -15.5t60.5 -43t39.5 -66.5t14 -85q0 -47 -14 -85.5t-39.5 -66t-60.5 -43t-77 -15.5t-77.5 15.5t-60.5 43t-39 66t-14 85.5zM92 485q0 -36 10 -66.5t27.5 -52t42 -33.5t54.5 -12q29 0 54 12t43 33.5t28 52t10 66.5
t-10 66t-28 51.5t-43 33.5t-54 12q-30 0 -54.5 -12t-42 -33.5t-27.5 -51.5t-10 -66z" />
    <glyph glyph-name="uniE10F" unicode="&#xe10f;" horiz-adv-x="361" 
d="M63 688h131q30 0 55.5 -9.5t43.5 -26t28.5 -39.5t10.5 -51q0 -29 -10.5 -52.5t-28.5 -40t-43.5 -26t-55.5 -9.5h-77v-152h-54v406zM117 479h69q40 0 65.5 22.5t25.5 60.5q0 37 -25.5 59.5t-65.5 22.5h-69v-165z" />
    <glyph glyph-name="uniE110" unicode="&#xe110;" horiz-adv-x="451" 
d="M35 485q0 46 14 85t39 66.5t60.5 43t77.5 15.5t77 -15.5t60.5 -43t39.5 -66.5t14 -85q0 -59 -22 -104.5t-61 -73.5l81 -86h-65l-59 65q-31 -11 -65 -11q-42 0 -77.5 15.5t-60.5 43t-39 66t-14 85.5zM92 485q0 -36 10 -66.5t27.5 -52t42 -33.5t54.5 -12q29 0 54 12
t43 33.5t28 52t10 66.5t-10 66t-28 51.5t-43 33.5t-54 12q-30 0 -54.5 -12t-42 -33.5t-27.5 -51.5t-10 -66z" />
    <glyph glyph-name="uniE111" unicode="&#xe111;" horiz-adv-x="373" 
d="M117 483h66q39 0 64 22.5t25 58.5q0 35 -25 58t-64 23h-66v-162zM63 688h128q30 0 55 -9.5t43.5 -26t28.5 -39t10 -49.5q0 -44 -24.5 -75.5t-66.5 -42.5l102 -164h-60l-97 157h-65v-157h-54v406z" />
    <glyph glyph-name="uniE112" unicode="&#xe112;" horiz-adv-x="335" 
d="M45 356q57 -37 111 -37q40 0 64.5 19.5t24.5 51.5q0 25 -15.5 39t-38.5 23.5t-49.5 18t-49.5 21.5t-38.5 34t-15.5 56q0 51 38 82t99 31q52 0 106 -23v-53q-25 16 -51 23.5t-51 7.5q-38 0 -62 -18.5t-24 -48.5q0 -24 15.5 -37.5t38.5 -23t49.5 -18t49.5 -22t38.5 -35
t15.5 -56.5q0 -26 -10.5 -47t-29 -36.5t-44 -24t-56.5 -8.5q-59 0 -115 28v53z" />
    <glyph glyph-name="uniE113" unicode="&#xe113;" horiz-adv-x="361" 
d="M153 643h-130v45h316v-45h-131v-361h-55v361z" />
    <glyph glyph-name="uniE114" unicode="&#xe114;" horiz-adv-x="452" 
d="M391 432q0 -35 -12.5 -64t-34 -49.5t-52 -32t-66.5 -11.5t-66.5 11.5t-52 32t-34 49.5t-12.5 64v256h55v-252q0 -51 30.5 -83t79.5 -32t79.5 32t30.5 83v252h55v-256z" />
    <glyph glyph-name="uniE115" unicode="&#xe115;" horiz-adv-x="394" 
d="M220 282h-46l-162 406h58l127 -329l128 329h57z" />
    <glyph glyph-name="uniE116" unicode="&#xe116;" horiz-adv-x="623" 
d="M468 282h-49l-107 335l-109 -335h-49l-138 406h55l108 -335l108 335h48l109 -335l108 335h55z" />
    <glyph glyph-name="uniE117" unicode="&#xe117;" horiz-adv-x="395" 
d="M164 488l-141 200h64l111 -160l110 160h64l-141 -200l145 -206h-65l-113 167l-114 -167h-65z" />
    <glyph glyph-name="uniE118" unicode="&#xe118;" horiz-adv-x="367" 
d="M156 456l-146 232h63l110 -181l111 181h63l-146 -232v-174h-55v174z" />
    <glyph glyph-name="uniE119" unicode="&#xe119;" horiz-adv-x="379" 
d="M31 315l239 328h-227v45h295v-34l-238 -327h243v-45h-312v33z" />
    <glyph glyph-name="uniE11A" unicode="&#xe11a;" horiz-adv-x="425" 
d="M190 688h46l161 -406h-54l-44 112h-173l-43 -112h-55zM143 436h139l-69 179zM29 208h367v-41h-367v41z" />
    <glyph glyph-name="uniE11B" unicode="&#xe11b;" horiz-adv-x="452" 
d="M35 485q0 46 14 85t39 66.5t60.5 43t77.5 15.5t77 -15.5t60.5 -43t39.5 -66.5t14 -85q0 -47 -14 -85.5t-39.5 -66t-60.5 -43t-77 -15.5t-77.5 15.5t-60.5 43t-39 66t-14 85.5zM92 485q0 -36 10 -66.5t27.5 -52t42 -33.5t54.5 -12q29 0 54 12t43 33.5t28 52t10 66.5
t-10 66t-28 51.5t-43 33.5t-54 12q-30 0 -54.5 -12t-42 -33.5t-27.5 -51.5t-10 -66zM45 208h362v-41h-362v41z" />
    <glyph glyph-name="uniE11C" unicode="&#xe11c;" horiz-adv-x="500" 
d="M35 485q0 47 16 86.5t44.5 68t68 44.5t86.5 16t86.5 -16t68 -44.5t44.5 -68t16 -86.5t-16 -86.5t-44.5 -68t-68 -44.5t-86.5 -16t-86.5 16t-68 44.5t-44.5 68t-16 86.5zM69 485q0 -40 13.5 -73t37.5 -57t57 -37.5t73 -13.5t73 13.5t57 37.5t37.5 57t13.5 73t-13.5 73
t-37.5 57t-57 37.5t-73 13.5t-73 -13.5t-57 -37.5t-37.5 -57t-13.5 -73zM217 486h34q21 0 33.5 12.5t12.5 30.5q0 19 -12.5 31t-33.5 12h-34v-86zM179 602h78q35 0 57 -20.5t22 -52.5q0 -24 -13.5 -42t-36.5 -26l57 -93h-41l-53 88h-32v-88h-38v234z" />
    <glyph glyph-name="uniE120" unicode="&#xe120;" horiz-adv-x="332" 
d="M228 313q-44 -39 -98 -39q-44 0 -71 25t-27 65q0 48 41 78t108 30h24t23 -2v26q0 28 -19.5 46t-50.5 18q-48 0 -99 -28v46q27 11 53 17.5t51 6.5q52 0 84 -29.5t32 -77.5v-213h-51v31zM85 370q0 -24 17 -39t43 -15q44 0 83 42v76q-21 3 -44 3q-45 0 -72 -18.5t-27 -48.5z
" />
    <glyph glyph-name="uniE121" unicode="&#xe121;" horiz-adv-x="368" 
d="M55 731h53v-164q40 35 88 35q31 0 56.5 -12t44 -34t28.5 -52t10 -66t-10 -66t-28.5 -52t-44 -34t-56.5 -12q-48 0 -88 35v-27h-53v449zM281 438q0 53 -26 86t-68 33t-79 -37v-164q37 -37 79 -37t68 33t26 86z" />
    <glyph glyph-name="uniE122" unicode="&#xe122;" horiz-adv-x="310" 
d="M32 438q0 36 11.5 66t32 52t49 34t62.5 12q43 0 89 -22v-50q-42 27 -81 27q-48 0 -78 -33t-30 -86t30 -86t78 -33q38 0 81 26v-49q-46 -22 -89 -22q-34 0 -62.5 12t-49 34t-32 52t-11.5 66z" />
    <glyph glyph-name="uniE123" unicode="&#xe123;" horiz-adv-x="368" 
d="M313 282h-53v27q-40 -35 -88 -35q-31 0 -56.5 12t-44 34t-29 52t-10.5 66t10.5 66t29 52t44 34t56.5 12q48 0 88 -35v164h53v-449zM87 438q0 -53 26.5 -86t68.5 -33q41 0 78 37v164q-37 37 -78 37q-42 0 -68.5 -33t-26.5 -86z" />
    <glyph glyph-name="uniE124" unicode="&#xe124;" horiz-adv-x="337" 
d="M32 440q0 36 11 65.5t30.5 51t46 33.5t58.5 12q59 0 94.5 -42.5t35.5 -111.5q0 -6 -0.5 -11.5t-1.5 -11.5h-221q3 -49 33 -79t75 -30t93 31v-48q-52 -25 -99 -25q-34 0 -62.5 12.5t-49 34.5t-32 52.5t-11.5 66.5zM255 462q-1 43 -22.5 70.5t-56.5 27.5q-38 0 -63 -27
t-28 -71h170z" />
    <glyph glyph-name="uniE125" unicode="&#xe125;" horiz-adv-x="241" 
d="M78 552h-59v42h59v53q0 40 26.5 66t68.5 26q29 0 62 -15v-46q-26 16 -51 16q-23 0 -38 -15t-15 -38v-47h91v-42h-91v-270h-53v270z" />
    <glyph glyph-name="uniE126" unicode="&#xe126;" horiz-adv-x="368" 
d="M313 278q0 -31 -11 -57t-30.5 -44.5t-46 -29t-58.5 -10.5q-53 0 -105 24v48q50 -29 100 -29q43 0 70.5 27t27.5 71v31q-40 -35 -88 -35q-31 0 -56.5 12t-44 34t-29 52t-10.5 66t10.5 66t29 52t44 34t56.5 12q48 0 88 -35v27h53v-316zM87 438q0 -53 26.5 -86t68.5 -33
q41 0 78 37v164q-37 37 -78 37q-42 0 -68.5 -33t-26.5 -86z" />
    <glyph glyph-name="uniE127" unicode="&#xe127;" horiz-adv-x="368" 
d="M55 731h53v-170q46 41 98 41q48 0 78.5 -30.5t30.5 -79.5v-210h-53v202q0 32 -19 52t-50 20q-45 0 -85 -43v-231h-53v449z" />
    <glyph glyph-name="uniE128" unicode="&#xe128;" horiz-adv-x="163" 
d="M55 594h53v-312h-53v312zM49 684q0 14 9 23.5t23 9.5q15 0 24 -9.5t9 -23.5t-9 -23.5t-24 -9.5q-14 0 -23 9.5t-9 23.5z" />
    <glyph glyph-name="uniE129" unicode="&#xe129;" horiz-adv-x="163" 
d="M49 684q0 14 9 23.5t23 9.5q15 0 24 -9.5t9 -23.5t-9 -23.5t-24 -9.5q-14 0 -23 9.5t-9 23.5zM108 229q0 -41 -26.5 -66.5t-68.5 -25.5q-29 0 -62 15v46q26 -16 51 -16q23 0 38 15t15 38v359h53v-365z" />
    <glyph glyph-name="uniE12A" unicode="&#xe12a;" horiz-adv-x="315" 
d="M55 731h52v-270l125 133h63l-142 -154l147 -158h-64l-129 138v-138h-52v449z" />
    <glyph glyph-name="uniE12B" unicode="&#xe12b;" horiz-adv-x="163" 
d="M55 731h53v-449h-53v449z" />
    <glyph glyph-name="uniE12C" unicode="&#xe12c;" horiz-adv-x="552" 
d="M55 594h53v-32q22 20 46 30t48 10q62 0 89 -50q52 50 107 50q45 0 73 -29.5t28 -77.5v-213h-53v207q0 29 -17 48t-45 19q-41 0 -81 -42v-232h-53v207q0 29 -17 48t-44 19q-41 0 -81 -42v-232h-53v312z" />
    <glyph glyph-name="uniE12D" unicode="&#xe12d;" horiz-adv-x="368" 
d="M55 594h53v-33q46 41 98 41q48 0 78.5 -30.5t30.5 -79.5v-210h-53v202q0 32 -19 52t-50 20q-45 0 -85 -43v-231h-53v312z" />
    <glyph glyph-name="uniE12E" unicode="&#xe12e;" horiz-adv-x="368" 
d="M32 438q0 36 11 66t31.5 52t48.5 34t61 12t61 -12t48 -34t31 -52t11 -66t-11 -66t-31 -52t-48 -34t-61 -12t-61 12t-48.5 34t-31.5 52t-11 66zM87 438q0 -53 27 -86t70 -33q44 0 70.5 33t26.5 86t-26.5 86t-70.5 33q-43 0 -70 -33t-27 -86z" />
    <glyph glyph-name="uniE12F" unicode="&#xe12f;" horiz-adv-x="368" 
d="M55 594h53v-27q40 35 88 35q31 0 56.5 -12t44 -34t28.5 -52t10 -66t-10 -66t-28.5 -52t-44 -34t-56.5 -12q-48 0 -88 35v-164h-53v449zM281 438q0 53 -26 86t-68 33t-79 -37v-164q37 -37 79 -37t68 33t26 86z" />
    <glyph glyph-name="uniE130" unicode="&#xe130;" horiz-adv-x="368" 
d="M313 145h-53v164q-40 -35 -88 -35q-31 0 -56.5 12t-44 34t-29 52t-10.5 66t10.5 66t29 52t44 34t56.5 12q48 0 88 -35v27h53v-449zM87 438q0 -53 26.5 -86t68.5 -33q41 0 78 37v164q-37 37 -78 37q-42 0 -68.5 -33t-26.5 -86z" />
    <glyph glyph-name="uniE131" unicode="&#xe131;" horiz-adv-x="247" 
d="M55 594h53v-37q37 45 85 45q13 0 31 -5v-47q-9 2 -17.5 3t-16.5 1q-22 0 -43.5 -12t-38.5 -36v-224h-53v312z" />
    <glyph glyph-name="uniE132" unicode="&#xe132;" horiz-adv-x="277" 
d="M40 346q44 -29 88 -29q28 0 45.5 13t17.5 36q0 17 -11.5 27.5t-29 17.5t-37.5 13.5t-37.5 16.5t-29 26.5t-11.5 43.5q0 41 30.5 66t79.5 25q40 0 84 -19v-48q-39 24 -80 24q-27 0 -44 -13t-17 -34q0 -17 11.5 -26.5t29 -16.5t37.5 -13t37.5 -16.5t29 -27.5t11.5 -45
q0 -42 -31 -67.5t-81 -25.5q-45 0 -92 22v50z" />
    <glyph glyph-name="uniE133" unicode="&#xe133;" horiz-adv-x="266" 
d="M131 594h104v-42h-104v-180q0 -23 15 -38t38 -15q24 0 51 15v-46q-34 -14 -62 -14q-42 0 -68.5 25.5t-26.5 66.5v186h-59v42h59v88h53v-88z" />
    <glyph glyph-name="uniE134" unicode="&#xe134;" horiz-adv-x="368" 
d="M313 282h-53v33q-46 -41 -98 -41q-48 0 -78.5 30.5t-30.5 79.5v210h52v-202q0 -32 19.5 -52t50.5 -20q46 0 85 43v231h53v-312z" />
    <glyph glyph-name="uniE135" unicode="&#xe135;" horiz-adv-x="324" 
d="M184 282h-44l-124 312h54l92 -240l92 240h54z" />
    <glyph glyph-name="uniE136" unicode="&#xe136;" horiz-adv-x="500" 
d="M375 282h-48l-77 245l-77 -245h-48l-107 312h53l78 -245l77 245h47l78 -245l78 245h53z" />
    <glyph glyph-name="uniE137" unicode="&#xe137;" horiz-adv-x="327" 
d="M131 440l-107 154h60l79 -115l79 115h61l-107 -154l111 -158h-62l-82 120l-81 -120h-62z" />
    <glyph glyph-name="uniE138" unicode="&#xe138;" horiz-adv-x="324" 
d="M130 145h-51l58 145l-121 304h54l92 -240l92 240h54z" />
    <glyph glyph-name="uniE139" unicode="&#xe139;" horiz-adv-x="311" 
d="M31 313l174 239h-165v42h231v-31l-173 -239h177v-42h-244v31z" />
    <glyph glyph-name="uniE13A" unicode="&#xe13a;" horiz-adv-x="368" 
d="M313 282h-53v27q-40 -35 -88 -35q-31 0 -56.5 12t-44 34t-29 52t-10.5 66t10.5 66t29 52t44 34t56.5 12q48 0 88 -35v27h53v-312zM87 438q0 -53 26.5 -86t68.5 -33q41 0 78 37v164q-37 37 -78 37q-42 0 -68.5 -33t-26.5 -86z" />
    <glyph glyph-name="uniE13B" unicode="&#xe13b;" horiz-adv-x="203" 
d="M108 361q0 -19 11.5 -30.5t30.5 -11.5q22 0 41 11v-45q-27 -11 -52 -11q-37 0 -60.5 22.5t-23.5 59.5v375h53v-370z" />
    <glyph glyph-name="uniE13C" unicode="&#xe13c;" horiz-adv-x="368" 
d="M313 278q0 -31 -11 -57t-30.5 -44.5t-46 -29t-58.5 -10.5q-53 0 -105 24v48q50 -29 100 -29q43 0 70.5 27t27.5 71v37q-46 -41 -98 -41q-48 0 -78.5 30.5t-30.5 79.5v210h52v-202q0 -32 19.5 -52t50.5 -20q46 0 85 43v231h53v-316z" />
    <glyph glyph-name="uniE13D" unicode="&#xe13d;" horiz-adv-x="368" 
d="M313 375h-53v28q-40 -35 -88 -35q-31 0 -56.5 12t-44 33.5t-29 52t-10.5 66.5t10.5 66t29 52t44 34t56.5 12q48 0 88 -35v27h53v-313zM87 532q0 -53 26.5 -86t68.5 -33q40 0 78 36v165q-36 36 -78 36t-68.5 -32.5t-26.5 -85.5zM45 302h278v-41h-278v41z" />
    <glyph glyph-name="uniE200" unicode="&#xe200;" horiz-adv-x="513" 
d="M232 532h51l212 -532h-63l-60 152h-231l-60 -152h-62zM160 200h194l-97 247z" />
    <glyph glyph-name="uniE201" unicode="&#xe201;" horiz-adv-x="488" 
d="M148 48h118q51 0 79.5 27.5t28.5 72.5q0 44 -28.5 71t-79.5 27h-118v-198zM148 293h105q47 0 75 26.5t28 68.5t-28 69t-75 27h-105v-191zM87 532h178q33 0 61.5 -10.5t49 -28.5t32 -43.5t11.5 -55.5q0 -43 -23.5 -75.5t-62.5 -46.5q48 -14 76 -48.5t28 -81.5
q0 -31 -12 -57t-33 -45t-50 -29.5t-64 -10.5h-191v532z" />
    <glyph glyph-name="uniE202" unicode="&#xe202;" horiz-adv-x="496" 
d="M49 266q0 61 18.5 112t52.5 88t80 57.5t102 20.5q75 0 146 -40v-59q-70 46 -139 46q-43 0 -78.5 -16.5t-61.5 -46.5t-40.5 -71.5t-14.5 -90.5q0 -50 14.5 -91.5t40.5 -71.5t61.5 -46.5t78.5 -16.5q68 0 139 47v-60q-35 -19 -71.5 -29t-74.5 -10q-56 0 -102 20.5t-80 57.5
t-52.5 88t-18.5 112z" />
    <glyph glyph-name="uniE203" unicode="&#xe203;" horiz-adv-x="560" 
d="M87 532h165q57 0 105 -19.5t82 -55t53 -84.5t19 -107q0 -59 -19 -107.5t-53 -84t-82 -55t-105 -19.5h-165v532zM150 50h98q44 0 81 15.5t63.5 44t41 68.5t14.5 88t-14.5 87.5t-41 68t-63.5 44.5t-81 16h-98v-432z" />
    <glyph glyph-name="uniE204" unicode="&#xe204;" horiz-adv-x="448" 
d="M87 532h304v-49h-242v-189h212v-49h-212v-196h248v-49h-310v532z" />
    <glyph glyph-name="uniE205" unicode="&#xe205;" horiz-adv-x="429" 
d="M87 532h304v-49h-242v-198h212v-50h-212v-235h-62v532z" />
    <glyph glyph-name="uniE206" unicode="&#xe206;" horiz-adv-x="541" 
d="M479 33q-43 -20 -85.5 -32.5t-86.5 -12.5q-57 0 -104.5 20.5t-81.5 57.5t-53 88t-19 112t19 112t53 88t81.5 57.5t104.5 20.5q39 0 78 -11.5t76 -32.5v-61q-36 26 -74 39.5t-74 13.5q-44 0 -81 -16.5t-63.5 -46.5t-41 -71.5t-14.5 -91.5t14.5 -91.5t40.5 -71.5t62 -46.5
t80 -16.5q54 0 110 25v161h-128v48h187v-241z" />
    <glyph glyph-name="uniE207" unicode="&#xe207;" horiz-adv-x="592" 
d="M87 532h63v-238h293v238h62v-532h-62v245h-293v-245h-63v532z" />
    <glyph glyph-name="uniE208" unicode="&#xe208;" horiz-adv-x="237" 
d="M87 532h63v-532h-63v532z" />
    <glyph glyph-name="uniE209" unicode="&#xe209;" horiz-adv-x="376" 
d="M293 137q0 -32 -11.5 -59.5t-31.5 -47.5t-48 -31t-61 -11q-52 0 -102 26v56q49 -30 91 -30q45 0 73.5 29t28.5 74v389h61v-395z" />
    <glyph glyph-name="uniE20A" unicode="&#xe20a;" horiz-adv-x="490" 
d="M87 532h62v-242l238 242h77l-256 -262l263 -270h-79l-243 249v-249h-62v532z" />
    <glyph glyph-name="uniE20B" unicode="&#xe20b;" horiz-adv-x="408" 
d="M87 532h63v-482h229v-50h-292v532z" />
    <glyph glyph-name="uniE20C" unicode="&#xe20c;" horiz-adv-x="661" 
d="M87 532h56l187 -267l188 267h56v-532h-60v430l-164 -235h-38l-165 235v-430h-60v532z" />
    <glyph glyph-name="uniE20D" unicode="&#xe20d;" horiz-adv-x="592" 
d="M87 532h56l302 -430v430h60v-532h-56l-302 430v-430h-60v532z" />
    <glyph glyph-name="uniE20E" unicode="&#xe20e;" horiz-adv-x="592" 
d="M49 266q0 61 18 112t51 88t78.5 57.5t99.5 20.5t99.5 -20.5t78.5 -57.5t51 -88t18 -112t-18 -112t-51 -88t-78.5 -57.5t-99.5 -20.5t-99.5 20.5t-78.5 57.5t-51 88t-18 112zM113 266q0 -50 13.5 -91.5t38 -71.5t58 -46.5t73.5 -16.5t73.5 16.5t58 46.5t38 71.5t13.5 91.5
q0 49 -13.5 90.5t-38 71.5t-58 46.5t-73.5 16.5t-73.5 -16.5t-58 -46.5t-38 -71.5t-13.5 -90.5z" />
    <glyph glyph-name="uniE20F" unicode="&#xe20f;" horiz-adv-x="471" 
d="M87 532h164q39 0 72 -12t57 -33.5t37.5 -52t13.5 -66.5t-13.5 -66t-37.5 -51.5t-57 -33.5t-72 -12h-102v-205h-62v532zM149 253h94q56 0 90.5 32t34.5 83t-34.5 83t-90.5 32h-94v-230z" />
    <glyph glyph-name="uniE210" unicode="&#xe210;" horiz-adv-x="592" 
d="M49 266q0 61 18 112t51 88t78.5 57.5t99.5 20.5t99.5 -20.5t78.5 -57.5t51 -88t18 -112q0 -78 -29 -139t-80 -96l106 -113h-75l-81 88q-41 -18 -88 -18q-54 0 -99.5 20.5t-78.5 57.5t-51 88t-18 112zM113 266q0 -50 13.5 -91.5t38 -71.5t58 -46.5t73.5 -16.5t73.5 16.5
t57.5 46.5t37.5 71.5t13.5 91.5q0 49 -13.5 90.5t-37.5 71.5t-57.5 46.5t-73.5 16.5t-73.5 -16.5t-58 -46.5t-38 -71.5t-13.5 -90.5z" />
    <glyph glyph-name="uniE211" unicode="&#xe211;" horiz-adv-x="488" 
d="M149 259h91q54 0 88 31t34 81t-34 81t-88 31h-91v-224zM87 532h161q39 0 72 -12t56 -33t36 -50.5t13 -65.5q0 -58 -32.5 -98t-89.5 -55l136 -218h-68l-130 211h-92v-211h-62v532z" />
    <glyph glyph-name="uniE212" unicode="&#xe212;" horiz-adv-x="440" 
d="M64 90q35 -23 71.5 -37t71.5 -14q54 0 87.5 28t33.5 73q0 34 -20.5 53.5t-51 33t-66 25t-66 28.5t-51 44t-20.5 72q0 32 13 59t36 47t56 31t72 11q66 0 135 -32v-61q-65 41 -130 41q-54 0 -87 -26t-33 -68q0 -33 20.5 -52t51 -32t66 -24.5t66 -29t51 -45t20.5 -73.5
q0 -33 -13 -61.5t-37 -49t-56.5 -32t-71.5 -11.5q-38 0 -75 10t-73 29v63z" />
    <glyph glyph-name="uniE213" unicode="&#xe213;" horiz-adv-x="473" 
d="M205 482h-173v50h408v-50h-173v-482h-62v482z" />
    <glyph glyph-name="uniE214" unicode="&#xe214;" horiz-adv-x="592" 
d="M508 193q0 -45 -15.5 -83t-43.5 -65t-67 -42t-86 -15t-86 15t-67 42t-44 65t-16 83v339h63v-334q0 -35 11 -64t30.5 -50t47.5 -32.5t61 -11.5t60.5 11.5t48 32.5t31.5 50t11 64v334h61v-339z" />
    <glyph glyph-name="uniE215" unicode="&#xe215;" horiz-adv-x="513" 
d="M283 0h-51l-213 532h64l174 -443l173 443h65z" />
    <glyph glyph-name="uniE216" unicode="&#xe216;" horiz-adv-x="811" 
d="M607 0h-55l-146 450l-147 -450h-55l-181 532h62l147 -451l146 451h55l147 -451l146 451h62z" />
    <glyph glyph-name="uniE217" unicode="&#xe217;" horiz-adv-x="515" 
d="M221 270l-194 262h72l158 -218l159 218h72l-194 -262l200 -270h-74l-163 226l-162 -226h-74z" />
    <glyph glyph-name="uniE218" unicode="&#xe218;" horiz-adv-x="480" 
d="M209 232l-192 300h71l152 -244l151 244h72l-192 -300v-232h-62v232z" />
    <glyph glyph-name="uniE219" unicode="&#xe219;" horiz-adv-x="497" 
d="M44 39l322 443h-306v50h382v-39l-322 -443h326v-50h-402v39z" />
    <glyph glyph-name="uniE21A" unicode="&#xe21a;" horiz-adv-x="513" 
d="M232 532h51l212 -532h-63l-60 152h-231l-60 -152h-62zM160 200h194l-97 247zM133 750h69l99 -144h-56z" />
    <glyph glyph-name="uniE21B" unicode="&#xe21b;" horiz-adv-x="513" 
d="M232 532h51l212 -532h-63l-60 152h-231l-60 -152h-62zM160 200h194l-97 247zM312 750h69l-112 -144h-56z" />
    <glyph glyph-name="uniE21C" unicode="&#xe21c;" horiz-adv-x="513" 
d="M232 532h51l212 -532h-63l-60 152h-231l-60 -152h-62zM160 200h194l-97 247zM232 750h51l99 -144h-54l-71 93l-71 -93h-54z" />
    <glyph glyph-name="uniE21D" unicode="&#xe21d;" horiz-adv-x="513" 
d="M232 532h51l212 -532h-63l-60 152h-231l-60 -152h-62zM160 200h194l-97 247zM114 636q0 42 23 68.5t59 26.5q19 0 35.5 -9t30.5 -19.5t27.5 -19.5t26.5 -9q17 0 28 12.5t11 33.5h45q0 -42 -22.5 -68t-58.5 -26q-20 0 -36 9t-30.5 19.5t-28 19.5t-26.5 9q-17 0 -28 -12.5
t-11 -34.5h-45z" />
    <glyph glyph-name="uniE21E" unicode="&#xe21e;" horiz-adv-x="513" 
d="M232 532h51l212 -532h-63l-60 152h-231l-60 -152h-62zM160 200h194l-97 247zM316 678q0 19 11 30t29 11t29.5 -11t11.5 -30q0 -17 -11.5 -29t-29.5 -12t-29 12t-11 29zM117 678q0 19 11.5 30t29.5 11t29.5 -11t11.5 -30q0 -17 -11.5 -29t-29.5 -12t-29.5 12t-11.5 29z
" />
    <glyph glyph-name="uniE21F" unicode="&#xe21f;" horiz-adv-x="513" 
d="M232 532h51l212 -532h-63l-60 152h-231l-60 -152h-62zM160 200h194l-97 247zM164 678q0 42 26 67.5t67 25.5q42 0 67.5 -25.5t25.5 -67.5q0 -41 -25.5 -66.5t-67.5 -25.5q-41 0 -67 25.5t-26 66.5zM203 678q0 -23 15.5 -38.5t38.5 -15.5t38.5 15.5t15.5 38.5
q0 24 -15.5 39t-38.5 15t-38.5 -15t-15.5 -39z" />
    <glyph glyph-name="uniE221" unicode="&#xe221;" horiz-adv-x="513" 
d="M232 532h51l212 -532h-63l-60 152h-231l-60 -152h-62zM160 200h194l-97 247zM112 702h290v-47h-290v47z" />
    <glyph glyph-name="uniE222" unicode="&#xe222;" horiz-adv-x="513" 
d="M232 532h51l212 -532h-63l-60 152h-231l-60 -152h-62zM160 200h194l-97 247zM174 750q0 -38 23.5 -62.5t59.5 -24.5t59.5 24.5t23.5 62.5h47q0 -30 -9.5 -55.5t-27 -43.5t-41.5 -28t-52 -10q-29 0 -52.5 10t-41 28t-27 43.5t-9.5 55.5h47z" />
    <glyph glyph-name="uniE223" unicode="&#xe223;" horiz-adv-x="513" 
d="M432 0l-60 152h-231l-60 -152h-62l213 532h51l212 -532q-45 -26 -68.5 -56t-23.5 -62q0 -23 14 -37t36 -14q11 0 21.5 2.5t20.5 8.5v-46q-25 -13 -54 -13q-42 0 -67.5 25t-25.5 63q0 73 93 129h-9zM160 200h194l-97 247z" />
    <glyph glyph-name="uniE224" unicode="&#xe224;" horiz-adv-x="716" 
d="M195 199h160v257zM340 532h319v-49h-242v-189h212v-49h-212v-196h248v-49h-310v151h-190l-94 -151h-67z" />
    <glyph glyph-name="uniE226" unicode="&#xe226;" horiz-adv-x="496" 
d="M49 266q0 61 18.5 112t52.5 88t80 57.5t102 20.5q75 0 146 -40v-59q-70 46 -139 46q-43 0 -78.5 -16.5t-61.5 -46.5t-40.5 -71.5t-14.5 -90.5q0 -50 14.5 -91.5t40.5 -71.5t61.5 -46.5t78.5 -16.5q68 0 139 47v-60q-35 -19 -71.5 -29t-74.5 -10q-56 0 -102 20.5t-80 57.5
t-52.5 88t-18.5 112zM345 750h69l-112 -144h-56z" />
    <glyph glyph-name="uniE227" unicode="&#xe227;" horiz-adv-x="496" 
d="M49 266q0 61 18.5 112t52.5 88t80 57.5t102 20.5q75 0 146 -40v-59q-70 46 -139 46q-43 0 -78.5 -16.5t-61.5 -46.5t-40.5 -71.5t-14.5 -90.5q0 -50 14.5 -91.5t40.5 -71.5t61.5 -46.5t78.5 -16.5q68 0 139 47v-60q-35 -19 -71.5 -29t-74.5 -10q-56 0 -102 20.5t-80 57.5
t-52.5 88t-18.5 112zM265 750h51l99 -144h-54l-71 93l-71 -93h-54z" />
    <glyph glyph-name="uniE228" unicode="&#xe228;" horiz-adv-x="496" 
d="M49 266q0 61 18.5 112t52.5 88t80 57.5t102 20.5q75 0 146 -40v-59q-70 46 -139 46q-43 0 -78.5 -16.5t-61.5 -46.5t-40.5 -71.5t-14.5 -90.5q0 -50 14.5 -91.5t40.5 -71.5t61.5 -46.5t78.5 -16.5q68 0 139 47v-60q-35 -19 -71.5 -29t-74.5 -10q-56 0 -102 20.5t-80 57.5
t-52.5 88t-18.5 112zM316 606h-51l-100 144h54l71 -92l71 92h54z" />
    <glyph glyph-name="uniE229" unicode="&#xe229;" horiz-adv-x="496" 
d="M49 266q0 61 18.5 112t52.5 88t80 57.5t102 20.5q75 0 146 -40v-59q-70 46 -139 46q-43 0 -78.5 -16.5t-61.5 -46.5t-40.5 -71.5t-14.5 -90.5q0 -50 14.5 -91.5t40.5 -71.5t61.5 -46.5t78.5 -16.5q68 0 139 47v-60q-35 -19 -71.5 -29t-74.5 -10q-56 0 -102 20.5t-80 57.5
t-52.5 88t-18.5 112zM249 678q0 19 11.5 30t29.5 11q19 0 30 -11t11 -30q0 -18 -11 -29.5t-30 -11.5q-18 0 -29.5 11.5t-11.5 29.5z" />
    <glyph glyph-name="uniE22A" unicode="&#xe22a;" horiz-adv-x="496" 
d="M49 266q0 61 18.5 112t52.5 88t80 57.5t102 20.5q75 0 146 -40v-59q-70 46 -139 46q-43 0 -78.5 -16.5t-61.5 -46.5t-40.5 -71.5t-14.5 -90.5q0 -50 14.5 -91.5t40.5 -71.5t61.5 -46.5t78.5 -16.5q68 0 139 47v-60q-63 -35 -128 -38l-12 -50q35 -6 54.5 -29t19.5 -52
q0 -39 -31.5 -64t-79.5 -25q-40 0 -73 20v48q35 -23 68 -23q29 0 45 12.5t16 32.5q0 23 -17.5 36t-51.5 13h-7l20 82q-50 5 -90.5 27.5t-70 59t-45.5 84.5t-16 105z" />
    <glyph glyph-name="uniE22B" unicode="&#xe22b;" horiz-adv-x="560" 
d="M87 532h165q57 0 105 -19.5t82 -55t53 -84.5t19 -107q0 -59 -19 -107.5t-53 -84t-82 -55t-105 -19.5h-165v532zM150 50h98q44 0 81 15.5t63.5 44t41 68.5t14.5 88t-14.5 87.5t-41 68t-63.5 44.5t-81 16h-98v-432zM295 606h-51l-100 144h54l71 -92l71 92h54z" />
    <glyph glyph-name="uniE22C" unicode="&#xe22c;" horiz-adv-x="572" 
d="M99 246h-77v47h77v239h165q57 0 105 -19.5t82 -55t53 -84.5t19 -107q0 -59 -19 -107.5t-53 -84t-82 -55t-105 -19.5h-165v246zM161 293h132v-47h-132v-197h99q44 0 80.5 16t63 44.5t41.5 68.5t15 88t-15 87.5t-41.5 68.5t-63 45t-80.5 16h-99v-190z" />
    <glyph glyph-name="uniE22D" unicode="&#xe22d;" horiz-adv-x="448" 
d="M87 532h304v-49h-242v-189h212v-49h-212v-196h248v-49h-310v532zM111 750h69l99 -144h-56z" />
    <glyph glyph-name="uniE22E" unicode="&#xe22e;" horiz-adv-x="448" 
d="M87 532h304v-49h-242v-189h212v-49h-212v-196h248v-49h-310v532zM290 750h69l-112 -144h-56z" />
    <glyph glyph-name="uniE22F" unicode="&#xe22f;" horiz-adv-x="448" 
d="M87 532h304v-49h-242v-189h212v-49h-212v-196h248v-49h-310v532zM210 750h51l99 -144h-54l-71 93l-71 -93h-54z" />
    <glyph glyph-name="uniE230" unicode="&#xe230;" horiz-adv-x="448" 
d="M87 532h304v-49h-242v-189h212v-49h-212v-196h248v-49h-310v532zM261 606h-51l-100 144h54l71 -92l71 92h54z" />
    <glyph glyph-name="uniE231" unicode="&#xe231;" horiz-adv-x="448" 
d="M87 532h304v-49h-242v-189h212v-49h-212v-196h248v-49h-310v532zM294 678q0 19 11 30t29 11t29.5 -11t11.5 -30q0 -17 -11.5 -29t-29.5 -12t-29 12t-11 29zM95 678q0 19 11.5 30t29.5 11t29.5 -11t11.5 -30q0 -17 -11.5 -29t-29.5 -12t-29.5 12t-11.5 29z" />
    <glyph glyph-name="uniE232" unicode="&#xe232;" horiz-adv-x="448" 
d="M87 532h304v-49h-242v-189h212v-49h-212v-196h248v-49h-310v532zM90 702h290v-47h-290v47z" />
    <glyph glyph-name="uniE233" unicode="&#xe233;" horiz-adv-x="448" 
d="M87 532h304v-49h-242v-189h212v-49h-212v-196h248v-49h-310v532zM152 750q0 -38 23.5 -62.5t59.5 -24.5t59.5 24.5t23.5 62.5h47q0 -30 -9.5 -55.5t-27 -43.5t-41.5 -28t-52 -10q-29 0 -52.5 10t-41 28t-27 43.5t-9.5 55.5h47z" />
    <glyph glyph-name="uniE234" unicode="&#xe234;" horiz-adv-x="448" 
d="M87 532h304v-49h-242v-189h212v-49h-212v-196h248v-49h-310v532zM194 678q0 19 11.5 30t29.5 11q19 0 30 -11t11 -30q0 -18 -11 -29.5t-30 -11.5q-18 0 -29.5 11.5t-11.5 29.5z" />
    <glyph glyph-name="uniE235" unicode="&#xe235;" horiz-adv-x="448" 
d="M87 532h304v-49h-242v-189h212v-49h-212v-196h248v-49q-45 -26 -68.5 -56t-23.5 -62q0 -23 14 -37t36 -14q11 0 21.5 2.5t20.5 8.5v-46q-25 -13 -54 -13q-42 0 -67.5 25t-25.5 63q0 73 93 129h-256v532z" />
    <glyph glyph-name="uniE236" unicode="&#xe236;" horiz-adv-x="541" 
d="M479 33q-43 -20 -85.5 -32.5t-86.5 -12.5q-57 0 -104.5 20.5t-81.5 57.5t-53 88t-19 112t19 112t53 88t81.5 57.5t104.5 20.5q39 0 78 -11.5t76 -32.5v-61q-36 26 -74 39.5t-74 13.5q-44 0 -81 -16.5t-63.5 -46.5t-41 -71.5t-14.5 -91.5t14.5 -91.5t40.5 -71.5t62 -46.5
t80 -16.5q54 0 110 25v161h-128v48h187v-241zM271 750h51l99 -144h-54l-71 93l-71 -93h-54z" />
    <glyph glyph-name="uniE237" unicode="&#xe237;" horiz-adv-x="541" 
d="M479 33q-43 -20 -85.5 -32.5t-86.5 -12.5q-57 0 -104.5 20.5t-81.5 57.5t-53 88t-19 112t19 112t53 88t81.5 57.5t104.5 20.5q39 0 78 -11.5t76 -32.5v-61q-36 26 -74 39.5t-74 13.5q-44 0 -81 -16.5t-63.5 -46.5t-41 -71.5t-14.5 -91.5t14.5 -91.5t40.5 -71.5t62 -46.5
t80 -16.5q54 0 110 25v161h-128v48h187v-241zM213 750q0 -38 23.5 -62.5t59.5 -24.5t59.5 24.5t23.5 62.5h47q0 -30 -9.5 -55.5t-27 -43.5t-41.5 -28t-52 -10q-29 0 -52.5 10t-41 28t-27 43.5t-9.5 55.5h47z" />
    <glyph glyph-name="uniE238" unicode="&#xe238;" horiz-adv-x="541" 
d="M479 33q-43 -20 -85.5 -32.5t-86.5 -12.5q-57 0 -104.5 20.5t-81.5 57.5t-53 88t-19 112t19 112t53 88t81.5 57.5t104.5 20.5q39 0 78 -11.5t76 -32.5v-61q-36 26 -74 39.5t-74 13.5q-44 0 -81 -16.5t-63.5 -46.5t-41 -71.5t-14.5 -91.5t14.5 -91.5t40.5 -71.5t62 -46.5
t80 -16.5q54 0 110 25v161h-128v48h187v-241zM255 678q0 19 11.5 30t29.5 11q19 0 30 -11t11 -30q0 -18 -11 -29.5t-30 -11.5q-18 0 -29.5 11.5t-11.5 29.5z" />
    <glyph glyph-name="uniE239" unicode="&#xe239;" horiz-adv-x="541" 
d="M479 33q-43 -20 -85.5 -32.5t-86.5 -12.5q-57 0 -104.5 20.5t-81.5 57.5t-53 88t-19 112t19 112t53 88t81.5 57.5t104.5 20.5q39 0 78 -11.5t76 -32.5v-61q-36 26 -74 39.5t-74 13.5q-44 0 -81 -16.5t-63.5 -46.5t-41 -71.5t-14.5 -91.5t14.5 -91.5t40.5 -71.5t62 -46.5
t80 -16.5q54 0 110 25v161h-128v48h187v-241zM273 -74h59l-69 -168h-52z" />
    <glyph glyph-name="uniE23A" unicode="&#xe23a;" horiz-adv-x="592" 
d="M87 532h63v-238h293v238h62v-532h-62v245h-293v-245h-63v532zM271 750h51l99 -144h-54l-71 93l-71 -93h-54z" />
    <glyph glyph-name="uniE23B" unicode="&#xe23b;" horiz-adv-x="592" 
d="M87 382h-72v45h72v105h63v-105h293v105h62v-105h72v-45h-72v-382h-62v245h-293v-245h-63v382zM150 294h293v88h-293v-88z" />
    <glyph glyph-name="uniE23C" unicode="&#xe23c;" horiz-adv-x="237" 
d="M87 532h63v-532h-63v532zM-6 750h69l99 -144h-56z" />
    <glyph glyph-name="uniE23D" unicode="&#xe23d;" horiz-adv-x="237" 
d="M87 532h63v-532h-63v532zM173 750h69l-112 -144h-56z" />
    <glyph glyph-name="uniE23E" unicode="&#xe23e;" horiz-adv-x="237" 
d="M87 532h63v-532h-63v532zM93 750h51l99 -144h-54l-71 93l-71 -93h-54z" />
    <glyph glyph-name="uniE23F" unicode="&#xe23f;" horiz-adv-x="237" 
d="M87 532h63v-532h-63v532zM-25 636q0 42 23 68.5t59 26.5q19 0 35.5 -9t30.5 -19.5t27.5 -19.5t26.5 -9q17 0 28 12.5t11 33.5h45q0 -42 -22.5 -68t-58.5 -26q-20 0 -36 9t-30.5 19.5t-28 19.5t-26.5 9q-17 0 -28 -12.5t-11 -34.5h-45z" />
    <glyph glyph-name="uniE240" unicode="&#xe240;" horiz-adv-x="237" 
d="M87 532h63v-532h-63v532zM177 678q0 19 11 30t29 11t29.5 -11t11.5 -30q0 -17 -11.5 -29t-29.5 -12t-29 12t-11 29zM-22 678q0 19 11.5 30t29.5 11t29.5 -11t11.5 -30q0 -17 -11.5 -29t-29.5 -12t-29.5 12t-11.5 29z" />
    <glyph glyph-name="uniE241" unicode="&#xe241;" horiz-adv-x="237" 
d="M87 532h63v-532h-63v532zM-27 702h290v-47h-290v47z" />
    <glyph glyph-name="uniE242" unicode="&#xe242;" horiz-adv-x="237" 
d="M87 532h63v-532h-63v532zM35 750q0 -38 23.5 -62.5t59.5 -24.5t59.5 24.5t23.5 62.5h47q0 -30 -9.5 -55.5t-27 -43.5t-41.5 -28t-52 -10q-29 0 -52.5 10t-41 28t-27 43.5t-9.5 55.5h47z" />
    <glyph glyph-name="uniE243" unicode="&#xe243;" horiz-adv-x="237" 
d="M87 532h63v-532h-63v532zM77 678q0 19 11.5 30t29.5 11q19 0 30 -11t11 -30q0 -18 -11 -29.5t-30 -11.5q-18 0 -29.5 11.5t-11.5 29.5z" />
    <glyph glyph-name="uniE244" unicode="&#xe244;" horiz-adv-x="237" 
d="M87 532h63v-532q-45 -26 -68.5 -56t-23.5 -62q0 -23 14 -37t36 -14q11 0 21.5 2.5t20.5 8.5v-46q-25 -13 -54 -13q-42 0 -67.5 25t-25.5 63q0 73 93 129h-9v532z" />
    <glyph glyph-name="uniE245" unicode="&#xe245;" horiz-adv-x="613" 
d="M530 137q0 -32 -11.5 -59.5t-31.5 -47.5t-48 -31t-61 -11q-52 0 -102 26v56q49 -30 91 -30q45 0 73.5 29t28.5 74v389h61v-395zM87 532h63v-532h-63v532z" />
    <glyph glyph-name="uniE246" unicode="&#xe246;" horiz-adv-x="376" 
d="M293 137q0 -32 -11.5 -59.5t-31.5 -47.5t-48 -31t-61 -11q-52 0 -102 26v56q49 -30 91 -30q45 0 73.5 29t28.5 74v389h61v-395zM237 750h51l99 -144h-54l-71 93l-71 -93h-54z" />
    <glyph glyph-name="uniE247" unicode="&#xe247;" horiz-adv-x="490" 
d="M87 532h62v-242l238 242h77l-256 -262l263 -270h-79l-243 249v-249h-62v532zM227 -74h59l-69 -168h-52z" />
    <glyph glyph-name="uniE248" unicode="&#xe248;" horiz-adv-x="408" 
d="M87 532h63v-482h229v-50h-292v532zM173 750h69l-112 -144h-56z" />
    <glyph glyph-name="uniE249" unicode="&#xe249;" horiz-adv-x="408" 
d="M87 532h63v-482h229v-50h-292v532zM269 563h59l-61 -144h-51z" />
    <glyph glyph-name="uniE24A" unicode="&#xe24a;" horiz-adv-x="408" 
d="M87 532h63v-482h229v-50h-292v532zM282 272q0 19 11.5 30t29.5 11q19 0 30 -11t11 -30q0 -18 -11 -29.5t-30 -11.5q-18 0 -29.5 11.5t-11.5 29.5z" />
    <glyph glyph-name="uniE24B" unicode="&#xe24b;" horiz-adv-x="408" 
d="M87 532h63v-482h229v-50h-292v532zM199 -74h59l-69 -168h-52z" />
    <glyph glyph-name="uniE24C" unicode="&#xe24c;" horiz-adv-x="419" 
d="M99 205l-65 -32v53l65 32v274h62v-242l130 65v-53l-130 -65v-187h230v-50h-292v205z" />
    <glyph glyph-name="uniE24D" unicode="&#xe24d;" horiz-adv-x="592" 
d="M87 532h56l302 -430v430h60v-532h-56l-302 430v-430h-60v532zM351 750h69l-112 -144h-56z" />
    <glyph glyph-name="uniE24E" unicode="&#xe24e;" horiz-adv-x="592" 
d="M87 532h56l302 -430v430h60v-532h-56l-302 430v-430h-60v532zM322 606h-51l-100 144h54l71 -92l71 92h54z" />
    <glyph glyph-name="uniE24F" unicode="&#xe24f;" horiz-adv-x="592" 
d="M87 532h56l302 -430v430h60v-532h-56l-302 430v-430h-60v532zM153 636q0 42 23 68.5t59 26.5q19 0 35.5 -9t30.5 -19.5t27.5 -19.5t26.5 -9q17 0 28 12.5t11 33.5h45q0 -42 -22.5 -68t-58.5 -26q-20 0 -36 9t-30.5 19.5t-28 19.5t-26.5 9q-17 0 -28 -12.5t-11 -34.5h-45z
" />
    <glyph glyph-name="uniE250" unicode="&#xe250;" horiz-adv-x="592" 
d="M87 532h56l302 -430v430h60v-532h-56l-302 430v-430h-60v532zM273 -74h59l-69 -168h-52z" />
    <glyph glyph-name="uniE251" unicode="&#xe251;" horiz-adv-x="779" 
d="M275 532h56l302 -430v430h60v-532h-56l-302 430v-430h-60v532zM130 688h63l-82 -197h-53z" />
    <glyph glyph-name="uniE252" unicode="&#xe252;" horiz-adv-x="592" 
d="M49 266q0 61 18 112t51 88t78.5 57.5t99.5 20.5t99.5 -20.5t78.5 -57.5t51 -88t18 -112t-18 -112t-51 -88t-78.5 -57.5t-99.5 -20.5t-99.5 20.5t-78.5 57.5t-51 88t-18 112zM113 266q0 -50 13.5 -91.5t38 -71.5t58 -46.5t73.5 -16.5t73.5 16.5t58 46.5t38 71.5t13.5 91.5
q0 49 -13.5 90.5t-38 71.5t-58 46.5t-73.5 16.5t-73.5 -16.5t-58 -46.5t-38 -71.5t-13.5 -90.5zM172 750h69l99 -144h-56z" />
    <glyph glyph-name="uniE253" unicode="&#xe253;" horiz-adv-x="592" 
d="M49 266q0 61 18 112t51 88t78.5 57.5t99.5 20.5t99.5 -20.5t78.5 -57.5t51 -88t18 -112t-18 -112t-51 -88t-78.5 -57.5t-99.5 -20.5t-99.5 20.5t-78.5 57.5t-51 88t-18 112zM113 266q0 -50 13.5 -91.5t38 -71.5t58 -46.5t73.5 -16.5t73.5 16.5t58 46.5t38 71.5t13.5 91.5
q0 49 -13.5 90.5t-38 71.5t-58 46.5t-73.5 16.5t-73.5 -16.5t-58 -46.5t-38 -71.5t-13.5 -90.5zM351 750h69l-112 -144h-56z" />
    <glyph glyph-name="uniE254" unicode="&#xe254;" horiz-adv-x="592" 
d="M49 266q0 61 18 112t51 88t78.5 57.5t99.5 20.5t99.5 -20.5t78.5 -57.5t51 -88t18 -112t-18 -112t-51 -88t-78.5 -57.5t-99.5 -20.5t-99.5 20.5t-78.5 57.5t-51 88t-18 112zM113 266q0 -50 13.5 -91.5t38 -71.5t58 -46.5t73.5 -16.5t73.5 16.5t58 46.5t38 71.5t13.5 91.5
q0 49 -13.5 90.5t-38 71.5t-58 46.5t-73.5 16.5t-73.5 -16.5t-58 -46.5t-38 -71.5t-13.5 -90.5zM271 750h51l99 -144h-54l-71 93l-71 -93h-54z" />
    <glyph glyph-name="uniE255" unicode="&#xe255;" horiz-adv-x="592" 
d="M49 266q0 61 18 112t51 88t78.5 57.5t99.5 20.5t99.5 -20.5t78.5 -57.5t51 -88t18 -112t-18 -112t-51 -88t-78.5 -57.5t-99.5 -20.5t-99.5 20.5t-78.5 57.5t-51 88t-18 112zM113 266q0 -50 13.5 -91.5t38 -71.5t58 -46.5t73.5 -16.5t73.5 16.5t58 46.5t38 71.5t13.5 91.5
q0 49 -13.5 90.5t-38 71.5t-58 46.5t-73.5 16.5t-73.5 -16.5t-58 -46.5t-38 -71.5t-13.5 -90.5zM153 636q0 42 23 68.5t59 26.5q19 0 35.5 -9t30.5 -19.5t27.5 -19.5t26.5 -9q17 0 28 12.5t11 33.5h45q0 -42 -22.5 -68t-58.5 -26q-20 0 -36 9t-30.5 19.5t-28 19.5t-26.5 9
q-17 0 -28 -12.5t-11 -34.5h-45z" />
    <glyph glyph-name="uniE256" unicode="&#xe256;" horiz-adv-x="592" 
d="M49 266q0 61 18 112t51 88t78.5 57.5t99.5 20.5t99.5 -20.5t78.5 -57.5t51 -88t18 -112t-18 -112t-51 -88t-78.5 -57.5t-99.5 -20.5t-99.5 20.5t-78.5 57.5t-51 88t-18 112zM113 266q0 -50 13.5 -91.5t38 -71.5t58 -46.5t73.5 -16.5t73.5 16.5t58 46.5t38 71.5t13.5 91.5
q0 49 -13.5 90.5t-38 71.5t-58 46.5t-73.5 16.5t-73.5 -16.5t-58 -46.5t-38 -71.5t-13.5 -90.5zM355 678q0 19 11 30t29 11t29.5 -11t11.5 -30q0 -17 -11.5 -29t-29.5 -12t-29 12t-11 29zM156 678q0 19 11.5 30t29.5 11t29.5 -11t11.5 -30q0 -17 -11.5 -29t-29.5 -12
t-29.5 12t-11.5 29z" />
    <glyph glyph-name="uniE257" unicode="&#xe257;" horiz-adv-x="592" 
d="M49 266q0 61 18 112t51 88t78.5 57.5t99.5 20.5t99.5 -20.5t78.5 -57.5t51 -88t18 -112t-18 -112t-51 -88t-78.5 -57.5t-99.5 -20.5t-99.5 20.5t-78.5 57.5t-51 88t-18 112zM113 266q0 -50 13.5 -91.5t38 -71.5t58 -46.5t73.5 -16.5t73.5 16.5t58 46.5t38 71.5t13.5 91.5
q0 49 -13.5 90.5t-38 71.5t-58 46.5t-73.5 16.5t-73.5 -16.5t-58 -46.5t-38 -71.5t-13.5 -90.5zM151 702h290v-47h-290v47z" />
    <glyph glyph-name="uniE258" unicode="&#xe258;" horiz-adv-x="592" 
d="M49 266q0 61 18 112t51 88t78.5 57.5t99.5 20.5t99.5 -20.5t78.5 -57.5t51 -88t18 -112t-18 -112t-51 -88t-78.5 -57.5t-99.5 -20.5t-99.5 20.5t-78.5 57.5t-51 88t-18 112zM113 266q0 -50 13.5 -91.5t38 -71.5t58 -46.5t73.5 -16.5t73.5 16.5t58 46.5t38 71.5t13.5 91.5
q0 49 -13.5 90.5t-38 71.5t-58 46.5t-73.5 16.5t-73.5 -16.5t-58 -46.5t-38 -71.5t-13.5 -90.5zM213 750q0 -38 23.5 -62.5t59.5 -24.5t59.5 24.5t23.5 62.5h47q0 -30 -9.5 -55.5t-27 -43.5t-41.5 -28t-52 -10q-29 0 -52.5 10t-41 28t-27 43.5t-9.5 55.5h47z" />
    <glyph glyph-name="uniE259" unicode="&#xe259;" horiz-adv-x="592" 
d="M49 266q0 61 18 112t51 88t78.5 57.5t99.5 20.5t99.5 -20.5t78.5 -57.5t51 -88t18 -112t-18 -112t-51 -88t-78.5 -57.5t-99.5 -20.5t-99.5 20.5t-78.5 57.5t-51 88t-18 112zM113 266q0 -50 13.5 -91.5t38 -71.5t58 -46.5t73.5 -16.5t73.5 16.5t58 46.5t38 71.5t13.5 91.5
q0 49 -13.5 90.5t-38 71.5t-58 46.5t-73.5 16.5t-73.5 -16.5t-58 -46.5t-38 -71.5t-13.5 -90.5zM433 750h70l-113 -144h-57zM270 750h69l-113 -144h-56z" />
    <glyph glyph-name="uniE25A" unicode="&#xe25a;" horiz-adv-x="592" 
d="M49 266q0 61 18 112t51 88t78.5 57.5t99.5 20.5q42 0 79.5 -13t67.5 -36l27 37h50l-48 -65q34 -37 52.5 -88t18.5 -113q0 -61 -18 -112t-51 -88t-78.5 -57.5t-99.5 -20.5q-86 0 -146 49l-29 -37h-50l49 65q-34 37 -52.5 87.5t-18.5 113.5zM112 266q0 -47 11.5 -85
t32.5 -67l252 335q-45 43 -112 43q-41 0 -74.5 -16.5t-58 -46.5t-38 -71.5t-13.5 -91.5zM479 266q0 94 -43 152l-253 -335q48 -43 113 -43q40 0 74 16.5t58 46.5t37.5 71.5t13.5 91.5z" />
    <glyph glyph-name="uniE25C" unicode="&#xe25c;" horiz-adv-x="757" 
d="M699 483h-241v-189h212v-49h-212v-196h247v-49h-397q-57 0 -104.5 19.5t-82 55t-53.5 84t-19 107.5q0 58 19 107t53.5 84.5t82 55t104.5 19.5h391v-49zM396 482h-84q-44 0 -80.5 -16t-63 -44.5t-41 -68t-14.5 -87.5t14.5 -88t41 -68.5t63 -44t80.5 -15.5h84v432z" />
    <glyph glyph-name="uniE25D" unicode="&#xe25d;" horiz-adv-x="488" 
d="M149 259h91q54 0 88 31t34 81t-34 81t-88 31h-91v-224zM87 532h161q39 0 72 -12t56 -33t36 -50.5t13 -65.5q0 -58 -32.5 -98t-89.5 -55l136 -218h-68l-130 211h-92v-211h-62v532zM300 750h69l-112 -144h-56z" />
    <glyph glyph-name="uniE25E" unicode="&#xe25e;" horiz-adv-x="488" 
d="M149 259h91q54 0 88 31t34 81t-34 81t-88 31h-91v-224zM87 532h161q39 0 72 -12t56 -33t36 -50.5t13 -65.5q0 -58 -32.5 -98t-89.5 -55l136 -218h-68l-130 211h-92v-211h-62v532zM271 606h-51l-100 144h54l71 -92l71 92h54z" />
    <glyph glyph-name="uniE25F" unicode="&#xe25f;" horiz-adv-x="488" 
d="M149 259h91q54 0 88 31t34 81t-34 81t-88 31h-91v-224zM87 532h161q39 0 72 -12t56 -33t36 -50.5t13 -65.5q0 -58 -32.5 -98t-89.5 -55l136 -218h-68l-130 211h-92v-211h-62v532zM222 -74h59l-69 -168h-52z" />
    <glyph glyph-name="uniE260" unicode="&#xe260;" horiz-adv-x="440" 
d="M64 90q35 -23 71.5 -37t71.5 -14q54 0 87.5 28t33.5 73q0 34 -20.5 53.5t-51 33t-66 25t-66 28.5t-51 44t-20.5 72q0 32 13 59t36 47t56 31t72 11q66 0 135 -32v-61q-65 41 -130 41q-54 0 -87 -26t-33 -68q0 -33 20.5 -52t51 -32t66 -24.5t66 -29t51 -45t20.5 -73.5
q0 -33 -13 -61.5t-37 -49t-56.5 -32t-71.5 -11.5q-38 0 -75 10t-73 29v63zM275 750h69l-112 -144h-56z" />
    <glyph glyph-name="uniE261" unicode="&#xe261;" horiz-adv-x="440" 
d="M64 90q35 -23 71.5 -37t71.5 -14q54 0 87.5 28t33.5 73q0 34 -20.5 53.5t-51 33t-66 25t-66 28.5t-51 44t-20.5 72q0 32 13 59t36 47t56 31t72 11q66 0 135 -32v-61q-65 41 -130 41q-54 0 -87 -26t-33 -68q0 -33 20.5 -52t51 -32t66 -24.5t66 -29t51 -45t20.5 -73.5
q0 -33 -13 -61.5t-37 -49t-56.5 -32t-71.5 -11.5q-38 0 -75 10t-73 29v63zM195 750h51l99 -144h-54l-71 93l-71 -93h-54z" />
    </font>
</defs>
</svg>
